<svg width="16" height="16" viewBox="0 0 16 16" fill="none" xmlns="http://www.w3.org/2000/svg">
<path d="M8.00002 11.3333C7.55799 11.3333 7.13407 11.5089 6.82151 11.8215C6.50895 12.134 6.33335 12.558 6.33335 13C6.33335 13.442 6.50895 13.8659 6.82151 14.1785C7.13407 14.4911 7.55799 14.6666 8.00002 14.6666C8.44205 14.6666 8.86597 14.4911 9.17853 14.1785C9.49109 13.8659 9.66669 13.442 9.66669 13C9.66669 12.558 9.49109 12.134 9.17853 11.8215C8.86597 11.5089 8.44205 11.3333 8.00002 11.3333ZM8.00002 11.3333V1.33331M8.00002 1.33331L9.50002 2.83331M8.00002 1.33331L6.50002 2.83331M8.00002 10.1466L5.37335 9.55998C4.76002 9.41998 4.32669 8.87998 4.32669 8.25331V7.31998M8.00002 9.09998L10.7134 8.27998C11.2734 8.10665 11.66 7.58665 11.66 6.99998V6.31998M11.1667 3.99998H12.1667C12.5349 3.99998 12.8334 4.29846 12.8334 4.66665V5.66665C12.8334 6.03484 12.5349 6.33331 12.1667 6.33331H11.1667C10.7985 6.33331 10.5 6.03484 10.5 5.66665V4.66665C10.5 4.29846 10.7985 3.99998 11.1667 3.99998ZM4.33335 4.99998C4.02393 4.99998 3.72719 5.1229 3.5084 5.34169C3.2896 5.56048 3.16669 5.85723 3.16669 6.16665C3.16669 6.47607 3.2896 6.77281 3.5084 6.9916C3.72719 7.2104 4.02393 7.33331 4.33335 7.33331C4.64277 7.33331 4.93952 7.2104 5.15831 6.9916C5.3771 6.77281 5.50002 6.47607 5.50002 6.16665C5.50002 5.85723 5.3771 5.56048 5.15831 5.34169C4.93952 5.1229 4.64277 4.99998 4.33335 4.99998Z" stroke="black" stroke-width="1.3" stroke-linecap="round" stroke-linejoin="round"/>
</svg>
