<svg width="16" height="16" viewBox="0 0 16 16" fill="none" xmlns="http://www.w3.org/2000/svg">
<path fill-rule="evenodd" clip-rule="evenodd" d="M13.3334 3.05V12.95C13.3334 13.1876 13.2069 13.4073 13.0015 13.5266L12.3411 13.9099C12.1356 14.0292 11.8821 14.0301 11.6757 13.9122L10.6629 13.3336L9.67082 13.9093C9.46471 14.0289 9.21043 14.0295 9.00384 13.9107L8.00008 13.3333L6.99632 13.9106C6.78974 14.0294 6.53545 14.0289 6.32933 13.9093L5.33725 13.3336L4.32439 13.9122C4.11804 14.0301 3.86453 14.0292 3.659 13.9099L2.9987 13.5266C2.79321 13.4073 2.66675 13.1876 2.66675 12.95V3.05C2.66675 2.81239 2.79322 2.59274 2.99871 2.47345L3.65901 2.09011C3.86454 1.9708 4.11805 1.96991 4.32441 2.08779L5.33727 2.66639L6.32933 2.09067C6.53544 1.97105 6.78972 1.97054 6.99631 2.08933L8.00008 2.66667L9.00385 2.0894C9.21043 1.9706 9.46472 1.97111 9.67083 2.09073L10.6629 2.66646L11.6758 2.08785C11.8821 1.96997 12.1356 1.97086 12.3411 2.09017L13.0015 2.47351C13.2069 2.59279 13.3334 2.81241 13.3334 3.05Z" stroke="black" stroke-width="1.3" stroke-linecap="round" stroke-linejoin="round"/>
<path d="M10.3522 7.41215C10.4494 6.78174 9.95494 6.44278 9.27931 6.2166L9.49853 5.36242L8.96348 5.23309L8.74984 6.06472C8.60926 6.03043 8.46497 5.99855 8.32099 5.96666L8.53619 5.12963L8.00114 5L7.78191 5.85388C7.66549 5.82801 7.55093 5.80275 7.44008 5.77568L7.44069 5.77297L6.70252 5.59401L6.56009 6.14923C6.56009 6.14923 6.95735 6.23766 6.94899 6.24307C7.16574 6.2957 7.20475 6.43496 7.19825 6.54564L6.94868 7.51862C6.96355 7.52223 6.98274 7.52765 7.00442 7.53577L6.94775 7.52223L6.59787 8.88531C6.57124 8.94907 6.50405 9.04501 6.35232 9.00862C6.3579 9.01614 5.96342 8.91448 5.96342 8.91448L5.69775 9.5094L6.39443 9.67813C6.52386 9.70971 6.65081 9.74279 6.7756 9.77377L6.55421 10.6376L7.08895 10.7669L7.30817 9.91273C7.45432 9.95092 7.59613 9.98642 7.73485 10.0201L7.51625 10.8707L8.0513 11L8.27269 10.138C9.18549 10.3058 9.87165 10.2382 10.1605 9.43631C10.3934 8.79087 10.1491 8.41822 9.66884 8.1755C10.0187 8.0973 10.2819 7.87383 10.3522 7.41215ZM9.12914 9.0778C8.9641 9.72355 7.84477 9.37435 7.48188 9.28683L7.77603 8.14241C8.13892 8.23054 9.30223 8.40468 9.12914 9.0778ZM9.29479 7.40283C9.144 7.99023 8.21262 7.69156 7.91072 7.61848L8.17701 6.58083C8.4789 6.65392 9.45209 6.79016 9.29479 7.40283Z" fill="black"/>
</svg>
