<svg width="16" height="16" viewBox="0 0 16 16" fill="none" xmlns="http://www.w3.org/2000/svg">
<path d="M12.0167 14V14.65H13.3167V14H12.0167ZM2.68337 14V14.65H3.98337V14H2.68337ZM5.50004 13.35H4.85004V14.65H5.50004V13.35ZM10.5 14.65H11.15V13.35H10.5V14.65ZM5.50004 12.6833C5.14106 12.6833 4.85004 12.9743 4.85004 13.3333C4.85004 13.6923 5.14106 13.9833 5.50004 13.9833V12.6833ZM10.5 13.9833C10.859 13.9833 11.15 13.6923 11.15 13.3333C11.15 12.9743 10.859 12.6833 10.5 12.6833V13.9833ZM12.6667 14H13.3167V6.66667H12.6667H12.0167V14H12.6667ZM12.6667 6.66667H13.3167V4.66667H12.6667H12.0167V6.66667H12.6667ZM12.6667 4.66667H13.3167V4H12.6667H12.0167V4.66667H12.6667ZM10.6667 2V1.35H5.33337V2V2.65H10.6667V2ZM3.33337 4H2.68337V14H3.33337H3.98337V4H3.33337ZM5.33337 2V1.35C3.86982 1.35 2.68337 2.53645 2.68337 4H3.33337H3.98337C3.98337 3.25442 4.58779 2.65 5.33337 2.65V2ZM12.6667 4H13.3167C13.3167 2.53645 12.1303 1.35 10.6667 1.35V2V2.65C11.4123 2.65 12.0167 3.25442 12.0167 4H12.6667ZM12.6667 4.66667V5.31667H13.1334V4.66667V4.01667H12.6667V4.66667ZM13.2667 4.8H12.6167V6.53333H13.2667H13.9167V4.8H13.2667ZM13.1334 6.66667V6.01667H12.6667V6.66667V7.31667H13.1334V6.66667ZM13.2667 6.53333H12.6167C12.6167 6.24799 12.848 6.01667 13.1334 6.01667V6.66667V7.31667C13.566 7.31667 13.9167 6.96596 13.9167 6.53333H13.2667ZM13.1334 4.66667V5.31667C12.848 5.31667 12.6167 5.08535 12.6167 4.8H13.2667H13.9167C13.9167 4.36738 13.566 4.01667 13.1334 4.01667V4.66667ZM5.50004 14V14.65H10.5V14V13.35H5.50004V14ZM5.50004 13.3333V13.9833H10.5V13.3333V12.6833H5.50004V13.3333Z" fill="black"/>
</svg>
