<svg width="16" height="16" viewBox="0 0 16 16" fill="none" xmlns="http://www.w3.org/2000/svg">
<path fill-rule="evenodd" clip-rule="evenodd" d="M9.77297 2.50564C8.98349 1.11762 6.98419 1.11381 6.19838 2.50662L6.19765 2.50793L1.09992 11.4411C0.315661 12.8131 1.30623 14.5207 2.88662 14.5207H13.0993C14.6752 14.5207 15.6714 12.8088 14.8866 11.441L9.77297 2.50564ZM8.5002 6.25336C8.5002 5.97721 8.27634 5.75336 8.0002 5.75336C7.72406 5.75336 7.5002 5.97721 7.5002 6.25336V8.74669C7.5002 9.02283 7.72406 9.24669 8.0002 9.24669C8.27634 9.24669 8.5002 9.02283 8.5002 8.74669V6.25336ZM7.99353 10.25L7.99015 10.25L7.98686 10.25C7.97296 10.25 7.95919 10.2506 7.94558 10.2517C7.59868 10.2761 7.32686 10.5633 7.32686 10.9167C7.32686 11.2665 7.61123 11.5834 7.99353 11.5834C8.19029 11.5834 8.35414 11.4949 8.46292 11.3861C8.57169 11.2773 8.6602 11.1135 8.6602 10.9167C8.6602 10.5435 8.36527 10.2799 8.04254 10.2524C8.02641 10.2508 8.01007 10.25 7.99353 10.25Z" fill="black"/>
</svg>
