<svg width="12" height="12" viewBox="0 0 12 12" fill="none" xmlns="http://www.w3.org/2000/svg">
<g clip-path="url(#clip0_436_164)">
<path d="M1.50012 6L1.00012 4H1.90012C1.95012 4 2.05012 4.05 2.10012 4.1L2.90012 5L5.30012 5L3.70012 1.35C3.60012 1.2 3.70012 1 3.90012 1H4.75012C4.90012 1 5.05012 1.1 5.15012 1.2L7.65012 5H10.0001C10.5501 5 11.0001 5.45 11.0001 6C11.0001 6.55 10.5501 7 10.0001 7H7.65012L5.15012 10.8C5.05012 10.95 4.90012 11 4.75012 11H3.90012C3.70012 11 3.60012 10.8 3.65012 10.65L5.25012 7L2.85012 7L2.05012 7.9C2.00012 7.95 1.95012 8 1.85012 8H1.00012L1.50012 6Z" stroke="black" stroke-linecap="round" stroke-linejoin="round"/>
</g>
<defs>
<clipPath id="clip0_436_164">
<rect width="12" height="12" fill="white"/>
</clipPath>
</defs>
</svg>
