<svg width="12" height="12" viewBox="0 0 12 12" fill="none" xmlns="http://www.w3.org/2000/svg">
<path d="M2.335 8.6045C2.627 9.0145 2.9855 9.373 3.3955 9.665M1.5675 5.25C1.5265 5.4945 1.5 5.744 1.5 6C1.5 6.256 1.5265 6.5055 1.5675 6.75M2.335 3.3955C2.627 2.985 2.985 2.627 3.3955 2.3345M5.25 10.4325C5.4945 10.4735 5.744 10.5 6 10.5C8.4855 10.5 10.5 8.4855 10.5 6C10.5 3.5145 8.4855 1.5 6 1.5C5.744 1.5 5.4945 1.5265 5.25 1.5675M8 5L5.5 7.5L4 6" stroke="black" stroke-linecap="round" stroke-linejoin="round"/>
</svg>
