<svg width="12" height="12" viewBox="0 0 12 12" fill="none" xmlns="http://www.w3.org/2000/svg">
<path d="M8.94159 8.513C8.94157 8.70971 8.87316 8.87658 8.73651 9.01325C8.59961 9.14981 8.43504 9.21759 8.24286 9.21759H7.76239V10.6729C7.76239 10.8567 7.69794 11.0127 7.56976 11.1409C7.44156 11.2691 7.28542 11.3336 7.10175 11.3336C6.91803 11.3335 6.76188 11.2691 6.63373 11.1409C6.5057 11.0128 6.44183 10.8566 6.44183 10.6729V9.21759H5.55707V10.6729C5.55707 10.8566 5.49322 11.0128 5.36517 11.1409C5.23701 11.2691 5.08076 11.3335 4.89716 11.3336C4.71776 11.3336 4.56391 11.2691 4.43573 11.1409C4.30755 11.0127 4.2431 10.8567 4.2431 10.6729L4.23651 9.21759H3.76263C3.566 9.21759 3.39919 9.1492 3.26239 9.01251C3.12583 8.8759 3.05736 8.70962 3.05731 8.513V4.24371H8.94159V8.513Z" fill="black"/>
<path d="M2.14691 4.12213C2.32644 4.12213 2.48087 4.18585 2.60907 4.31403C2.73717 4.44216 2.80093 4.59601 2.80096 4.77545V7.53229C2.80089 7.71617 2.73787 7.8722 2.612 8.00031C2.48584 8.12839 2.33048 8.1922 2.14691 8.1922C1.9634 8.19213 1.80768 8.12821 1.67963 8.00031C1.5515 7.87218 1.48707 7.71617 1.487 7.53229V4.77545C1.48703 4.59598 1.55148 4.44218 1.67963 4.31403C1.80771 4.18603 1.96334 4.1222 2.14691 4.12213Z" fill="black"/>
<path d="M9.85272 4.12213C10.0362 4.12221 10.1919 4.18525 10.32 4.3111C10.4482 4.43724 10.5126 4.59195 10.5126 4.77545V7.53229C10.5126 7.71617 10.4481 7.87218 10.32 8.00031C10.1919 8.12823 10.0361 8.19212 9.85272 8.1922C9.6733 8.1922 9.51876 8.1285 9.39056 8.00031C9.26244 7.87218 9.19874 7.71617 9.19867 7.53229V4.77545C9.1987 4.59209 9.26258 4.4372 9.39056 4.3111C9.51877 4.18515 9.67318 4.12213 9.85272 4.12213Z" fill="black"/>
<path fill-rule="evenodd" clip-rule="evenodd" d="M7.87811 0.679749C7.92922 0.709716 7.94018 0.75239 7.91034 0.807923L7.45477 1.64728C7.91193 1.88264 8.2777 2.21073 8.55121 2.63165C8.82457 3.05283 8.96136 3.5131 8.96136 4.013H3.03168C3.03168 3.51289 3.16908 3.0528 3.44257 2.63165C3.71606 2.21073 4.08334 1.88264 4.54486 1.64728L4.09003 0.807923C4.06007 0.752399 4.07033 0.70985 4.12152 0.679749C4.17694 0.654044 4.21971 0.666841 4.24969 0.717835L4.71112 1.56451C5.11706 1.38499 5.54717 1.29498 6.00018 1.29498C6.45298 1.29503 6.88253 1.38502 7.28851 1.56451L7.74994 0.717835C7.77979 0.666821 7.82255 0.653924 7.87811 0.679749ZM4.6474 2.44269C4.57907 2.44269 4.5208 2.46683 4.47382 2.51593C4.42686 2.56514 4.4035 2.62413 4.4035 2.69244C4.40352 2.76082 4.42706 2.81921 4.47382 2.86823C4.5208 2.91756 4.57893 2.9422 4.6474 2.9422C4.71563 2.94214 4.77402 2.9175 4.82318 2.86823C4.87213 2.81915 4.897 2.76084 4.89716 2.69244C4.89716 2.62411 4.87229 2.56527 4.82318 2.51593C4.77407 2.46706 4.71551 2.44275 4.6474 2.44269ZM7.35223 2.44269C7.28378 2.44271 7.22483 2.46684 7.17572 2.51593C7.12652 2.56515 7.10248 2.62411 7.10248 2.69244C7.1025 2.76084 7.12673 2.8192 7.17572 2.86823C7.22483 2.91754 7.28378 2.94218 7.35223 2.9422C7.42045 2.9422 7.47801 2.91756 7.52509 2.86823C7.57203 2.81915 7.59611 2.76083 7.59613 2.69244C7.59613 2.62411 7.57211 2.56527 7.52509 2.51593C7.47803 2.46698 7.42046 2.44269 7.35223 2.44269Z" fill="black"/>
</svg>
