<svg width="16" height="16" viewBox="0 0 16 16" fill="none" xmlns="http://www.w3.org/2000/svg">
<path fill-rule="evenodd" clip-rule="evenodd" d="M11 1.33334C11.9205 1.33334 12.6666 2.07954 12.6666 3.00001V3.33334C12.8507 3.33334 13 3.48258 13 3.66668V5.33334C13 5.49449 12.8857 5.62915 12.7337 5.66017L12.6666 5.66668V13C12.6666 13.9205 11.9205 14.6667 11 14.6667H4.99998C4.07951 14.6667 3.33331 13.9205 3.33331 13V3.00001C3.33331 2.07954 4.07951 1.33334 4.99998 1.33334H11ZM9.66665 12.6667C9.29846 12.6667 8.99998 12.9652 8.99998 13.3333C8.99998 13.7015 9.29846 14 9.66665 14H11C11.3682 14 11.6666 13.7015 11.6666 13.3333C11.6666 12.9652 11.3682 12.6667 11 12.6667H9.66665ZM4.99998 2.33334C4.63179 2.33334 4.33331 2.63182 4.33331 3.00001V11C4.33331 11.3682 4.63179 11.6667 4.99998 11.6667H11C11.3682 11.6667 11.6666 11.3682 11.6666 11V3.00001C11.6666 2.63182 11.3682 2.33334 11 2.33334H4.99998Z" fill="black"/>
</svg>
