<svg width="12" height="12" viewBox="0 0 12 12" fill="none" xmlns="http://www.w3.org/2000/svg">
<path d="M4.50014 10.92C4.74014 10.92 5.08814 10.812 5.31614 10.716C5.62814 10.596 5.94015 10.524 6.21615 10.524C6.46814 10.524 6.75615 10.596 7.09214 10.716C7.40415 10.848 7.66815 10.92 7.89614 10.92C8.20815 10.92 8.49615 10.776 8.77215 10.524C8.94015 10.392 9.16815 10.104 9.44415 9.70802C9.64815 9.43202 9.82815 9.10802 9.98415 8.76002L10.1521 8.30402C9.38415 7.98002 8.80815 7.24802 8.80815 6.30002C8.78415 5.48402 9.15615 4.84802 9.90015 4.40402C9.46815 3.80402 8.85614 3.48002 8.04014 3.42002C7.71615 3.39602 7.34414 3.46802 6.91215 3.62402C6.44414 3.79202 6.15615 3.87602 6.07214 3.87602C5.97614 3.87602 5.71214 3.80402 5.34014 3.64802C4.93214 3.51602 4.63214 3.44402 4.39214 3.44402C3.96014 3.45602 3.56414 3.55202 3.19214 3.78002C2.80814 3.99602 2.52014 4.29602 2.29214 4.69202C2.00414 5.16002 1.84814 5.73602 1.84814 6.39602C1.84814 6.96002 1.95614 7.56002 2.18414 8.18402C2.37614 8.74802 2.62814 9.24002 2.92814 9.67202C3.22814 10.092 3.45614 10.368 3.64814 10.524C3.92414 10.788 4.21214 10.92 4.50014 10.92ZM6.01215 3.22802C6.01215 3.28802 6.01215 3.34802 6.02415 3.40802C7.06814 3.50402 8.07615 2.36402 8.07615 1.27202V1.08002C7.82414 1.09202 7.54814 1.16402 7.27214 1.30802C6.50415 1.69202 6.01215 2.46002 6.01215 3.22802Z" fill="black"/>
</svg>
