<svg width="12" height="12" viewBox="0 0 12 12" fill="none" xmlns="http://www.w3.org/2000/svg">
<path d="M8.75 7.5V10M10 8.75H7.5M4 5H2.5C1.9475 5 1.5 4.55 1.5 4V2.5C1.5 1.9475 1.9475 1.5 2.5 1.5H4C4.55 1.5 5 1.9475 5 2.5V4C5 4.55 4.55 5 4 5ZM9.5 5H8C7.445 5 7 4.55 7 4V2.5C7 1.9475 7.445 1.5 8 1.5H9.5C10.05 1.5 10.5 1.9475 10.5 2.5V4C10.5 4.55 10.05 5 9.5 5ZM4 10.5H2.5C1.9475 10.5 1.5 10.05 1.5 9.5V8C1.5 7.445 1.9475 7 2.5 7H4C4.55 7 5 7.445 5 8V9.5C5 10.05 4.55 10.5 4 10.5Z" stroke="black" stroke-linecap="round" stroke-linejoin="round"/>
</svg>
