<svg width="17" height="16" viewBox="0 0 17 16" fill="none" xmlns="http://www.w3.org/2000/svg">
<path d="M8.19712 4.96714C8.19685 5.05869 8.12292 5.13264 8.03141 5.13307C7.93947 5.13307 7.86396 5.05828 7.86378 4.96638C7.86409 4.87463 7.93902 4.80014 8.03083 4.80009C8.12273 4.80026 8.19712 4.8752 8.19712 4.96714ZM4.34873 11.7968C4.2707 11.8453 4.1674 11.8219 4.1187 11.7441C4.07012 11.6659 4.0946 11.5623 4.17278 11.5137C4.25088 11.4656 4.35339 11.4902 4.40184 11.5681C4.44991 11.646 4.42624 11.7482 4.34873 11.7968ZM8.19694 5.63347C8.19668 5.72518 8.12247 5.80008 8.03074 5.80025C7.93878 5.80015 7.8636 5.72469 7.8636 5.63271C7.86391 5.54093 7.93964 5.46691 8.0315 5.46691C8.12303 5.46738 8.19677 5.54186 8.19694 5.63347ZM4.91367 11.4453C4.83568 11.4934 4.73357 11.4699 4.68497 11.3922C4.63648 11.3141 4.6599 11.2108 4.73772 11.1621C4.8159 11.1135 4.91952 11.138 4.9681 11.2162C5.01634 11.2943 4.99171 11.3968 4.91367 11.4453ZM8.19676 6.2998C8.19676 6.39158 8.12308 6.46664 8.0314 6.46707C7.93949 6.46707 7.864 6.39224 7.86378 6.30037C7.86378 6.20833 7.93927 6.13324 8.03132 6.13323C8.12297 6.13362 8.19667 6.20807 8.19676 6.2998ZM5.47994 11.0934C5.40196 11.1415 5.29986 11.1179 5.25124 11.0403C5.20266 10.9621 5.22665 10.8593 5.30483 10.8107C5.38301 10.7622 5.48579 10.7861 5.53437 10.8643C5.58257 10.9424 5.55796 11.0449 5.47994 11.0934ZM8.19694 6.96746C8.1965 7.05892 8.12271 7.13307 8.03122 7.1334C7.93928 7.1334 7.86377 7.0586 7.8636 6.9667C7.86373 6.87477 7.93917 6.79956 8.03113 6.79956C8.12294 6.79985 8.19694 6.87559 8.19694 6.96746ZM6.04669 10.7406C5.96867 10.7891 5.86621 10.7662 5.81751 10.6884C5.76897 10.6103 5.7931 10.5075 5.8711 10.4588C5.94925 10.4104 6.05211 10.4343 6.10064 10.5124C6.14878 10.5904 6.12445 10.692 6.04669 10.7406ZM8.19725 7.63294C8.19725 7.72485 8.12289 7.79949 8.03104 7.79972C7.93901 7.79972 7.86344 7.72505 7.86341 7.63303C7.86358 7.54113 7.93937 7.46723 8.03131 7.46723C8.12292 7.46761 8.19706 7.54129 8.19725 7.63294ZM6.61248 10.3896C6.53449 10.4378 6.43242 10.4142 6.38378 10.3365C6.33525 10.2584 6.35858 10.1551 6.43653 10.1064C6.51471 10.0578 6.61833 10.0823 6.66691 10.1605C6.7151 10.2386 6.6905 10.3411 6.61248 10.3896ZM7.17875 10.0377C7.10076 10.0859 6.99869 10.0623 6.95005 9.98456C6.90147 9.90639 6.92548 9.80361 7.00364 9.75502C7.08181 9.70653 7.18462 9.73047 7.23318 9.80861C7.28138 9.88673 7.25677 9.98917 7.17875 10.0377ZM8.19658 8.30012C8.1965 8.39189 8.12293 8.46706 8.03122 8.46739C7.93917 8.46739 7.86408 8.3919 7.86408 8.29985C7.86415 8.20786 7.93913 8.13356 8.03113 8.13356C8.12293 8.13384 8.19657 8.20825 8.19658 8.30012ZM8.92731 10.0774C8.88128 10.1571 8.7789 10.1846 8.69919 10.1385C8.61972 10.0924 8.59297 9.99053 8.63891 9.91092C8.68494 9.8315 8.78611 9.80443 8.86569 9.85016C8.94533 9.89613 8.97313 9.99775 8.92731 10.0774ZM9.50409 10.4104C9.4581 10.4901 9.3565 10.5179 9.27682 10.472C9.19723 10.426 9.16972 10.3236 9.2157 10.2439C9.26177 10.1645 9.36372 10.1378 9.44333 10.1837C9.52281 10.2297 9.54987 10.3308 9.50409 10.4104ZM10.0817 10.7439C10.0357 10.8236 9.93332 10.8511 9.85361 10.8051C9.77434 10.7589 9.74743 10.657 9.79333 10.5774C9.83932 10.4981 9.94057 10.4711 10.0201 10.5167C10.0997 10.5626 10.1275 10.6643 10.0817 10.7439ZM10.6594 11.0774C10.6133 11.1571 10.5109 11.1846 10.4312 11.1385C10.3518 11.0924 10.325 10.9905 10.371 10.9109C10.417 10.8315 10.5182 10.8044 10.5977 10.8502C10.6774 10.8961 10.7052 10.9977 10.6594 11.0774ZM11.2361 11.4104C11.1901 11.4901 11.0886 11.5179 11.0089 11.472C10.9293 11.426 10.9018 11.3236 10.9478 11.2439C10.9938 11.1645 11.0958 11.1378 11.1754 11.1837C11.2549 11.2297 11.2819 11.3308 11.2361 11.4104ZM11.8138 11.7439C11.7677 11.8236 11.6654 11.8511 11.5857 11.8051C11.5064 11.7589 11.4795 11.6569 11.5254 11.5774C11.5714 11.4981 11.6726 11.4711 11.7522 11.5167C11.8318 11.5626 11.8596 11.6643 11.8138 11.7439Z" fill="black"/>
<path d="M3.36377 6.99999L3.07308 6.41861C2.85287 6.52872 2.71377 6.75379 2.71377 6.99999H3.36377ZM12.3638 6.99999H13.0138C13.0138 6.76087 12.8825 6.54105 12.6719 6.42768L12.3638 6.99999ZM8.03044 14.6667L7.73975 15.248C7.92895 15.3426 8.15236 15.3393 8.33861 15.239L8.03044 14.6667ZM8.01267 1.34933L8.4723 0.889726L8.01269 0.430089L7.55306 0.889712L8.01267 1.34933ZM6.17009 2.27266C5.91624 2.5265 5.91624 2.93806 6.17008 3.1919C6.42392 3.44574 6.83548 3.44575 7.08932 3.19191L6.17009 2.27266ZM8.93593 3.19189C9.18976 3.44574 9.60132 3.44575 9.85517 3.19191C10.109 2.93808 10.109 2.52652 9.85519 2.27268L8.93593 3.19189ZM0.77478 13.9657L0.140035 13.8257L4.00543e-05 14.4604L0.634798 14.6004L0.77478 13.9657ZM2.54471 15.0216C2.89527 15.0989 3.24213 14.8774 3.31944 14.5268C3.39675 14.1763 3.17523 13.8294 2.82467 13.7521L2.54471 15.0216ZM1.83074 12.1958C1.90806 11.8452 1.68655 11.4984 1.33599 11.4211C0.985426 11.3438 0.638564 11.5653 0.561248 11.9158L1.83074 12.1958ZM14.9468 13.9657L15.0868 14.6004L15.7216 14.4604L15.5816 13.8257L14.9468 13.9657ZM12.8969 13.7521C12.5464 13.8294 12.3249 14.1763 12.4022 14.5268C12.4795 14.8774 12.8263 15.0989 13.1769 15.0216L12.8969 13.7521ZM15.1604 11.9158C15.083 11.5653 14.7362 11.3438 14.3856 11.4211C14.0351 11.4984 13.8136 11.8452 13.8909 12.1958L15.1604 11.9158ZM3.36377 12.3333H4.01377V6.99999H3.36377H2.71377V12.3333H3.36377ZM3.36377 6.99999L3.65446 7.58137L8.32113 5.24803L8.03044 4.66666L7.73975 4.08528L3.07308 6.41861L3.36377 6.99999ZM8.03044 4.66666L7.72228 5.23896L12.0556 7.5723L12.3638 6.99999L12.6719 6.42768L8.33861 4.09435L8.03044 4.66666ZM12.3638 6.99999H11.7138V12.3333H12.3638H13.0138V6.99999H12.3638ZM12.3638 12.3333L12.0556 11.761L7.72228 14.0943L8.03044 14.6667L8.33861 15.239L12.6719 12.9056L12.3638 12.3333ZM8.03044 14.6667L8.32113 14.0853L3.65446 11.7519L3.36377 12.3333L3.07308 12.9147L7.73975 15.248L8.03044 14.6667ZM12.3638 6.99999L12.0374 6.4379L7.72882 8.93997L8.05524 9.50207L8.38166 10.0642L12.6902 7.56208L12.3638 6.99999ZM8.05524 9.50207H7.40524V14.6738H8.05524H8.70524V9.50207H8.05524ZM8.05524 9.50207L8.36112 8.92853L3.66965 6.42646L3.36377 6.99999L3.05789 7.57352L7.74936 10.0756L8.05524 9.50207ZM8.03044 4.66666L8.68043 4.66318L8.66266 1.34585L8.01267 1.34933L7.36268 1.35282L7.38045 4.67014L8.03044 4.66666ZM6.6297 2.73229L7.08932 3.19191L8.47229 1.80896L8.01267 1.34933L7.55306 0.889712L6.17009 2.27266L6.6297 2.73229ZM8.01267 1.34933L7.55304 1.80894L8.93593 3.19189L9.39556 2.73229L9.85519 2.27268L8.4723 0.889726L8.01267 1.34933ZM3.36377 12.3333L3.01711 11.7835L0.428113 13.4158L0.77478 13.9657L1.12145 14.5155L3.71044 12.8832L3.36377 12.3333ZM2.68469 14.3869L2.82467 13.7521L0.914763 13.3309L0.77478 13.9657L0.634798 14.6004L2.54471 15.0216L2.68469 14.3869ZM0.77478 13.9657L1.40953 14.1056L1.83074 12.1958L1.19599 12.0558L0.561248 11.9158L0.140035 13.8257L0.77478 13.9657ZM12.3638 12.3333L12.0165 12.8828L14.5996 14.5151L14.9468 13.9657L15.2941 13.4162L12.711 11.7838L12.3638 12.3333ZM13.0369 14.3869L13.1769 15.0216L15.0868 14.6004L14.9468 13.9657L14.8068 13.3309L12.8969 13.7521L13.0369 14.3869ZM14.9468 13.9657L15.5816 13.8257L15.1604 11.9158L14.5256 12.0558L13.8909 12.1958L14.3121 14.1057L14.9468 13.9657Z" fill="black"/>
</svg>
