<svg width="13" height="12" viewBox="0 0 13 12" fill="none" xmlns="http://www.w3.org/2000/svg">
<path d="M6.16331 3.72491C6.16324 3.79378 6.10695 3.84979 6.03812 3.84997C5.96908 3.84997 5.91306 3.7938 5.91306 3.72477C5.91318 3.65583 5.9693 3.59972 6.03826 3.59972C6.10701 3.59997 6.16321 3.65613 6.16331 3.72491ZM3.27616 8.84865C3.21762 8.88494 3.14009 8.86607 3.10362 8.80767C3.06742 8.74908 3.0856 8.67235 3.14411 8.63596C3.20268 8.59957 3.27981 8.61714 3.3163 8.67561C3.35254 8.73422 3.33472 8.81226 3.27616 8.84865ZM6.16351 4.22457C6.16351 4.29343 6.1071 4.34934 6.03831 4.34962C5.96928 4.34962 5.91326 4.29346 5.91326 4.22443C5.91356 4.15569 5.96918 4.1003 6.03797 4.10022C6.10672 4.1004 6.16329 4.15583 6.16351 4.22457ZM3.70069 8.58406C3.64222 8.62036 3.56505 8.60264 3.5285 8.54441C3.49207 8.48578 3.51003 8.40782 3.56864 8.37137C3.62725 8.33508 3.70478 8.35378 3.74118 8.41235C3.77713 8.47089 3.75906 8.54771 3.70069 8.58406ZM6.16322 4.72507C6.16306 4.79386 6.10681 4.84995 6.03802 4.85013C5.96908 4.85008 5.91305 4.79387 5.91297 4.72493C5.91308 4.65599 5.9692 4.59988 6.03817 4.59988C6.10696 4.60009 6.16311 4.65626 6.16322 4.72507ZM4.12557 8.3208C4.06702 8.35714 3.98951 8.33824 3.95302 8.27981C3.91681 8.22121 3.93498 8.14449 3.99352 8.10811C4.05208 8.07174 4.12923 8.08929 4.16571 8.14776C4.20195 8.20637 4.18412 8.28441 4.12557 8.3208ZM6.16342 5.22473C6.16342 5.29362 6.10705 5.34955 6.03822 5.34979C5.96918 5.34978 5.91317 5.29362 5.91317 5.22459C5.91338 5.15573 5.96946 5.09953 6.03837 5.09953C6.10705 5.09985 6.16328 5.15601 6.16342 5.22473ZM4.55009 8.0562C4.49163 8.09251 4.41447 8.07477 4.3779 8.01655C4.34147 7.95793 4.35943 7.87997 4.41804 7.84352C4.47665 7.80727 4.5542 7.82594 4.59059 7.8845C4.6265 7.94301 4.60841 8.01985 4.55009 8.0562ZM6.16313 5.72524C6.16288 5.79385 6.10701 5.8491 6.03842 5.84944C5.96948 5.84944 5.91304 5.79398 5.91288 5.72509C5.91298 5.65616 5.96912 5.60006 6.03808 5.60004C6.10689 5.60022 6.16303 5.6564 6.16313 5.72524ZM4.97413 7.79246C4.91562 7.82852 4.83885 7.81027 4.80243 7.75196C4.76621 7.69336 4.78438 7.61664 4.84292 7.58026C4.90148 7.54394 4.97865 7.56145 5.01511 7.61991C5.05135 7.67851 5.03267 7.75606 4.97413 7.79246ZM5.3995 7.52835C5.34104 7.56466 5.26388 7.54691 5.22731 7.4887C5.19097 7.43022 5.2087 7.35307 5.26696 7.31651C5.32548 7.28015 5.40262 7.2978 5.43915 7.35616C5.47535 7.4147 5.4579 7.49191 5.3995 7.52835ZM6.16333 6.22489C6.16327 6.29376 6.10697 6.34976 6.03813 6.34995C5.96909 6.34995 5.91307 6.29378 5.91307 6.22475C5.91321 6.15582 5.96932 6.09969 6.03827 6.09969C6.10701 6.09996 6.16321 6.15612 6.16333 6.22489ZM6.71022 7.5589C6.67565 7.61817 6.59903 7.63874 6.53947 7.60465C6.47996 7.57019 6.45961 7.49356 6.49371 7.4339C6.5282 7.37416 6.6047 7.35375 6.66447 7.38814C6.72393 7.42278 6.74466 7.49925 6.71022 7.5589ZM7.14239 7.80841C7.10774 7.86783 7.03126 7.88859 6.97163 7.85416C6.91241 7.81959 6.89184 7.74295 6.92588 7.68341C6.96029 7.6238 7.03692 7.60356 7.09663 7.63766C7.15642 7.67217 7.1769 7.74862 7.14239 7.80841ZM7.5754 8.05841C7.54075 8.11782 7.46427 8.13859 7.40464 8.10416C7.34544 8.06959 7.32487 7.99294 7.35889 7.93341C7.3933 7.87381 7.46994 7.85359 7.52964 7.88766C7.58943 7.92217 7.60992 7.99862 7.5754 8.05841ZM8.00926 8.3089C7.97468 8.36817 7.89806 8.38874 7.8385 8.35465C7.77899 8.32019 7.75865 8.24356 7.79275 8.1839C7.82724 8.12416 7.90374 8.10375 7.9635 8.13814C8.02297 8.17278 8.04369 8.24925 8.00926 8.3089ZM8.44142 8.55841C8.40678 8.61783 8.3303 8.63859 8.27067 8.60416C8.21145 8.56959 8.19088 8.49295 8.22492 8.43341C8.25933 8.3738 8.33596 8.35356 8.39567 8.38766C8.45546 8.42217 8.47594 8.49862 8.44142 8.55841ZM8.87444 8.80841C8.83979 8.86782 8.76331 8.88859 8.70368 8.85416C8.64448 8.81959 8.62391 8.74294 8.65793 8.68341C8.69234 8.62381 8.76898 8.60359 8.82868 8.63766C8.88847 8.67217 8.90895 8.74862 8.87444 8.80841Z" fill="black"/>
<path d="M2.53769 5.25002L2.31409 4.8028C2.14469 4.8875 2.03769 5.06063 2.03769 5.25002H2.53769ZM9.28769 5.25002H9.78769C9.78769 5.06607 9.6867 4.89699 9.52474 4.80978L9.28769 5.25002ZM6.03769 11L5.81409 11.4472C5.95963 11.52 6.13147 11.5174 6.27474 11.4403L6.03769 11ZM6.02437 1.01202L6.37793 0.658479L6.02438 0.304912L5.67082 0.658468L6.02437 1.01202ZM4.63359 1.69568C4.43832 1.89094 4.43832 2.20752 4.63358 2.40279C4.82884 2.59805 5.14543 2.59805 5.34069 2.40279L4.98714 2.04924L4.63359 1.69568ZM6.70797 2.40278C6.90323 2.59805 7.21981 2.59806 7.41508 2.4028C7.61034 2.20754 7.61035 1.89096 7.41509 1.69569L7.06153 2.04924L6.70797 2.40278ZM0.595947 10.4743L0.107681 10.3666L-6.79493e-06 10.8549L0.488268 10.9625L0.595947 10.4743ZM1.9207 11.2784C2.19036 11.3379 2.45718 11.1675 2.51665 10.8978C2.57612 10.6282 2.40572 10.3614 2.13606 10.3019L2.02838 10.7902L1.9207 11.2784ZM1.40012 9.14957C1.4596 8.87991 1.28921 8.61309 1.01954 8.55362C0.749882 8.49414 0.483065 8.66453 0.423592 8.9342L0.911858 9.04188L1.40012 9.14957ZM11.225 10.4743L11.3327 10.9625L11.8209 10.8549L11.7132 10.3666L11.225 10.4743ZM9.68487 10.3019C9.41521 10.3614 9.24481 10.6282 9.30428 10.8978C9.36375 11.1675 9.63057 11.3379 9.90023 11.2784L9.79255 10.7902L9.68487 10.3019ZM11.3973 8.9342C11.3379 8.66454 11.071 8.49415 10.8014 8.55362C10.5317 8.61309 10.3613 8.87991 10.4208 9.14957L10.9091 9.04189L11.3973 8.9342ZM2.53769 9.25002H3.03769V5.25002H2.53769H2.03769V9.25002H2.53769ZM2.53769 5.25002L2.7613 5.69723L6.2613 3.94723L6.03769 3.50002L5.81409 3.0528L2.31409 4.8028L2.53769 5.25002ZM6.03769 3.50002L5.80064 3.94025L9.05064 5.69025L9.28769 5.25002L9.52474 4.80978L6.27474 3.05978L6.03769 3.50002ZM9.28769 5.25002H8.78769V9.25002H9.28769H9.78769V5.25002H9.28769ZM9.28769 9.25002L9.05064 8.80978L5.80064 10.5598L6.03769 11L6.27474 11.4403L9.52474 9.69025L9.28769 9.25002ZM6.03769 11L6.2613 10.5528L2.7613 8.8028L2.53769 9.25002L2.31409 9.69723L5.81409 11.4472L6.03769 11ZM9.28769 5.25002L9.0366 4.81764L5.8052 6.69419L6.05629 7.12657L6.30739 7.55895L9.53879 5.68239L9.28769 5.25002ZM6.05629 7.12657H5.55629V11.0053H6.05629H6.55629V7.12657H6.05629ZM6.05629 7.12657L6.29158 6.68539L2.77298 4.80884L2.53769 5.25002L2.3024 5.69119L5.821 7.56775L6.05629 7.12657ZM6.03769 3.50002L6.53768 3.49734L6.52436 1.00935L6.02437 1.01202L5.52437 1.0147L5.5377 3.50269L6.03769 3.50002ZM4.98714 2.04924L5.34069 2.40279L6.37792 1.36558L6.02437 1.01202L5.67082 0.658468L4.63359 1.69568L4.98714 2.04924ZM6.02437 1.01202L5.67081 1.36557L6.70797 2.40278L7.06153 2.04924L7.41509 1.69569L6.37793 0.658479L6.02437 1.01202ZM2.53769 9.25002L2.27103 8.82706L0.32928 10.0513L0.595947 10.4743L0.862614 10.8972L2.80436 9.67297L2.53769 9.25002ZM2.02838 10.7902L2.13606 10.3019L0.703626 9.986L0.595947 10.4743L0.488268 10.9625L1.9207 11.2784L2.02838 10.7902ZM0.595947 10.4743L1.08421 10.582L1.40012 9.14957L0.911858 9.04188L0.423592 8.9342L0.107681 10.3666L0.595947 10.4743ZM9.28769 9.25002L9.02059 9.67269L10.9579 10.8969L11.225 10.4743L11.4921 10.0516L9.5548 8.82734L9.28769 9.25002ZM9.79255 10.7902L9.90023 11.2784L11.3327 10.9625L11.225 10.4743L11.1173 9.986L9.68487 10.3019L9.79255 10.7902ZM11.225 10.4743L11.7132 10.3666L11.3973 8.9342L10.9091 9.04189L10.4208 9.14957L10.7367 10.582L11.225 10.4743Z" fill="black"/>
</svg>
