<svg width="12" height="12" viewBox="0 0 12 12" fill="none" xmlns="http://www.w3.org/2000/svg">
<path d="M8.5 10.5H6C5.10999 10.5 4.23996 10.2361 3.49994 9.74162C2.75991 9.24715 2.18314 8.54434 1.84254 7.72208C1.50195 6.89981 1.41283 5.99501 1.58647 5.1221C1.7601 4.24918 2.18869 3.44736 2.81802 2.81802C3.44736 2.18869 4.24918 1.7601 5.1221 1.58647C5.99501 1.41283 6.89981 1.50195 7.72208 1.84254C8.54434 2.18314 9.24715 2.75991 9.74162 3.49994C10.2361 4.23996 10.5 5.10999 10.5 6V6.75C10.5 7.08152 10.3683 7.39946 10.1339 7.63389C9.89946 7.86831 9.58152 8 9.25 8C8.91848 8 8.60054 7.86831 8.36612 7.63389C8.1317 7.39946 8 7.08152 8 6.75V6M8 6C8 5.46957 7.78929 4.96086 7.41422 4.58579C7.03914 4.21072 6.53043 4 6 4C5.60444 4 5.21776 4.1173 4.88886 4.33706C4.55996 4.55683 4.30362 4.86918 4.15224 5.23464C4.00087 5.60009 3.96126 6.00222 4.03843 6.39018C4.1156 6.77814 4.30608 7.13451 4.58579 7.41422C4.86549 7.69392 5.22186 7.8844 5.60982 7.96157C5.99778 8.03874 6.39992 7.99914 6.76537 7.84776C7.13082 7.69639 7.44318 7.44004 7.66294 7.11114C7.8827 6.78224 8 6.39556 8 6Z" stroke="black" stroke-linecap="round" stroke-linejoin="round"/>
</svg>
