<svg width="12" height="12" viewBox="0 0 12 12" fill="none" xmlns="http://www.w3.org/2000/svg">
<g clip-path="url(#clip0_3_152)">
<path d="M6.19503 3.49997V6.19497H3.99503M10.47 5.49997C10.19 3.02997 7.96503 1.24997 5.49503 1.52497C3.02503 1.79997 1.24503 4.02497 1.52003 6.49497C1.75003 8.57997 3.40003 10.23 5.49003 10.465M8.62527 8.99997H10.3753M8.62527 8.99997C8.28009 8.99997 8.00027 9.27979 8.00027 9.62497V10.375C8.00027 10.7201 8.28009 11 8.62527 11H10.3753C10.7205 11 11.0003 10.7201 11.0003 10.375V9.62497C11.0003 9.27979 10.7205 8.99997 10.3753 8.99997M8.62527 8.99997L8.62503 8.37497C8.62503 7.88997 9.01503 7.49997 9.50003 7.49997C9.98003 7.49997 10.375 7.88997 10.375 8.37497L10.3753 8.99997" stroke="black" stroke-linecap="round" stroke-linejoin="round"/>
</g>
<defs>
<clipPath id="clip0_3_152">
<rect width="12" height="12" fill="white"/>
</clipPath>
</defs>
</svg>
