<svg width="12" height="12" viewBox="0 0 12 12" fill="none" xmlns="http://www.w3.org/2000/svg">
<path d="M4.125 9H9.125M4.125 9C3.64175 9 3.25 9.39175 3.25 9.875C3.25 10.3582 3.64175 10.75 4.125 10.75C4.60825 10.75 5 10.3582 5 9.875C5 9.39175 4.60825 9 4.125 9ZM9.125 9C8.64175 9 8.25 9.39175 8.25 9.875C8.25 10.3582 8.64175 10.75 9.125 10.75C9.60825 10.75 10 10.3582 10 9.875C10 9.39175 9.60825 9 9.125 9ZM2.82141 3.5H3.99997M6.5 3V5.5M6.5 5.5L5.5 4.5M6.5 5.5L7.5 4.5M4 9L2.5 2H1.5M9 3.5H9.99975C10.1551 3.5 10.3016 3.57219 10.3962 3.69537C10.4908 3.81854 10.5229 3.97871 10.4829 4.1288L9.68315 7.1288C9.6248 7.3477 9.42655 7.5 9.2 7.5H3.67859" stroke="black" stroke-linecap="round" stroke-linejoin="round"/>
</svg>
