<svg width="12" height="12" viewBox="0 0 12 12" fill="none" xmlns="http://www.w3.org/2000/svg">
<g clip-path="url(#clip0_3_362)">
<g clip-path="url(#clip1_3_362)">
<mask id="mask0_3_362" style="mask-type:alpha" maskUnits="userSpaceOnUse" x="0" y="0" width="12" height="12">
<path d="M12 12H0V0H5.81836C5.45937 0.536289 5.25 1.18119 5.25 1.875C5.25 3.73896 6.76104 5.25 8.625 5.25C10.489 5.25 12 3.73896 12 1.875C12 1.18119 11.7906 0.536289 11.4316 0H12V12Z" fill="black"/>
</mask>
<g mask="url(#mask0_3_362)">
<path d="M4.50012 8.99999V9.12499C4.50012 9.94999 5.17012 10.625 6.00012 10.625C6.82512 10.625 7.50012 9.94999 7.50012 9.12499V8.99999M9.00012 6.87499L9.85012 7.72499C9.94012 7.81499 9.99512 7.94499 9.99512 8.07499V8.48999C9.99512 8.76499 9.77012 8.98999 9.49512 8.98999H5.99512H2.49512C2.21512 8.98999 1.99512 8.76499 1.99512 8.48999V8.06999C1.99512 7.93499 2.04512 7.80999 2.14012 7.71499L2.99012 6.85999V4.73499C2.99012 3.07499 4.33012 1.73499 5.99012 1.73499C7.64512 1.73449 8.99012 3.07499 8.99012 4.73499L9.00012 6.87499Z" stroke="black" stroke-linecap="round" stroke-linejoin="round"/>
</g>
</g>
<circle cx="8.625" cy="1.875" r="1.875" fill="#C24244"/>
</g>
<defs>
<clipPath id="clip0_3_362">
<rect width="12" height="12" fill="white"/>
</clipPath>
<clipPath id="clip1_3_362">
<rect width="12" height="12" fill="white"/>
</clipPath>
</defs>
</svg>
