<svg width="12" height="12" viewBox="0 0 12 12" fill="none" xmlns="http://www.w3.org/2000/svg">
<path d="M4.5 8.99999V9.12499C4.5 9.94999 5.17 10.625 6 10.625C6.825 10.625 7.5 9.94999 7.5 9.12499V8.99999M9 6.87499L9.85 7.72499C9.94 7.81499 9.995 7.94499 9.995 8.07499V8.48999C9.995 8.76499 9.77 8.98999 9.495 8.98999H2.49499C2.21499 8.98999 1.995 8.76499 1.995 8.48999V8.06999C1.995 7.93499 2.045 7.80999 2.14 7.71499L2.99 6.85999V4.73499C2.99 3.07499 4.33 1.73499 5.99 1.73499C7.645 1.73449 8.99 3.07499 8.99 4.73499L9 6.87499Z" stroke="black" stroke-linecap="round" stroke-linejoin="round"/>
</svg>
