<svg width="12" height="12" viewBox="0 0 12 12" fill="none" xmlns="http://www.w3.org/2000/svg">
<path fill-rule="evenodd" clip-rule="evenodd" d="M10 2.2875V9.7125C10 9.89071 9.90515 10.0554 9.75103 10.1449L9.2558 10.4324C9.10165 10.5219 8.91152 10.5226 8.75675 10.4342L7.99711 10.0002L7.25306 10.432C7.09847 10.5217 6.90776 10.5221 6.75282 10.433L6 10L5.24718 10.433C5.09225 10.5221 4.90153 10.5217 4.74694 10.432L4.00288 10.0002L3.24323 10.4342C3.08847 10.5226 2.89834 10.5219 2.74419 10.4324L2.24896 10.1449C2.09485 10.0554 2 9.89071 2 9.7125V2.2875C2 2.10929 2.09485 1.94456 2.24897 1.85509L2.7442 1.56759C2.89835 1.4781 3.08848 1.47743 3.24325 1.56585L4.00289 1.9998L4.74694 1.568C4.90152 1.47828 5.09223 1.4779 5.24717 1.567L6 2L6.75282 1.56705C6.90776 1.47795 7.09848 1.47833 7.25306 1.56805L7.99711 1.99985L8.75675 1.56589C8.91152 1.47748 9.10165 1.47814 9.2558 1.56763L9.75103 1.85513C9.90514 1.94459 9.99998 2.10931 10 2.2875Z" stroke="black" stroke-linecap="round" stroke-linejoin="round"/>
<path d="M7.76415 5.55911C7.83707 5.08631 7.4662 4.83208 6.95949 4.66245L7.1239 4.02182L6.72261 3.92482L6.56238 4.54854C6.45695 4.52282 6.34873 4.49891 6.24074 4.475L6.40214 3.84722L6.00085 3.75L5.83643 4.39041C5.74912 4.37101 5.66319 4.35206 5.58006 4.33176L5.58052 4.32973L5.02689 4.19551L4.92007 4.61192C4.92007 4.61192 5.21801 4.67824 5.21174 4.6823C5.3743 4.72178 5.40356 4.82622 5.39869 4.90923L5.21151 5.63897C5.22266 5.64167 5.23706 5.64573 5.25331 5.65182L5.21082 5.64167L4.9484 6.66398C4.92843 6.7118 4.87803 6.78376 4.76424 6.75647C4.76842 6.76211 4.47257 6.68586 4.47257 6.68586L4.27332 7.13205L4.79583 7.2586C4.8929 7.28228 4.98811 7.3071 5.0817 7.33033L4.91566 7.97818L5.31671 8.07518L5.48113 7.43455C5.59074 7.46319 5.6971 7.48981 5.80114 7.51508L5.63718 8.153L6.03847 8.25L6.20451 7.6035C6.88912 7.72937 7.40373 7.67862 7.6204 7.07723C7.79504 6.59315 7.61181 6.31366 7.25163 6.13162C7.51404 6.07297 7.71144 5.90537 7.76415 5.55911ZM6.84685 6.80835C6.72308 7.29266 5.88358 7.03077 5.61141 6.96512L5.83202 6.10681C6.10419 6.1729 6.97667 6.30351 6.84685 6.80835ZM6.9711 5.55212C6.858 5.99267 6.15946 5.76867 5.93304 5.71386L6.13276 4.93562C6.35918 4.99044 7.08907 5.09262 6.9711 5.55212Z" fill="black"/>
</svg>
