<svg width="12" height="12" viewBox="0 0 12 12" fill="none" xmlns="http://www.w3.org/2000/svg">
<path d="M7 8.49999L7.24999 10.5M4.99999 8.49999L4.75 10.5M4.07 10.5H7.93M5.03 4.98999V3.63499H6.3955C6.7655 3.63499 7.0705 3.93499 7.0705 4.31199C7.0705 4.68199 6.7655 4.98699 6.3905 4.98699M5.886 3.24999V3.63499M5.886 6.74999V6.31249M9.2145 8.49999H2.785C2.075 8.49999 1.495 7.91999 1.495 7.20999V2.77999C1.495 2.06999 2.07 1.48999 2.78 1.48999H9.2085C9.9185 1.48999 10.4935 2.06499 10.4935 2.77499V7.19999C10.4935 7.90999 9.9135 8.48499 9.2035 8.48499L9.2145 8.49999ZM6.56249 6.30499H5.0275V4.98999H6.55749C6.91749 4.98999 7.21249 5.27999 7.21249 5.64499C7.21249 6.00499 6.91749 6.29999 6.55249 6.29999L6.56249 6.30499Z" stroke="black" stroke-linecap="round" stroke-linejoin="round"/>
</svg>
