<svg width="16" height="16" viewBox="0 0 16 16" fill="none" xmlns="http://www.w3.org/2000/svg">
<path d="M9.28923 9.57564L8.25818 8.70504V10.3317L9.28923 9.57564Z" fill="black"/>
<path d="M8.25818 5.66829V7.29498L9.28923 6.42437L8.25818 5.66829Z" fill="black"/>
<path fill-rule="evenodd" clip-rule="evenodd" d="M7.99998 14.4C11.5345 14.4 14.4 11.5346 14.4 8.00001C14.4 4.46539 11.5345 1.60001 7.99998 1.60001C4.46541 1.60001 1.59998 4.46539 1.59998 8.00001C1.59998 11.5346 4.46541 14.4 7.99998 14.4ZM8.0783 4.4452C7.9447 4.34713 7.76716 4.33257 7.61931 4.40753C7.47146 4.48248 7.3781 4.63421 7.3781 4.80001V6.81014L6.28376 5.88607C6.09822 5.72928 5.82068 5.75269 5.66384 5.93836C5.50701 6.12401 5.53044 6.40162 5.71619 6.5584L7.3781 7.96192V8.03809L5.71619 9.44161C5.53044 9.59839 5.50701 9.87601 5.66384 10.0617C5.82068 10.2473 6.09822 10.2707 6.28376 10.1139L7.3781 9.18987V11.2C7.3781 11.3658 7.47146 11.5175 7.61931 11.5925C7.76716 11.6674 7.9447 11.6529 8.0783 11.5548L10.2601 9.95482C10.3689 9.87508 10.4351 9.74986 10.4396 9.61507C10.4427 9.52674 10.4191 9.4407 10.3734 9.36739C10.3494 9.32884 10.3193 9.29381 10.2838 9.26382L8.78728 8.00001L10.2838 6.73619C10.3869 6.64918 10.4443 6.51971 10.4396 6.38494C10.4351 6.25015 10.3689 6.12493 10.2601 6.0452L8.0783 4.4452Z" fill="black"/>
</svg>
