<svg width="12" height="12" viewBox="0 0 12 12" fill="none" xmlns="http://www.w3.org/2000/svg">
<path d="M6.96689 7.18174L6.1936 6.52878V7.74878L6.96689 7.18174Z" fill="black"/>
<path d="M6.1936 4.25123V5.47124L6.96689 4.81829L6.1936 4.25123Z" fill="black"/>
<path fill-rule="evenodd" clip-rule="evenodd" d="M5.99995 10.8C8.65088 10.8 10.8 8.65098 10.8 6.00001C10.8 3.34905 8.65088 1.20001 5.99995 1.20001C3.34902 1.20001 1.19995 3.34905 1.19995 6.00001C1.19995 8.65098 3.34902 10.8 5.99995 10.8ZM6.05869 3.33391C5.9585 3.26035 5.82534 3.24944 5.71445 3.30565C5.60356 3.36187 5.53355 3.47567 5.53355 3.60001V5.10761L4.71279 4.41456C4.57363 4.29697 4.36548 4.31453 4.24785 4.45378C4.13022 4.59301 4.1478 4.80122 4.28711 4.91881L5.53355 5.97145V6.02858L4.28711 7.08121C4.1478 7.1988 4.13022 7.40701 4.24785 7.54625C4.36548 7.6855 4.57363 7.70306 4.71279 7.58547L5.53355 6.89241V8.40001C5.53355 8.52438 5.60356 8.63816 5.71445 8.69437C5.82534 8.75059 5.9585 8.73967 6.05869 8.66612L7.69507 7.46612C7.77666 7.40632 7.82632 7.3124 7.82969 7.21131C7.83203 7.14506 7.81431 7.08054 7.78003 7.02555C7.76201 6.99664 7.73945 6.97036 7.71279 6.94788L6.59043 6.00001L7.71279 5.05215C7.79014 4.98689 7.8332 4.88979 7.82969 4.78871C7.82632 4.68762 7.77666 4.59371 7.69507 4.53391L6.05869 3.33391Z" fill="black"/>
</svg>
