<svg width="12" height="12" viewBox="0 0 12 12" fill="none" xmlns="http://www.w3.org/2000/svg">
<path d="M9.5 2.5H10C10.55 2.5 11 2.945 11 3.5V9.5C11 10.05 10.55 10.5 10 10.5H2C1.4475 10.5 1 10.05 1 9.5V3.5C1 2.945 1.4475 2.5 2 2.5H2.5M6 3C6 2.1715 5.3285 1.5 4.5 1.5H3C2.72 1.5 2.5 1.72 2.5 2V8.5C2.5 8.775 2.72 9 3 9H4.5C5.3285 9 6 9.6715 6 10.5M6 3C6 2.1715 6.6715 1.5 7.5 1.5H9C9.275 1.5 9.5 1.724 9.5 2V8.5C9.5 8.775 9.275 9 9 9H7.5C6.6715 9 6 9.6715 6 10.5M6 3V10.5" stroke="black" stroke-linecap="round" stroke-linejoin="round"/>
</svg>
