<svg width="12" height="12" viewBox="0 0 12 12" fill="none" xmlns="http://www.w3.org/2000/svg">
<path d="M5.5 4.25L5 3.75M6.5 4.25L7 3.75M8.5 4.75C7.115 6.13 4.88 6.13 3.5 4.75M4.425 7.335C4.08 7.5 3.765 7.7245 3.495 7.9945M8.5 8C8.225 7.725 7.915 7.5 7.57 7.335M4.125 6.375H3.25M8.75 6.375H7.875M6 4.25C5.50272 4.25 5.02581 4.46071 4.67418 4.83579C4.32254 5.21086 4.125 5.71957 4.125 6.25C4.125 6.78043 4.32254 7.28914 4.67418 7.66421C5.02581 8.03929 5.50272 8.25 6 8.25C6.49728 8.25 6.97419 8.03929 7.32583 7.66421C7.67746 7.28914 7.875 6.78043 7.875 6.25C7.875 5.71957 7.67746 5.21086 7.32583 4.83579C6.97419 4.46071 6.49728 4.25 6 4.25ZM4 1.5H8C9.38071 1.5 10.5 2.61929 10.5 4V8C10.5 9.38071 9.38071 10.5 8 10.5H4C2.61929 10.5 1.5 9.38071 1.5 8V4C1.5 2.61929 2.61929 1.5 4 1.5Z" stroke="black" stroke-linecap="round" stroke-linejoin="round"/>
</svg>
