<svg width="12" height="12" viewBox="0 0 12 12" fill="none" xmlns="http://www.w3.org/2000/svg">
<path d="M7.19995 2.39999H7.79995C8.13132 2.39999 8.39995 2.66862 8.39995 2.99999V8.99999C8.39995 9.33136 8.13132 9.59999 7.79995 9.59999H7.19995M9.89995 2.39999H10.5C10.8313 2.39999 11.1 2.66862 11.1 2.99999V8.99999C11.1 9.33136 10.8313 9.59999 10.5 9.59999H9.89995M1.79995 9.59999H5.09995C5.43132 9.59999 5.69995 9.33136 5.69995 8.99999V2.99999C5.69995 2.66862 5.43132 2.39999 5.09995 2.39999H1.79995C1.46858 2.39999 1.19995 2.66862 1.19995 2.99999V8.99999C1.19995 9.33136 1.46858 9.59999 1.79995 9.59999Z" stroke="black" stroke-linecap="round"/>
</svg>
