<svg width="16" height="16" viewBox="0 0 16 16" fill="none" xmlns="http://www.w3.org/2000/svg">
<path d="M9.59998 3.20001H10.4C10.8418 3.20001 11.2 3.55818 11.2 4.00001V12C11.2 12.4418 10.8418 12.8 10.4 12.8H9.59998M13.2 3.20001H14C14.4418 3.20001 14.8 3.55818 14.8 4.00001V12C14.8 12.4418 14.4418 12.8 14 12.8H13.2M2.39998 12.8H6.79998C7.2418 12.8 7.59998 12.4418 7.59998 12V4.00001C7.59998 3.55818 7.2418 3.20001 6.79998 3.20001H2.39998C1.95815 3.20001 1.59998 3.55818 1.59998 4.00001V12C1.59998 12.4418 1.95815 12.8 2.39998 12.8Z" stroke="black" stroke-width="1.3" stroke-linecap="round"/>
</svg>
