<svg width="12" height="12" viewBox="0 0 12 12" fill="none" xmlns="http://www.w3.org/2000/svg">
<path d="M4 8.75L2.5 1.75H1.5M4.125 8.75H9.125M4.125 8.75C3.89294 8.75 3.67038 8.84219 3.50628 9.00628C3.34219 9.17038 3.25 9.39294 3.25 9.625C3.25 9.85706 3.34219 10.0796 3.50628 10.2437C3.67038 10.4078 3.89294 10.5 4.125 10.5C4.35706 10.5 4.57962 10.4078 4.74372 10.2437C4.90781 10.0796 5 9.85706 5 9.625C5 9.39294 4.90781 9.17038 4.74372 9.00628C4.57962 8.84219 4.35706 8.75 4.125 8.75ZM9.125 8.75C8.89294 8.75 8.67038 8.84219 8.50628 9.00628C8.34219 9.17038 8.25 9.39294 8.25 9.625C8.25 9.85706 8.34219 10.0796 8.50628 10.2437C8.67038 10.4078 8.89294 10.5 9.125 10.5C9.35707 10.5 9.57962 10.4078 9.74372 10.2437C9.90781 10.0796 10 9.85706 10 9.625C10 9.39294 9.90781 9.17038 9.74372 9.00628C9.57962 8.84219 9.35707 8.75 9.125 8.75ZM2.82 3.25H9.995C10.27 3.245 10.495 3.47 10.495 3.745C10.495 3.785 10.485 3.83 10.475 3.87L9.675 6.87C9.615 7.085 9.415 7.24 9.19 7.24H3.665" stroke="black" stroke-linecap="round" stroke-linejoin="round"/>
</svg>
