<svg width="16" height="16" viewBox="0 0 16 16" fill="none" xmlns="http://www.w3.org/2000/svg">
<path d="M8.00098 1.34961C11.6731 1.35008 14.6502 4.32777 14.6504 8C14.6502 11.6722 11.6731 14.6489 8.00098 14.6494C4.32841 14.6494 1.34982 11.6725 1.34961 8C1.34981 4.32747 4.3284 1.34961 8.00098 1.34961ZM10.7959 5.93066C10.5355 5.67036 10.1119 5.67033 9.85156 5.93066L7.06445 8.7168L6.10059 7.75488C5.84026 7.4946 5.41854 7.49462 5.1582 7.75488C4.89798 8.01523 4.89793 8.43695 5.1582 8.69727L6.60156 10.1416C6.86188 10.4019 7.28554 10.4019 7.5459 10.1416C7.57802 10.1094 7.60473 10.0736 7.62891 10.0371L10.7959 6.87305C11.0557 6.61277 11.0558 6.19091 10.7959 5.93066Z" fill="black"/>
</svg>
