<svg width="12" height="12" viewBox="0 0 12 12" fill="none" xmlns="http://www.w3.org/2000/svg">
<path d="M6.00098 1.01172C8.75496 1.01221 10.9881 3.24595 10.9883 6C10.9881 8.75404 8.75495 10.9868 6.00098 10.9873C3.24658 10.9873 1.01193 8.75434 1.01172 6C1.01192 3.24565 3.24658 1.01172 6.00098 1.01172ZM8.09668 4.44824C7.90141 4.25301 7.58392 4.25299 7.38867 4.44824L5.29785 6.53809L4.5752 5.81641C4.37993 5.62118 4.06342 5.62116 3.86816 5.81641C3.67331 6.01169 3.67307 6.32831 3.86816 6.52344L4.95117 7.60645C5.14633 7.8016 5.46389 7.80139 5.65918 7.60645C5.68317 7.5824 5.70361 7.55559 5.72168 7.52832L8.09668 5.15527C8.29162 4.96007 8.29162 4.64344 8.09668 4.44824Z" fill="black"/>
</svg>
