<svg width="16" height="16" viewBox="0 0 16 16" fill="none" xmlns="http://www.w3.org/2000/svg">
<path d="M11.3333 2.51135C9.32198 1.16402 6.67798 1.16402 4.66665 2.51135M10.6533 12.88C12.8253 11.812 14.1473 9.52202 13.9866 7.10669M5.34665 12.88C3.17465 11.812 1.85265 9.52202 2.01332 7.10669M13.9031 3.79225C14.2936 4.18277 14.2936 4.81593 13.9031 5.20646C13.5126 5.59698 12.8794 5.59698 12.4889 5.20646C12.0984 4.81594 12.0984 4.18277 12.4889 3.79225C12.8794 3.40172 13.5126 3.40172 13.9031 3.79225ZM3.51509 3.79225C3.90561 4.18277 3.90561 4.81593 3.51509 5.20646C3.12457 5.59698 2.4914 5.59698 2.10088 5.20646C1.71035 4.81594 1.71035 4.18277 2.10088 3.79225C2.4914 3.40172 3.12456 3.40172 3.51509 3.79225ZM8.70912 12.7922C9.09964 13.1827 9.09964 13.8159 8.70912 14.2064C8.31859 14.597 7.68543 14.597 7.2949 14.2064C6.90438 13.8159 6.90438 13.1827 7.2949 12.7922C7.68543 12.4017 8.31859 12.4017 8.70912 12.7922ZM9.64998 5.84935C10.5613 6.76069 10.5613 8.23802 9.64998 9.14935C8.73865 10.0607 7.26132 10.0607 6.34998 9.14935C5.43865 8.23802 5.43865 6.76069 6.34998 5.84935C7.26132 4.93802 8.73865 4.93802 9.64998 5.84935Z" stroke="black" stroke-width="1.3" stroke-linecap="round" stroke-linejoin="round"/>
</svg>
