<svg width="12" height="12" viewBox="0 0 12 12" fill="none" xmlns="http://www.w3.org/2000/svg">
<path d="M8.49996 1.88349C6.99146 0.872985 5.00846 0.872985 3.49996 1.88349M7.98996 9.65999C9.61896 8.85899 10.6105 7.14148 10.49 5.32998M4.00996 9.65999C2.38096 8.85899 1.38946 7.14148 1.50996 5.32998M10.4273 2.84416C10.7202 3.13705 10.7202 3.61192 10.4273 3.90481C10.1344 4.19771 9.65954 4.19771 9.36665 3.90481C9.07375 3.61192 9.07375 3.13705 9.36665 2.84416C9.65954 2.55126 10.1344 2.55126 10.4273 2.84416ZM2.63629 2.84416C2.92918 3.13705 2.92918 3.61192 2.63629 3.90481C2.34339 4.19771 1.86852 4.19771 1.57563 3.90481C1.28273 3.61192 1.28273 3.13705 1.57563 2.84416C1.86852 2.55126 2.34339 2.55126 2.63629 2.84416ZM6.53181 9.59413C6.8247 9.88703 6.8247 10.3619 6.53181 10.6548C6.23891 10.9477 5.76404 10.9477 5.47115 10.6548C5.17825 10.3619 5.17825 9.88703 5.47115 9.59413C5.76404 9.30124 6.23891 9.30124 6.53181 9.59413ZM7.23746 4.38699C7.92096 5.07049 7.92096 6.17849 7.23746 6.86199C6.55396 7.54549 5.44596 7.54549 4.76246 6.86199C4.07896 6.17849 4.07896 5.07049 4.76246 4.38699C5.44596 3.70349 6.55396 3.70349 7.23746 4.38699Z" stroke="black" stroke-linecap="round" stroke-linejoin="round"/>
</svg>
