<svg width="12" height="12" viewBox="0 0 12 12" fill="none" xmlns="http://www.w3.org/2000/svg">
<path d="M4.24998 11V10M7.74998 11V10M5.99998 11V10M8.37998 11H3.61498C3.05998 11 2.60998 10.55 2.60998 10C2.60498 9.96 2.60998 9.925 2.61498 9.885L2.78998 8.2745C2.89998 7.2595 3.75498 6.4945 4.77498 6.4955H7.19498C8.20998 6.4905 9.06998 7.2605 9.18498 8.2745L9.35998 9.885C9.41998 10.43 9.02498 10.925 8.47498 10.985C8.43498 10.985 8.39498 10.99 8.35998 10.99L8.37998 11ZM5.99998 1C6.40998 1 6.74998 1.335 6.74998 1.75V4.75C6.74998 4.885 6.63498 5 6.49998 5H5.49998C5.35998 5 5.24998 4.885 5.24998 4.75V1.75C5.24998 1.335 5.58498 1 5.99998 1ZM7.12498 6.5H4.87498C4.59498 6.5 4.36998 6.275 4.36998 6C4.36498 5.93 4.37998 5.865 4.40498 5.805L4.60998 5.305C4.68498 5.115 4.86498 4.995 5.06998 4.995H6.89998C7.09998 4.99 7.27998 5.115 7.35998 5.3L7.56498 5.8C7.66998 6.05 7.54998 6.345 7.29498 6.45C7.22998 6.475 7.16498 6.485 7.09998 6.485L7.12498 6.5Z" stroke="black" stroke-linecap="round" stroke-linejoin="round"/>
</svg>
