<svg width="12" height="12" viewBox="0 0 12 12" fill="none" xmlns="http://www.w3.org/2000/svg">
<path d="M6.72504 4.69L3.96004 7.4545C3.63504 7.7745 3.63504 8.2945 3.96004 8.6145H3.95504C4.27504 8.9345 4.79504 8.9345 5.11504 8.6145L9.42504 4.3015C10.065 3.6565 10.065 2.6165 9.42504 1.9765C9.42004 1.9715 9.42004 1.9715 9.42004 1.9715C8.77504 1.3265 7.73504 1.3265 7.09504 1.9665C7.09004 1.9665 7.09004 1.9665 7.09004 1.9665L2.77504 6.2765C1.81004 7.2365 1.81004 8.796 2.77004 9.756C3.73004 10.716 5.29004 10.716 6.25004 9.756C6.25004 9.751 6.25004 9.751 6.25004 9.751L9.40003 6.601" stroke="black" stroke-linecap="round" stroke-linejoin="round"/>
</svg>
