<svg width="16" height="16" viewBox="0 0 16 16" fill="none" xmlns="http://www.w3.org/2000/svg">
<path d="M8.96663 6.25335L5.27997 9.93935C4.84663 10.366 4.84663 11.0594 5.27997 11.486H5.2733C5.69997 11.9127 6.3933 11.9127 6.81997 11.486L12.5666 5.73535C13.42 4.87535 13.42 3.48868 12.5666 2.63535C12.56 2.62868 12.56 2.62868 12.56 2.62868C11.7 1.76868 10.3133 1.76868 9.45997 2.62202C9.4533 2.62202 9.4533 2.62202 9.4533 2.62202L3.69997 8.36869C2.4133 9.64869 2.4133 11.728 3.6933 13.008C4.9733 14.288 7.0533 14.288 8.3333 13.008C8.3333 13.0014 8.3333 13.0014 8.3333 13.0014L12.5333 8.80135" stroke="black" stroke-width="1.3" stroke-linecap="round" stroke-linejoin="round"/>
</svg>
