<svg width="12" height="12" viewBox="0 0 12 12" fill="none" xmlns="http://www.w3.org/2000/svg">
<path d="M8.03 6.06001H5.70501V3.26M6.005 1.255C5.41406 1.255 4.8289 1.3714 4.28293 1.59755C3.73696 1.82369 3.24089 2.15516 2.82302 2.57302C2.40516 2.99089 2.07369 3.48696 1.84755 4.03293C1.6214 4.5789 1.505 5.16406 1.505 5.755C1.505 6.34595 1.6214 6.93112 1.84755 7.47708C2.07369 8.02305 2.40516 8.51912 2.82302 8.93699C3.24089 9.35485 3.73696 9.68632 4.28293 9.91246C4.8289 10.1386 5.41406 10.255 6.005 10.255C7.19848 10.255 8.34307 9.7809 9.18699 8.93699C10.0309 8.09307 10.505 6.94848 10.505 5.755C10.505 4.56153 10.0309 3.41694 9.18699 2.57302C8.34307 1.72911 7.19848 1.255 6.005 1.255Z" stroke="black" stroke-linecap="round" stroke-linejoin="round"/>
</svg>
