<svg width="12" height="12" viewBox="0 0 12 12" fill="none" xmlns="http://www.w3.org/2000/svg">
<path d="M4 9C2.6195 9 1.5 8.55 1.5 8V4M1.5 4C1.5 3.73478 1.76339 3.48043 2.23223 3.29289C2.70107 3.10536 3.33696 3 4 3C4.66304 3 5.29893 3.10536 5.76777 3.29289C6.23661 3.48043 6.5 3.73478 6.5 4M1.5 4C1.5 4.26522 1.76339 4.51957 2.23223 4.70711C2.70107 4.89464 3.33696 5 4 5C4.66304 5 5.29893 4.89464 5.76777 4.70711C6.23661 4.51957 6.5 4.26522 6.5 4M5.5 7.5C5.5 8.05 6.615 8.5 8 8.5C9.38 8.5 10.5 8.05 10.5 7.5M5.5 7.5V9.5C5.5 10.05 6.615 10.5 8 10.5C9.38 10.5 10.5 10.05 10.5 9.5L10.5 7.5M5.5 7.5C5.5 6.945 6.615 6.5 8 6.5C9.38 6.5 10.5 6.945 10.5 7.5M6.5 4V5.25M8.5 2.5H10.5M9.5 3.5V1.5M4 7C2.6195 7 1.5 6.55 1.5 6" stroke="black" stroke-linecap="round" stroke-linejoin="round"/>
</svg>
