<svg width="12" height="12" viewBox="0 0 12 12" fill="none" xmlns="http://www.w3.org/2000/svg">
<path d="M1.5 4.5C1.5 5.05 2.615 5.5 4 5.5M4 7.5C2.6195 7.5 1.5 7.05 1.5 6.5M6.495 2.5V4M5.5 8C5.5 8.55 6.615 9 8 9C9.38 9 10.5 8.55 10.5 8M5.5 6C5.5 6.55 6.615 7 8 7C9.38 7 10.5 6.55 10.5 6V10C10.5 10.55 9.38 11 8 11C6.615 11 5.5 10.55 5.5 10V6ZM5.5 6C5.5 5.445 6.62 5 8 5C9.38 5 10.5 5.445 10.495 6M4 9.5C2.6195 9.5 1.5 9.05 1.5 8.5V2.5M1.5 2.5C1.5 2.23478 1.76339 1.98043 2.23223 1.79289C2.70107 1.60536 3.33696 1.5 4 1.5C4.66304 1.5 5.29893 1.60536 5.76777 1.79289C6.23661 1.98043 6.5 2.23478 6.5 2.5C6.5 2.76522 6.23661 3.01957 5.76777 3.20711C5.29893 3.39464 4.66304 3.5 4 3.5C3.33696 3.5 2.70107 3.39464 2.23223 3.20711C1.76339 3.01957 1.5 2.76522 1.5 2.5Z" stroke="black" stroke-linecap="round" stroke-linejoin="round"/>
</svg>
