<svg width="12" height="12" viewBox="0 0 12 12" fill="none" xmlns="http://www.w3.org/2000/svg">
<path d="M10.105 6.605C10.35 6.12 10.495 5.575 10.495 4.995C10.495 3.06 8.925 1.495 6.995 1.495C6.415 1.495 5.865 1.635 5.385 1.888M5.0005 6.86999V5.59499M4.9995 8.275C4.9645 8.275 4.9345 8.3 4.9345 8.335C4.9345 8.365 4.9595 8.395 4.9945 8.395C5.0245 8.395 5.0545 8.365 5.0545 8.33C5.0545 8.295 5.0245 8.265 4.9895 8.265M5 10.5C3.0665 10.5 1.5 8.93 1.5 7C1.5 5.065 3.0665 3.5 5 3.5C6.9325 3.5 8.5 5.0675 8.5 7C8.5 8.93 6.93 10.5 5 10.5Z" stroke="black" stroke-linecap="round" stroke-linejoin="round"/>
</svg>
