<svg width="16" height="16" viewBox="0 0 16 16" fill="none" xmlns="http://www.w3.org/2000/svg">
<path d="M7.86001 6.13331L10.1333 3.85331M7.71335 3.76665C7.71335 3.73331 7.73335 3.70598 7.76668 3.70598C7.79335 3.70598 7.82001 3.72598 7.82001 3.75931C7.81335 3.78598 7.79335 3.81265 7.76001 3.81265C7.72668 3.80598 7.70001 3.78598 7.70001 3.75265V3.74598M5.33335 4.66665V3.53331C5.33335 2.31331 6.31335 1.33331 7.53335 1.33331H10.4667C11.68 1.33331 12.6667 2.31331 12.6667 3.53331V6.46665C12.6667 7.67998 11.68 8.66665 10.4667 8.66665H10M10.2833 6.22665C10.2767 6.25331 10.2567 6.27998 10.2233 6.27998C10.19 6.27331 10.1633 6.25331 10.1633 6.21998C10.1633 6.18665 10.1833 6.15998 10.2167 6.15998C10.2433 6.15998 10.27 6.17998 10.27 6.21331M2.00001 8.39998V12.9333C2.00001 13.52 3.19335 14 4.66668 14C6.13335 14 7.32668 13.52 7.33335 12.9333V8.39998M2.00001 10.6666C2.00001 11.2533 3.18668 11.7333 4.66001 11.7333C6.12668 11.7333 7.32668 11.2533 7.32668 10.6666M7.32668 8.39998C7.32668 8.98665 6.12668 9.46665 4.66001 9.46665C3.18668 9.46665 1.99335 8.98665 1.99335 8.39998C1.99335 7.80665 3.18668 7.33331 4.66001 7.33331C6.13201 7.33331 7.32001 7.80665 7.32668 8.39998Z" stroke="black" stroke-width="1.3" stroke-linecap="round" stroke-linejoin="round"/>
</svg>
