<svg width="16" height="16" viewBox="0 0 16 16" fill="none" xmlns="http://www.w3.org/2000/svg">
<path d="M5.33333 12C3.49267 12 2 11.4 2 10.6666V5.33331M2 5.33331C2 4.97969 2.35119 4.64055 2.97631 4.3905C3.60143 4.14046 4.44928 3.99998 5.33333 3.99998C6.21739 3.99998 7.06523 4.14046 7.69036 4.3905C8.31548 4.64055 8.66667 4.97969 8.66667 5.33331M2 5.33331C2 5.68694 2.35119 6.02607 2.97631 6.27612C3.60143 6.52617 4.44928 6.66665 5.33333 6.66665C6.21739 6.66665 7.06523 6.52617 7.69036 6.27612C8.31548 6.02607 8.66667 5.68694 8.66667 5.33331M7.33333 9.99998C7.33333 10.7333 8.82 11.3333 10.6667 11.3333C12.5067 11.3333 14 10.7333 14 9.99998M7.33333 9.99998V12.6666C7.33333 13.4 8.82 14 10.6667 14C12.5067 14 14 13.4 14 12.6666V9.99998M7.33333 9.99998C7.33333 9.25998 8.82 8.66665 10.6667 8.66665C12.5067 8.66665 14 9.25998 14 9.99998M8.66667 5.33331V6.99998M5.33333 9.33331C3.49267 9.33331 2 8.73331 2 7.99998M14.6668 2.62531L12.6668 4.62531L11.4668 3.42531" stroke="black" stroke-width="1.3" stroke-linecap="round" stroke-linejoin="round"/>
</svg>
