<svg width="12" height="12" viewBox="0 0 12 12" fill="none" xmlns="http://www.w3.org/2000/svg">
<path d="M4.84 2.47101C6.13 1.17601 8.234 1.17601 9.529 2.47101C10.824 3.76101 10.824 5.86501 9.529 7.16001M3.85 7.17501V5.77501H5.261C5.646 5.77501 5.956 6.08501 5.956 6.47001C5.956 6.85501 5.641 7.16501 5.256 7.16501M4.735 5.37551V5.77551M4.735 8.99001V8.53501M8.132 7.18401C8.132 9.01401 6.647 10.5 4.816 10.5C2.981 10.5 1.5 9.01501 1.5 7.18401C1.5 5.34901 2.98 3.86801 4.816 3.86801C6.646 3.86751 8.132 5.34801 8.132 7.18401ZM5.435 8.53351H3.85V7.17351H5.4325C5.8025 7.17351 6.1075 7.47351 6.1075 7.84851C6.1075 8.21851 5.8025 8.52351 5.4275 8.52351L5.435 8.53351Z" stroke="black" stroke-linecap="round" stroke-linejoin="round"/>
</svg>
