<svg width="12" height="12" viewBox="0 0 12 12" fill="none" xmlns="http://www.w3.org/2000/svg">
<g clip-path="url(#clip0_3_164)">
<path d="M6 10.75C4.74022 10.75 3.53204 10.2496 2.64124 9.35876C1.75044 8.46796 1.25 7.25978 1.25 6C1.25 4.74022 1.75044 3.53204 2.64124 2.64124C3.53204 1.75044 4.74022 1.25 6 1.25C7.25978 1.25 8.46796 1.75044 9.35876 2.64124C10.2496 3.53204 10.75 4.74022 10.75 6M5.21657 5.19931C5.32051 4.43173 6.02812 3.90003 6.7957 4.00397C7.55928 4.10791 8.09099 4.81552 7.98705 5.5831C7.89909 6.19876 7.41136 6.68649 6.7917 6.77445M9.43951 9.20047C9.46451 9.22547 9.46451 9.27047 9.43951 9.30047C9.40951 9.32547 9.36451 9.32547 9.33451 9.30047C9.30451 9.27047 9.30451 9.22547 9.33451 9.19547C9.35951 9.16547 9.40451 9.16547 9.43451 9.19547M5.40045 5.19931C5.02935 5.19931 4.67345 5.34673 4.41105 5.60914C4.14864 5.87155 4.00122 6.22745 4.00122 6.59855C4.00122 6.96964 4.14864 7.32554 4.41105 7.58795C4.67345 7.85036 5.02935 7.99778 5.40045 7.99778C5.77155 7.99778 6.12745 7.85036 6.38986 7.58795C6.65226 7.32554 6.79968 6.96964 6.79968 6.59855C6.79968 6.22745 6.65226 5.87155 6.38986 5.60914C6.12745 5.34673 5.77155 5.19931 5.40045 5.19931ZM7.63002 9.595C7.49002 9.385 7.49002 9.11 7.63002 8.905C8.05002 8.26 8.72002 7.74499 9.38652 7.74499C10.0515 7.74499 10.7165 8.25499 11.1415 8.89999C11.2765 9.10499 11.2765 9.38 11.1415 9.59C10.7165 10.231 10.0465 10.745 9.38153 10.745C8.71153 10.745 8.04652 10.23 7.62502 9.59L7.63002 9.595Z" stroke="black" stroke-linecap="round" stroke-linejoin="round"/>
</g>
<defs>
<clipPath id="clip0_3_164">
<rect width="12" height="12" fill="white"/>
</clipPath>
</defs>
</svg>
