<svg width="12" height="12" viewBox="0 0 12 12" fill="none" xmlns="http://www.w3.org/2000/svg">
<path d="M1.5 4C1.5 4.55 2.615 5 4 5M1.5 4V8C1.5 8.55 2.6195 9 4 9M1.5 4C1.5 3.73478 1.76339 3.48043 2.23223 3.29289C2.70107 3.10536 3.33695 3 4 3C4.66304 3 5.29892 3.10536 5.76776 3.29289C6.2366 3.48043 6.5 3.73478 6.5 4M1.5 4C1.5 4.26522 1.76339 4.51957 2.23223 4.70711C2.70107 4.89464 3.33695 5 4 5M4 5C4.66304 5 5.29892 4.89464 5.76776 4.70711C6.2366 4.51957 6.5 4.26522 6.5 4M6.5 4L6.5 5.25M8.75 3.25L10.25 1.75M10.25 3.25L8.75 1.75M1.5 6C1.5 6.55 2.615 6.995 3.9995 6.995M3.995 7C2.61 7 1.495 6.55 1.495 6M5.5 7.5C5.5 8.05 6.61499 8.5 7.99999 8.5C9.38 8.5 10.5 8.05 10.5 7.5L10.4995 9.5C10.4995 10.05 9.38 10.5 7.99999 10.5C6.61499 10.5 5.5 10.05 5.5 9.5V7.5ZM10.4985 7.5C10.4985 6.945 9.3785 6.5 7.9985 6.5C6.6185 6.5 5.4985 6.945 5.4985 7.5C5.4985 8.05 6.6135 8.5 7.9985 8.5C9.3785 8.5 10.4985 8.05 10.4985 7.5Z" stroke="black" stroke-linecap="round" stroke-linejoin="round"/>
</svg>
