<svg width="12" height="12" viewBox="0 0 12 12" fill="none" xmlns="http://www.w3.org/2000/svg">
<path d="M5.895 4.6L7.59999 2.89M5.78499 2.825C5.78499 2.8 5.79999 2.7795 5.82499 2.7795C5.84499 2.7795 5.86499 2.7945 5.86499 2.8195C5.85999 2.8395 5.845 2.8595 5.82 2.8595C5.795 2.8545 5.775 2.8395 5.775 2.8145V2.8095M4 3.5V2.65C4 1.735 4.735 1 5.65 1H7.85C8.76 1 9.49999 1.735 9.49999 2.65V4.85C9.49999 5.76 8.76 6.5 7.85 6.5H7.5M7.7125 4.67C7.7075 4.69 7.69249 4.71 7.66749 4.71C7.64249 4.705 7.6225 4.69 7.6225 4.665C7.6225 4.64 7.6375 4.62 7.6625 4.62C7.6825 4.62 7.7025 4.635 7.7025 4.66M1.5 6.3V9.7C1.5 10.14 2.395 10.5 3.5 10.5C4.6 10.5 5.495 10.14 5.5 9.7V6.3M1.5 8C1.5 8.44 2.38999 8.8 3.49499 8.8C4.595 8.8 5.495 8.44 5.495 8M5.495 6.3C5.495 6.74 4.595 7.1 3.49499 7.1C2.38999 7.1 1.495 6.74 1.495 6.3C1.495 5.855 2.38999 5.5 3.49499 5.5C4.599 5.5 5.49 5.855 5.495 6.3Z" stroke="black" stroke-linecap="round" stroke-linejoin="round"/>
</svg>
