<svg width="16" height="16" viewBox="0 0 16 16" fill="none" xmlns="http://www.w3.org/2000/svg">
<path d="M2.00001 5.33337C2.00001 6.06671 3.48668 6.66671 5.33335 6.66671M2.00001 5.33337V10.6667C2.00001 11.4 3.49268 12 5.33335 12M2.00001 5.33337C2.00001 4.97975 2.3512 4.64061 2.97632 4.39056C3.60145 4.14052 4.44929 4.00004 5.33335 4.00004C6.2174 4.00004 7.06525 4.14052 7.69037 4.39056C8.31549 4.64061 8.66668 4.97975 8.66668 5.33337M2.00001 5.33337C2.00001 5.687 2.3512 6.02613 2.97632 6.27618C3.60145 6.52623 4.44929 6.66671 5.33335 6.66671M5.33335 6.66671C6.2174 6.66671 7.06525 6.52623 7.69037 6.27618C8.31549 6.02613 8.66668 5.687 8.66668 5.33337M8.66668 5.33337L8.66668 7.00004M11.6667 4.33337L13.6667 2.33337M13.6667 4.33337L11.6667 2.33337M2.00001 8.00004C2.00001 8.73337 3.48668 9.32671 5.33268 9.32671M5.32668 9.33337C3.48001 9.33337 1.99335 8.73337 1.99335 8.00004M7.33335 10C7.33335 10.7334 8.82001 11.3334 10.6667 11.3334C12.5067 11.3334 14 10.7334 14 10L13.9993 12.6667C13.9993 13.4 12.5067 14 10.6667 14C8.82001 14 7.33335 13.4 7.33335 12.6667V10ZM13.998 10C13.998 9.26004 12.5047 8.66671 10.6647 8.66671C8.82468 8.66671 7.33135 9.26004 7.33135 10C7.33135 10.7334 8.81801 11.3334 10.6647 11.3334C12.5047 11.3334 13.998 10.7334 13.998 10Z" stroke="black" stroke-width="1.3" stroke-linecap="round" stroke-linejoin="round"/>
</svg>
