<svg width="16" height="16" viewBox="0 0 16 16" fill="none" xmlns="http://www.w3.org/2000/svg">
<path d="M12.6667 7.33335V4.00002C12.6667 3.26002 12.0667 2.66669 11.3334 2.66669H2.66671C1.92671 2.66669 1.33337 3.26002 1.33337 4.00002V9.33335C1.33337 10.0667 1.92671 10.6667 2.66671 10.6667H10.6667M8.33337 13.3334V10.6667M5.66671 10.6667V13.3334M4.83337 13.3334H9.16671M13.6667 13.3334H11.6667C11.1134 13.3334 10.6667 12.88 10.6667 12.3334V8.33335C10.6667 7.78002 11.1134 7.33335 11.6667 7.33335H13.6667C14.2134 7.33335 14.6667 7.78002 14.6667 8.33335V12.3334C14.6667 12.88 14.2134 13.3334 13.6667 13.3334Z" stroke="black" stroke-width="1.3" stroke-linecap="round" stroke-linejoin="round"/>
</svg>
