<svg width="12" height="12" viewBox="0 0 12 12" fill="none" xmlns="http://www.w3.org/2000/svg">
<path d="M11 6C11 5.72386 10.7761 5.5 10.5 5.5C10.2239 5.5 10 5.72386 10 6H10.5H11ZM6 2C6.27614 2 6.5 1.77614 6.5 1.5C6.5 1.22386 6.27614 1 6 1V1.5V2ZM8.275 0.5C7.99886 0.5 7.775 0.723858 7.775 1C7.775 1.27614 7.99886 1.5 8.275 1.5V1V0.5ZM10.495 3.72C10.495 3.99614 10.7189 4.22 10.995 4.22C11.2711 4.22 11.495 3.99614 11.495 3.72H10.995H10.495ZM8.275 2C7.99886 2 7.775 2.22386 7.775 2.5C7.775 2.77614 7.99886 3 8.275 3V2.5V2ZM8.995 3.72C8.995 3.99614 9.21886 4.22 9.495 4.22C9.77114 4.22 9.995 3.99614 9.995 3.72H9.495H8.995ZM5 7.5H4.5C4.5 7.77614 4.72386 8 5 8V7.5ZM5.5 4.5C5.5 4.22386 5.27614 4 5 4C4.72386 4 4.5 4.22386 4.5 4.5H5H5.5ZM6.53 4C6.53 3.72386 6.30614 3.5 6.03 3.5C5.75386 3.5 5.53 3.72386 5.53 4H6.03H6.53ZM5.53 4.5C5.53 4.77614 5.75386 5 6.03 5C6.30614 5 6.53 4.77614 6.53 4.5H6.03H5.53ZM6.53 7.5C6.53 7.22386 6.30614 7 6.03 7C5.75386 7 5.53 7.22386 5.53 7.5H6.03H6.53ZM5.53 8C5.53 8.27614 5.75386 8.5 6.03 8.5C6.30614 8.5 6.53 8.27614 6.53 8H6.03H5.53ZM5 6V5.5C4.72386 5.5 4.5 5.72386 4.5 6H5ZM4.995 4.5V4C4.71886 4 4.495 4.22386 4.495 4.5H4.995ZM4.995 6H4.495C4.495 6.27614 4.71886 6.5 4.995 6.5V6ZM10.5 6H10C10 8.20914 8.20914 10 6 10V10.5V11C8.76142 11 11 8.76142 11 6H10.5ZM6 10.5V10C3.79086 10 2 8.20914 2 6H1.5H1C1 8.76142 3.23858 11 6 11V10.5ZM1.5 6H2C2 3.79086 3.79086 2 6 2V1.5V1C3.23858 1 1 3.23858 1 6H1.5ZM8.275 1V1.5C9.49946 1.5 10.495 2.49174 10.495 3.72H10.995H11.495C11.495 1.93826 10.0505 0.5 8.275 0.5V1ZM8.275 2.5V3C8.67386 3 8.995 3.32114 8.995 3.72H9.495H9.995C9.995 2.76886 9.22614 2 8.275 2V2.5ZM5 7.5H5.5V4.5H5H4.5V7.5H5ZM6.03 4H5.53V4.5H6.03H6.53V4H6.03ZM6.03 7.5H5.53V8H6.03H6.53V7.5H6.03ZM5 6V6.5H6.75V6V5.5H5V6ZM6.75 6V6.5C6.88603 6.5 7 6.61331 7 6.75H7.5H8C8 6.05669 7.43397 5.5 6.75 5.5V6ZM7.5 6.75H7C7 6.88386 6.88386 7 6.75 7V7.5V8C7.43614 8 8 7.43614 8 6.75H7.5ZM6.75 7.5V7H5V7.5V8H6.75V7.5ZM5 7.5H5.5V6H5H4.5V7.5H5ZM4.995 4.5V5H6.57V4.5V4H4.995V4.5ZM6.57 4.5V5C6.70603 5 6.82 5.11331 6.82 5.25H7.32H7.82C7.82 4.55669 7.25397 4 6.57 4V4.5ZM7.32 5.25H6.82C6.82 5.38386 6.70386 5.5 6.57 5.5V6V6.5C7.25614 6.5 7.82 5.93614 7.82 5.25H7.32ZM6.57 6V5.5H4.995V6V6.5H6.57V6ZM4.995 6H5.495V4.5H4.995H4.495V6H4.995Z" fill="black"/>
</svg>
