<svg width="12" height="12" viewBox="0 0 12 12" fill="none" xmlns="http://www.w3.org/2000/svg">
<path d="M2 7.055C2 7.785 3.685 8.375 5.765 8.375M9.5 2.82C9.5 3.55 7.82 4.14 5.75 4.14C3.675 4.14 2 3.545 2 2.815M9.5 4.94C9.5 5.67 7.82 6.26 5.75 6.26C3.675 6.26 2 5.665 2 4.935M9.8615 9V8.36C9.8615 7.905 9.4715 7.495 8.9965 7.495C8.5165 7.495 8.1315 7.87999 8.1315 8.35499V8.99M5.768 10.5C3.687 10.5 2 9.905 2 9.175V2.82C2 2.085 3.675 1.495 5.75 1.495C7.82 1.495 9.5 2.085 9.5 2.815V5.99M10.013 11H7.987C7.717 11 7.497 10.78 7.497 10.51V9.48C7.497 9.21 7.712 8.99 7.982 8.99H10.008C10.273 8.99 10.493 9.205 10.493 9.475V10.5C10.493 10.765 10.273 10.985 10.003 10.985L10.013 11Z" stroke="black" stroke-linecap="round" stroke-linejoin="round"/>
</svg>
