<svg width="12" height="12" viewBox="0 0 12 12" fill="none" xmlns="http://www.w3.org/2000/svg">
<path fill-rule="evenodd" clip-rule="evenodd" d="M1.125 6C1.125 3.30265 3.30764 1.125 6 1.125C8.69261 1.125 10.875 3.30739 10.875 6C10.875 8.69261 8.69261 10.875 6 10.875C3.30265 10.875 1.125 8.69236 1.125 6ZM4.85013 4.3198C4.70368 4.17335 4.46624 4.17335 4.3198 4.3198C4.17335 4.46624 4.17335 4.70368 4.3198 4.85013L5.46963 5.99996L4.3198 7.1498C4.17335 7.29624 4.17335 7.53368 4.3198 7.68013C4.46624 7.82657 4.70368 7.82657 4.85013 7.68013L5.99996 6.53029L7.1498 7.68013C7.29624 7.82657 7.53368 7.82657 7.68013 7.68013C7.82657 7.53368 7.82657 7.29624 7.68013 7.1498L6.53029 5.99996L7.68013 4.85013C7.82657 4.70368 7.82657 4.46624 7.68013 4.3198C7.53368 4.17335 7.29624 4.17335 7.1498 4.3198L5.99996 5.46963L4.85013 4.3198Z" fill="black"/>
</svg>
