<svg width="12" height="12" viewBox="0 0 12 12" fill="none" xmlns="http://www.w3.org/2000/svg">
<path d="M9.47095 3.08624C8.81394 2.80842 8.12034 2.61133 7.40788 2.5C7.31038 2.66097 7.22217 2.82659 7.1436 2.99616C6.38469 2.89054 5.61292 2.89054 4.854 2.99616C4.7754 2.82661 4.68718 2.66099 4.58973 2.5C3.8768 2.61227 3.18275 2.80983 2.52508 3.08769C1.21944 4.87183 0.865495 6.61166 1.04247 8.3268C1.80708 8.84857 2.66291 9.24539 3.57274 9.5C3.77761 9.24551 3.95889 8.97553 4.11466 8.69292C3.8188 8.59086 3.53323 8.46494 3.26127 8.31663C3.33285 8.26868 3.40285 8.21928 3.47049 8.17134C4.26182 8.51505 5.12552 8.69326 5.99998 8.69326C6.87445 8.69326 7.73814 8.51505 8.52947 8.17134C8.5979 8.22291 8.6679 8.27231 8.73869 8.31663C8.46621 8.46518 8.18012 8.59134 7.88373 8.69365C8.03931 8.97613 8.2206 9.24588 8.42565 9.5C9.33626 9.24641 10.1927 8.84978 10.9575 8.32752C11.1651 6.33852 10.6028 4.61467 9.47095 3.08624ZM4.33882 7.272C3.84567 7.272 3.43824 6.85865 3.43824 6.35015C3.43824 5.84164 3.83151 5.42466 4.33725 5.42466C4.84299 5.42466 5.24727 5.84164 5.23862 6.35015C5.22997 6.85865 4.84142 7.272 4.33882 7.272ZM7.66114 7.272C7.1672 7.272 6.76135 6.85865 6.76135 6.35015C6.76135 5.84164 7.15461 5.42466 7.66114 5.42466C8.16767 5.42466 8.5688 5.84164 8.56015 6.35015C8.55149 6.85865 8.16373 7.272 7.66114 7.272Z" fill="black"/>
</svg>
