<svg width="12" height="12" viewBox="0 0 12 12" fill="none" xmlns="http://www.w3.org/2000/svg">
<path d="M3.5 4.5L4.25 3.75L3.5 3M3 8.5V7.5M9.75 10.5H2.5C1.945 10.5 1.5 10.05 1.5 9.5V9C1.5 8.72 1.72 8.5 2 8.5H8.5C8.775 8.5 9 8.72 9 9V9.75C9 10.16 9.335 10.5 9.75 10.5ZM9.75 10.5C10.16 10.5 10.5 10.16 10.5 9.75V2.5C10.5 1.945 10.05 1.5 9.5 1.5H7.5M2.75 1.5H4.75C5.44036 1.5 6 2.05964 6 2.75V4.75C6 5.44036 5.44036 6 4.75 6H2.75C2.05964 6 1.5 5.44036 1.5 4.75V2.75C1.5 2.05964 2.05964 1.5 2.75 1.5Z" stroke="black" stroke-linecap="round" stroke-linejoin="round"/>
</svg>
