<svg width="12" height="12" viewBox="0 0 12 12" fill="none" xmlns="http://www.w3.org/2000/svg">
<g clip-path="url(#clip0_3_300)">
<path d="M6 3.75V4.25M6 8.25V7.74999M4.925 7.125C5.12 7.53 5.5445 7.77499 5.9945 7.74999C6.5395 7.80999 7.0395 7.42 7.1195 6.875C7.1195 6.495 6.8495 6.16999 6.4795 6.09499L5.4995 5.89499C5.1245 5.81999 4.8595 5.49499 4.8595 5.115C4.9345 4.56499 5.4345 4.17499 5.9845 4.23999C6.4345 4.20999 6.8545 4.45499 7.0545 4.86499M6 1.245C4.74022 1.245 3.53204 1.74544 2.64124 2.63624C1.75044 3.52704 1.25 4.73522 1.25 5.995C1.25 7.25477 1.75044 8.46295 2.64124 9.35375C3.53204 10.2445 4.74022 10.745 6 10.745C6.62378 10.745 7.24145 10.6221 7.81775 10.3834C8.39404 10.1447 8.91768 9.79483 9.35876 9.35375C9.79984 8.91267 10.1497 8.38904 10.3884 7.81274C10.6271 7.23645 10.75 6.61877 10.75 5.995C10.75 5.37122 10.6271 4.75355 10.3884 4.17725C10.1497 3.60095 9.79984 3.07732 9.35876 2.63624C8.91768 2.19516 8.39404 1.84528 7.81775 1.60657C7.24145 1.36786 6.62378 1.245 6 1.245Z" stroke="black" stroke-linecap="round" stroke-linejoin="round"/>
</g>
<defs>
<clipPath id="clip0_3_300">
<rect width="12" height="12" fill="white"/>
</clipPath>
</defs>
</svg>
