<svg width="16" height="16" viewBox="0 0 16 16" fill="none" xmlns="http://www.w3.org/2000/svg">
<path d="M7.83331 4.66664V5.49997M7.83331 11.3333V10.5M9.48664 6.66664C9.43997 6.0133 8.90664 5.49997 8.24531 5.49997H7.33197C6.68531 5.49997 6.15864 6.01997 6.15864 6.66664C6.15864 7.19997 6.52397 7.66664 7.03864 7.79997L8.60064 8.18664C9.12064 8.3133 9.48064 8.77997 9.48064 9.31997C9.48064 9.96664 8.95397 10.4866 8.30731 10.4866H7.39397C6.72731 10.4866 6.19397 9.96664 6.14731 9.3133M3.91331 3.9133C4.95931 2.8673 6.40464 2.21997 7.99997 2.21997C11.1866 2.21997 13.7813 4.80664 13.7813 7.99864C13.7813 8.43864 13.7213 8.87197 13.628 9.29197M12.7333 8.4013L13.7733 9.4413L14.8133 8.39464M12.0866 12.0853C11.04 13.1253 9.59331 13.772 7.99331 13.772C4.79997 13.772 2.21197 11.1786 2.21197 7.9933C2.21197 7.54664 2.26531 7.1133 2.35864 6.6933M3.26197 7.59864L2.21531 6.55197L1.16864 7.59197" stroke="black" stroke-width="1.3" stroke-linecap="round" stroke-linejoin="round"/>
</svg>
