<svg width="12" height="12" viewBox="0 0 12 12" fill="none" xmlns="http://www.w3.org/2000/svg">
<path d="M5.87496 3.49998V4.12498M5.87496 8.49998V7.87498M7.11496 4.99998C7.07996 4.50998 6.67996 4.12498 6.18396 4.12498H5.49896C5.01396 4.12498 4.61896 4.51498 4.61896 4.99998C4.61896 5.39998 4.89296 5.74998 5.27896 5.84998L6.45046 6.13998C6.84046 6.23498 7.11046 6.58498 7.11046 6.98998C7.11046 7.47498 6.71546 7.86498 6.23046 7.86498H5.54546C5.04546 7.86498 4.64546 7.47498 4.61046 6.98498M2.93496 2.93498C3.71946 2.15048 4.80346 1.66498 5.99996 1.66498C8.38996 1.66498 10.336 3.60498 10.336 5.99898C10.336 6.32898 10.291 6.65398 10.221 6.96898M9.54996 6.30098L10.33 7.08098L11.11 6.29598M9.06496 9.06398C8.27996 9.84398 7.19496 10.329 5.99496 10.329C3.59996 10.329 1.65896 8.38398 1.65896 5.99498C1.65896 5.65998 1.69896 5.33498 1.76896 5.01998M2.44646 5.69898L1.66146 4.91398L0.876465 5.69398" stroke="black" stroke-linecap="round" stroke-linejoin="round"/>
</svg>
