<svg width="16" height="16" viewBox="0 0 16 16" fill="none" xmlns="http://www.w3.org/2000/svg">
<path d="M8.00002 4.99997V5.66664M8.00002 11V10.3333M6.56669 9.49997C6.82669 10.04 7.39269 10.3666 7.99269 10.3333C8.71935 10.4133 9.38602 9.89331 9.49269 9.16664C9.49269 8.65997 9.13269 8.22664 8.63935 8.12664L7.33269 7.85997C6.83269 7.75997 6.47935 7.32664 6.47935 6.81997C6.57935 6.08664 7.24602 5.56664 7.97935 5.65331C8.57935 5.61331 9.13935 5.93997 9.40602 6.48664M8.00002 1.65997C6.32032 1.65997 4.70941 2.32723 3.52168 3.51496C2.33395 4.70269 1.66669 6.3136 1.66669 7.99331C1.66669 9.67301 2.33395 11.2839 3.52168 12.4716C4.70941 13.6594 6.32032 14.3266 8.00002 14.3266C8.83173 14.3266 9.65529 14.1628 10.4237 13.8445C11.1921 13.5263 11.8903 13.0598 12.4784 12.4716C13.0665 11.8835 13.533 11.1854 13.8513 10.417C14.1695 9.64857 14.3334 8.82501 14.3334 7.99331C14.3334 7.1616 14.1695 6.33804 13.8513 5.56964C13.533 4.80125 13.0665 4.10307 12.4784 3.51496C11.8903 2.92686 11.1921 2.46035 10.4237 2.14207C9.65529 1.82379 8.83173 1.65997 8.00002 1.65997Z" stroke="black" stroke-width="1.3" stroke-linecap="round" stroke-linejoin="round"/>
</svg>
