<svg width="12" height="12" viewBox="0 0 12 12" fill="none" xmlns="http://www.w3.org/2000/svg">
<path d="M6.99999 3V5.085C6.99999 5.35 7.10499 5.6 7.28999 5.79L9.69999 8.2C9.88749 8.3875 9.98999 8.64 9.98999 8.905V9.49C9.98999 10.04 9.53999 10.49 8.98999 10.49H2.98999C2.43499 10.49 1.98999 10.04 1.98999 9.49V8.9C1.98999 8.635 2.09499 8.38 2.27999 8.19L4.68999 5.775C4.87749 5.5875 4.97999 5.33 4.97999 5.065V2.975M6.99999 3C7.27499 3 7.49999 2.775 7.49999 2.5V2C7.49999 1.72 7.27499 1.5 6.99999 1.5H4.99999C4.71999 1.5 4.49999 1.724 4.49999 2V2.5C4.49999 2.775 4.71999 3 4.99999 3L6.99999 3ZM2.08999 8.5H9.90999M4.90999 5.5H7.08999" stroke="black" stroke-linecap="round" stroke-linejoin="round"/>
</svg>
