<svg width="12" height="12" viewBox="0 0 12 12" fill="none" xmlns="http://www.w3.org/2000/svg">
<path d="M7.27499 6.775C6.84999 7.485 5.92949 7.72 5.21449 7.3C4.49949 6.875 4.26449 5.955 4.68449 5.24C4.80949 5.02 4.98949 4.84 5.20949 4.71M8.99499 8.495C8.12999 9.145 7.07449 9.5 5.99449 9.495C4.19949 9.525 2.54449 8.54 1.71749 6.95H1.71499C1.41499 6.345 1.41499 5.64 1.71499 5.035C2.12499 4.21 2.78499 3.535 3.59999 3.1M10.21 7.065C10.23 7.025 10.255 6.99 10.275 6.95C10.57 6.345 10.57 5.64 10.275 5.035C9.44499 3.44 7.78949 2.455 5.99449 2.49C5.87949 2.49 5.76949 2.505 5.65949 2.51M10.5 10L1.99999 1.5" stroke="black" stroke-linecap="round" stroke-linejoin="round"/>
</svg>
