<svg width="12" height="12" viewBox="0 0 12 12" fill="none" xmlns="http://www.w3.org/2000/svg">
<path d="M7.06099 4.94C7.64599 5.525 7.64599 6.475 7.06099 7.06C6.47099 7.645 5.52099 7.645 4.93599 7.06C4.34599 6.47 4.34599 5.52 4.93599 4.935C5.52099 4.3485 6.47099 4.3485 7.05599 4.935M1.49999 6C1.49999 5.67 1.57499 5.3445 1.71999 5.04C2.47499 3.49 4.14999 2.495 5.99699 2.495C7.84199 2.495 9.51199 3.49 10.272 5.035C10.417 5.335 10.492 5.65999 10.492 5.99C10.492 6.315 10.412 6.6455 10.267 6.945C9.50699 8.49 7.83199 9.48499 5.98699 9.48499C4.13699 9.48499 2.46699 8.485 1.70999 6.94C1.55999 6.635 1.48499 6.31 1.48499 5.98L1.49999 6Z" stroke="black" stroke-linecap="round" stroke-linejoin="round"/>
</svg>
