<svg width="12" height="12" viewBox="0 0 12 12" fill="none" xmlns="http://www.w3.org/2000/svg">
<path d="M9 10.5V11H10V10.5H9.5H9ZM2 10.5V11H3V10.5H2.5H2ZM4.125 10H3.625V11H4.125V10.5V10ZM7.875 11H8.375V10H7.875V10.5V11ZM4.125 9.5C3.84886 9.5 3.625 9.72386 3.625 10C3.625 10.2761 3.84886 10.5 4.125 10.5V10V9.5ZM7.875 10.5C8.15114 10.5 8.375 10.2761 8.375 10C8.375 9.72386 8.15114 9.5 7.875 9.5V10V10.5ZM9.5 10.5H10V5H9.5H9V10.5H9.5ZM9.5 5H10V3.5H9.5H9V5H9.5ZM9.5 3.5H10V3H9.5H9V3.5H9.5ZM8 1.5V1H4V1.5V2H8V1.5ZM2.5 3H2V10.5H2.5H3V3H2.5ZM4 1.5V1C2.89543 1 2 1.89543 2 3H2.5H3C3 2.44772 3.44772 2 4 2V1.5ZM9.5 3H10C10 1.89543 9.10457 1 8 1V1.5V2C8.55228 2 9 2.44772 9 3H9.5ZM9.5 3.5V4H9.85V3.5V3H9.5V3.5ZM9.95 3.6H9.45V4.9H9.95H10.45V3.6H9.95ZM9.85 5V4.5H9.5V5V5.5H9.85V5ZM9.95 4.9H9.45C9.45 4.67909 9.62909 4.5 9.85 4.5V5V5.5C10.1814 5.5 10.45 5.23137 10.45 4.9H9.95ZM9.85 3.5V4C9.62909 4 9.45 3.82091 9.45 3.6H9.95H10.45C10.45 3.26863 10.1814 3 9.85 3V3.5ZM4.125 10.5V11H7.875V10.5V10H4.125V10.5ZM4.125 10V10.5H7.875V10V9.5H4.125V10Z" fill="black"/>
</svg>
