<svg width="12" height="12" viewBox="0 0 12 12" fill="none" xmlns="http://www.w3.org/2000/svg">
<path d="M6 10.5V4.00002M7.848 3.30502C7.308 3.86502 6.458 3.99902 6.048 3.99902M6.045 4.00002C6.045 4.00002 5.795 2.44002 6.405 1.81002M7.845 3.30502C8.24 2.89002 8.24 2.22002 7.845 1.80502C7.445 1.39002 6.8 1.39002 6.4075 1.80502M5.945 3.99902C5.535 3.99902 4.685 3.86502 4.15 3.30502C3.75 2.89002 3.75 2.22002 4.15 1.80502C4.545 1.39002 5.19 1.39002 5.5875 1.80502M5.9505 4.00002C5.9505 4.00002 6.1955 2.44002 5.5855 1.81002M9.5 6.00002V10C9.5 10.275 9.275 10.5 9 10.5H3C2.72 10.5 2.5 10.275 2.5 10V6.00002M10 4.00002H2C1.724 4.00002 1.5 4.22002 1.5 4.50002V5.50002C1.5 5.77502 1.72 6.00002 2 6.00002H10C10.275 6.00002 10.5 5.77502 10.5 5.50002V4.50002C10.5 4.22002 10.275 4.00002 10 4.00002Z" stroke="black" stroke-linecap="round" stroke-linejoin="round"/>
</svg>
