<svg width="16" height="16" viewBox="0 0 16 16" fill="none" xmlns="http://www.w3.org/2000/svg">
<g clip-path="url(#clip0_3_426)">
<path fill-rule="evenodd" clip-rule="evenodd" d="M8.00595 0.799988C4.02124 0.799988 0.799988 4.09997 0.799988 8.18251C0.799988 11.4459 2.86395 14.2083 5.72722 15.186C6.0852 15.2595 6.21633 15.0271 6.21633 14.8317C6.21633 14.6605 6.20453 14.0739 6.20453 13.4626C4.20001 13.9027 3.78258 12.5826 3.78258 12.5826C3.46044 11.727 2.98313 11.5071 2.98313 11.5071C2.32705 11.0548 3.03092 11.0548 3.03092 11.0548C3.75869 11.1037 4.14056 11.8126 4.14056 11.8126C4.7847 12.937 5.82265 12.6193 6.24022 12.4237C6.29981 11.947 6.49083 11.617 6.69364 11.4337C5.09489 11.2626 3.4128 10.627 3.4128 7.79131C3.4128 6.98461 3.69895 6.32461 4.15236 5.81132C4.08083 5.62802 3.83022 4.87007 4.22405 3.85562C4.22405 3.85562 4.83249 3.66003 6.20438 4.61342C6.79174 4.45182 7.39747 4.36961 8.00595 4.36892C8.61438 4.36892 9.23462 4.45457 9.80736 4.61342C11.1794 3.66003 11.7878 3.85562 11.7878 3.85562C12.1817 4.87007 11.9309 5.62802 11.8594 5.81132C12.3247 6.32461 12.5991 6.98461 12.5991 7.79131C12.5991 10.627 10.917 11.2503 9.3063 11.4337C9.56885 11.6659 9.79541 12.1059 9.79541 12.8026C9.79541 13.7926 9.78361 14.5872 9.78361 14.8315C9.78361 15.0271 9.91489 15.2595 10.2727 15.1861C13.136 14.2081 15.2 11.4459 15.2 8.18251C15.2118 4.09997 11.9787 0.799988 8.00595 0.799988Z" fill="black"/>
</g>
<defs>
<clipPath id="clip0_3_426">
<rect width="16" height="16" fill="white"/>
</clipPath>
</defs>
</svg>
