<svg width="12" height="12" viewBox="0 0 12 12" fill="none" xmlns="http://www.w3.org/2000/svg">
<g clip-path="url(#clip0_3_426)">
<path fill-rule="evenodd" clip-rule="evenodd" d="M6.00444 0.599976C3.01591 0.599976 0.599976 3.07497 0.599976 6.13686C0.599976 8.5844 2.14795 10.6562 4.2954 11.3895C4.56389 11.4446 4.66223 11.2703 4.66223 11.1237C4.66223 10.9954 4.65338 10.5554 4.65338 10.097C3.14999 10.427 2.83692 9.43693 2.83692 9.43693C2.59532 8.79523 2.23733 8.6303 2.23733 8.6303C1.74527 8.29112 2.27318 8.29112 2.27318 8.29112C2.819 8.32779 3.10541 8.85947 3.10541 8.85947C3.58851 9.70276 4.36697 9.46449 4.68015 9.31779C4.72485 8.96027 4.8681 8.71277 5.02021 8.57529C3.82115 8.44693 2.55958 7.97027 2.55958 5.84347C2.55958 5.23844 2.7742 4.74345 3.11426 4.35847C3.0606 4.221 2.87265 3.65254 3.16802 2.8917C3.16802 2.8917 3.62435 2.745 4.65327 3.46005C5.09379 3.33885 5.54809 3.2772 6.00444 3.27668C6.46077 3.27668 6.92595 3.34091 7.3555 3.46005C8.38454 2.745 8.84087 2.8917 8.84087 2.8917C9.13623 3.65254 8.94817 4.221 8.89452 4.35847C9.24354 4.74345 9.4493 5.23844 9.4493 5.84347C9.4493 7.97027 8.18774 8.4377 6.97971 8.57529C7.17662 8.74944 7.34654 9.0794 7.34654 9.60196C7.34654 10.3445 7.33769 10.9404 7.33769 11.1236C7.33769 11.2703 7.43615 11.4446 7.70453 11.3896C9.85198 10.6561 11.4 8.5844 11.4 6.13686C11.4088 3.07497 8.98401 0.599976 6.00444 0.599976Z" fill="black"/>
</g>
<defs>
<clipPath id="clip0_3_426">
<rect width="12" height="12" fill="white"/>
</clipPath>
</defs>
</svg>
