<svg width="12" height="12" viewBox="0 0 12 12" fill="none" xmlns="http://www.w3.org/2000/svg">
<path fill-rule="evenodd" clip-rule="evenodd" d="M3.875 4.87501H2.5C1.9475 4.87501 1.5 4.42501 1.5 3.87501V2.50001C1.5 1.94751 1.9475 1.50001 2.5 1.50001H3.875C4.425 1.50001 4.875 1.94751 4.875 2.50001V3.87501C4.875 4.42501 4.425 4.87501 3.875 4.87501Z" stroke="black" stroke-linejoin="round"/>
<path fill-rule="evenodd" clip-rule="evenodd" d="M3.875 10.5H2.5C1.9475 10.5 1.5 10.05 1.5 9.50001V8.12501C1.5 7.57001 1.9475 7.12501 2.5 7.12501H3.875C4.425 7.12501 4.875 7.57001 4.875 8.12501V9.50001C4.875 10.05 4.425 10.5 3.875 10.5Z" stroke="black" stroke-linejoin="round"/>
<path d="M10.725 3.22501C10.725 4.26054 9.88557 5.10001 8.85004 5.10001C7.8145 5.10001 6.97504 4.26054 6.97504 3.22501C6.97504 2.18947 7.8145 1.35001 8.85004 1.35001C9.88557 1.35001 10.725 2.18947 10.725 3.22501Z" stroke="black" stroke-linejoin="round"/>
<path d="M7.5 10.5H10.875L7.5 7.12501V10.5Z" stroke="black" stroke-linejoin="round"/>
</svg>
