<svg width="12" height="12" viewBox="0 0 12 12" fill="none" xmlns="http://www.w3.org/2000/svg">
<path fill-rule="evenodd" clip-rule="evenodd" d="M3.875 4.875H2.5C1.9475 4.875 1.5 4.425 1.5 3.875V2.5C1.5 1.9475 1.9475 1.5 2.5 1.5H3.875C4.425 1.5 4.875 1.9475 4.875 2.5V3.875C4.875 4.425 4.425 4.875 3.875 4.875Z" stroke="black" stroke-linecap="round" stroke-linejoin="round"/>
<path fill-rule="evenodd" clip-rule="evenodd" d="M9.5 4.875H8.125C7.57 4.875 7.125 4.425 7.125 3.875V2.5C7.125 1.9475 7.57 1.5 8.125 1.5H9.5C10.05 1.5 10.5 1.9475 10.5 2.5V3.875C10.5 4.425 10.05 4.875 9.5 4.875Z" stroke="black" stroke-linecap="round" stroke-linejoin="round"/>
<path fill-rule="evenodd" clip-rule="evenodd" d="M3.875 10.5H2.5C1.9475 10.5 1.5 10.05 1.5 9.5V8.125C1.5 7.57 1.9475 7.125 2.5 7.125H3.875C4.425 7.125 4.875 7.57 4.875 8.125V9.5C4.875 10.05 4.425 10.5 3.875 10.5Z" stroke="black" stroke-linecap="round" stroke-linejoin="round"/>
<path fill-rule="evenodd" clip-rule="evenodd" d="M9.5 10.5H8.125C7.57 10.5 7.125 10.05 7.125 9.5V8.125C7.125 7.57 7.57 7.125 8.125 7.125H9.5C10.05 7.125 10.5 7.57 10.5 8.125V9.5C10.5 10.05 10.05 10.5 9.5 10.5Z" stroke="black" stroke-linecap="round" stroke-linejoin="round"/>
</svg>
