<svg width="12" height="12" viewBox="0 0 12 12" fill="none" xmlns="http://www.w3.org/2000/svg">
<path d="M10.395 4.75999C10.79 5.15499 10.79 5.79499 10.395 6.18999C9.995 6.58499 9.355 6.58499 8.96 6.18999C8.56 5.78999 8.56 5.14999 8.96 4.75499C9.355 4.35499 9.995 4.35499 10.39 4.75449M7.1 2.95499C7.705 3.55999 7.705 4.54499 7.1 5.15499C6.49 5.75999 5.505 5.75999 4.895 5.15499C4.285 4.54499 4.285 3.55999 4.895 2.94999C5.5 2.33999 6.485 2.33999 7.095 2.94999M3.03 4.75999C3.425 5.15499 3.425 5.79499 3.03 6.18999C2.63 6.58499 1.99 6.58499 1.595 6.18999C1.195 5.78999 1.195 5.14999 1.595 4.75499C1.99 4.35499 2.63 4.35499 3.025 4.75449M11.5 9.49999V8.94999C11.5 8.25499 10.94 7.69999 10.25 7.69999H9.845M0.5 9.49999V8.94999C0.5 8.25499 1.055 7.69999 1.75 7.69999H2.15M8.665 9.49999V8.69499C8.665 7.72499 7.88 6.94499 6.915 6.94499H5.075C4.105 6.94499 3.325 7.72499 3.325 8.69499V9.49499" stroke="black" stroke-linecap="round" stroke-linejoin="round"/>
</svg>
