<svg width="12" height="12" viewBox="0 0 12 12" fill="none" xmlns="http://www.w3.org/2000/svg">
<path d="M1.5 10.5C1.5 9.53501 2.282 8.75001 3.245 8.75001H5.25C6.215 8.75001 6.995 9.53201 6.995 10.495M8 8.75301H8.75C9.715 8.75301 10.495 9.53501 10.495 10.498M8.93958 2.24999H11.0609M10.0002 3.31065V1.18933M4.25 4.25301C4.05302 4.25301 3.85796 4.29181 3.67597 4.36719C3.49399 4.44258 3.32863 4.55307 3.18934 4.69235C3.05005 4.83164 2.93956 4.997 2.86418 5.17899C2.7888 5.36098 2.75 5.55603 2.75 5.75301C2.75 5.95 2.7888 6.14505 2.86418 6.32704C2.93956 6.50903 3.05005 6.67439 3.18934 6.81367C3.32863 6.95296 3.49399 7.06345 3.67597 7.13883C3.85796 7.21421 4.05302 7.25301 4.25 7.25301C4.44698 7.25301 4.64204 7.21421 4.82403 7.13883C5.00601 7.06345 5.17137 6.95296 5.31066 6.81367C5.44995 6.67439 5.56044 6.50903 5.63582 6.32704C5.7112 6.14505 5.75 5.95 5.75 5.75301C5.75 5.55603 5.7112 5.36098 5.63582 5.17899C5.56044 4.997 5.44995 4.83164 5.31066 4.69235C5.17137 4.55307 5.00601 4.44258 4.82403 4.36719C4.64204 4.29181 4.44698 4.25301 4.25 4.25301ZM8 5.25301C7.73478 5.25301 7.48043 5.35837 7.29289 5.54591C7.10536 5.73344 7 5.9878 7 6.25301C7 6.51823 7.10536 6.77258 7.29289 6.96012C7.48043 7.14766 7.73478 7.25301 8 7.25301C8.26522 7.25301 8.51957 7.14766 8.70711 6.96012C8.89464 6.77258 9 6.51823 9 6.25301C9 5.9878 8.89464 5.73344 8.70711 5.54591C8.51957 5.35837 8.26522 5.25301 8 5.25301Z" stroke="black" stroke-linecap="round" stroke-linejoin="round"/>
</svg>
