<svg width="12" height="12" viewBox="0 0 12 12" fill="none" xmlns="http://www.w3.org/2000/svg">
<path d="M3.485 9.98001H4.24C4.4 9.98001 4.565 10 4.725 10.04L6.05 10.375C6.34 10.45 6.635 10.455 6.93 10.4L8.395 10.11C8.785 10.03 9.14 9.84001 9.42 9.56501L10.46 8.53001C10.755 8.23501 10.755 7.75501 10.46 7.46001C10.19 7.19001 9.77 7.16001 9.47 7.39001L8.265 8.30001C8.09 8.43001 7.88 8.50001 7.665 8.50001H6.5L7.24 8.50001C7.655 8.50001 7.995 8.16001 7.995 7.74001V7.58501C7.995 7.23501 7.755 6.93001 7.42 6.85001L6.274 6.56001C6.084 6.51001 5.894 6.49001 5.704 6.49001C5.239 6.49001 4.784 6.62501 4.399 6.88001L3.489 7.48501M8.58 2.57501C9.13 3.12501 9.13 4.02501 8.58 4.58001C8.025 5.13001 7.125 5.13001 6.57 4.58001C6.015 4.02501 6.015 3.12501 6.57 2.57001C7.12 2.01501 8.02 2.01501 8.575 2.57001M7.315 2.18751C7.265 1.90251 7.135 1.63251 6.92 1.41251C6.365 0.858509 5.465 0.858509 4.9135 1.41251C4.3585 1.96651 4.3585 2.86251 4.9135 3.41751C5.2585 3.76251 5.7335 3.88751 6.1785 3.80751M3 10.5H2C1.724 10.5 1.5 10.275 1.5 10V7.00001C1.5 6.72001 1.72 6.50001 2 6.50001H3C3.275 6.50001 3.5 6.72001 3.5 7.00001V10C3.5 10.275 3.275 10.5 3 10.5Z" stroke="black" stroke-linecap="round" stroke-linejoin="round"/>
</svg>
