<svg width="12" height="12" viewBox="0 0 12 12" fill="none" xmlns="http://www.w3.org/2000/svg">
<path d="M0.997925 7.00043L2.27373 4.8741C2.42056 4.62937 2.63413 4.43159 2.8894 4.30396L3.18211 4.1576C3.39048 4.05342 3.62025 3.99918 3.85321 3.99918H11.0021M1.99835 10.5019L4.88049 9.46043C5.28276 9.31507 5.62786 9.04463 5.86517 8.68877L7.36223 6.44386C7.57997 6.11735 7.53694 5.68253 7.25944 5.40502C6.938 5.08358 6.41686 5.08353 6.09535 5.40491L4.9996 6.50019M4.9996 6.50019H3.99919M4.9996 6.50019L4.99958 3.69904C4.98815 3.04773 5.50665 2.51037 6.15795 2.49854H9.8437C10.495 2.51037 11.0135 3.04773 11.0021 3.69904V5.79991C11.0135 6.45122 10.495 6.98858 9.8437 7.00041H6.99105" stroke="black" stroke-linecap="round" stroke-linejoin="round"/>
</svg>
