<svg width="16" height="16" viewBox="0 0 16 16" fill="none" xmlns="http://www.w3.org/2000/svg">
<path d="M14.2739 6V10.5M3.99336 8.13329V10.7466C3.99336 11.3733 4.30669 11.9666 4.83336 12.3133L5.90003 13.02C7.16669 13.86 8.81669 13.86 10.0834 13.02L11.15 12.3066C11.6767 11.9533 11.99 11.36 11.99 10.7333V8.11329M6.46869 2.72662L2.34669 5.01329C1.48136 5.49329 1.48136 6.73329 2.34669 7.21329L6.46003 9.49996C7.40669 10.0266 8.56669 10.0266 9.52003 9.49996L13.6334 7.21329C14.4934 6.72662 14.4934 5.48662 13.6334 5.00796L9.51336 2.72129C8.56003 2.18796 7.40003 2.18796 6.44669 2.72129L6.46869 2.72662Z" stroke="black" stroke-width="1.3" stroke-linecap="round" stroke-linejoin="round"/>
</svg>
