<svg width="12" height="12" viewBox="0 0 12 12" fill="none" xmlns="http://www.w3.org/2000/svg">
<path d="M10.7053 4.50006V7.87506M2.99494 6.10003V8.06003C2.99494 8.53003 3.22994 8.97503 3.62494 9.23503L4.42494 9.76503C5.37494 10.395 6.61244 10.395 7.56244 9.76503L8.36244 9.23003C8.75744 8.96503 8.99244 8.52003 8.99244 8.05003V6.08503M4.85144 2.04503L1.75994 3.76003C1.11094 4.12003 1.11094 5.05003 1.75994 5.41003L4.84494 7.12503C5.55494 7.52003 6.42494 7.52003 7.13994 7.12503L10.2249 5.41003C10.8699 5.04503 10.8699 4.11503 10.2249 3.75603L7.13494 2.04103C6.41994 1.64103 5.54994 1.64103 4.83494 2.04103L4.85144 2.04503Z" stroke="black" stroke-linecap="round" stroke-linejoin="round"/>
</svg>
