<svg width="12" height="12" viewBox="0 0 12 12" fill="none" xmlns="http://www.w3.org/2000/svg">
<path d="M5.04501 4.07499C5.48001 4.50999 5.48001 5.22499 5.04501 5.66499C4.60501 6.09999 3.89001 6.09999 3.45001 5.66499C3.01001 5.22499 3.01001 4.51 3.45001 4.07C3.88501 3.63 4.60001 3.63 5.04001 4.07M7.50001 4.75H9.50001M8.70001 6.74999H7.50001M6.04501 8.25C5.95501 8.03 5.82001 7.82999 5.64501 7.67299C5.35001 7.39799 4.96501 7.24799 4.56651 7.24799H3.91651C3.51651 7.24799 3.13151 7.398 2.83801 7.668C2.66301 7.828 2.52951 8.02299 2.43801 8.24499M1.00001 9.24999V2.77C1.00001 2.205 1.45501 1.745 2.02001 1.745H9.99951C10.5495 1.745 10.9995 2.19 10.9995 2.74499V9.24499C10.9995 9.79499 10.5495 10.245 9.99951 10.245H1.99951C1.44701 10.245 0.999512 9.79499 0.999512 9.24499L1.00001 9.24999Z" stroke="black" stroke-linecap="round" stroke-linejoin="round"/>
</svg>
