<svg width="12" height="12" viewBox="0 0 12 12" fill="none" xmlns="http://www.w3.org/2000/svg">
<path d="M2.96872 4.49936L3.32937 2.33396C3.4099 1.85176 3.82758 1.49811 4.31628 1.49811H7.62316C8.11236 1.49811 8.52954 1.85176 8.61007 2.33396L8.97122 4.49936M5.11261 9.00123C5.11261 9.83001 4.44076 10.5019 3.61199 10.5019C2.78322 10.5019 2.11136 9.83001 2.11136 9.00123C2.11136 8.17246 2.78322 7.50061 3.61199 7.50061C4.44076 7.50061 5.11261 8.17246 5.11261 9.00123ZM5.11261 9.00123C5.58631 8.42949 6.35413 8.42949 6.82783 9.00123M6.82783 9.00123C6.82783 9.83001 7.49968 10.5019 8.32845 10.5019C9.15723 10.5019 9.82908 9.83001 9.82908 9.00123C9.82908 8.17246 9.15723 7.50061 8.32845 7.50061C7.49968 7.50061 6.82783 8.17246 6.82783 9.00123ZM1.49811 6.50019C3.98464 5.16614 8.01532 5.16614 10.5019 6.50019" stroke="black" stroke-linecap="round" stroke-linejoin="round"/>
</svg>
