<svg width="12" height="12" viewBox="0 0 12 12" fill="none" xmlns="http://www.w3.org/2000/svg">
<path d="M6.00049 1.01208C8.75504 1.01231 10.9878 3.24577 10.9878 6.00037C10.9876 8.75479 8.75491 10.9874 6.00049 10.9877C3.24106 10.9877 1.01241 8.75461 1.01221 6.00037C1.01221 3.24081 3.24607 1.01208 6.00049 1.01208ZM5.99951 5.50037C5.72359 5.50063 5.49951 5.72439 5.49951 6.00037V8.50037C5.49972 8.77617 5.72372 9.00011 5.99951 9.00037C6.27553 9.00037 6.49931 8.77633 6.49951 8.50037V6.00037C6.49951 5.72422 6.27565 5.50037 5.99951 5.50037ZM5.9917 3.50134L5.98975 3.50037C5.95369 3.5004 5.91817 3.50481 5.88428 3.51208C5.59148 3.56426 5.36963 3.81717 5.36963 4.12537C5.36983 4.45325 5.63599 4.75016 5.99463 4.75037C6.18033 4.75037 6.33398 4.6667 6.43506 4.5658C6.53606 4.4648 6.61951 4.31112 6.61963 4.12537C6.61963 3.79605 6.37577 3.56043 6.09717 3.51111C6.06414 3.50424 6.02969 3.50037 5.99463 3.50037L5.9917 3.50134Z" fill="black"/>
</svg>
