<svg width="12" height="12" viewBox="0 0 12 12" fill="none" xmlns="http://www.w3.org/2000/svg">
<g clip-path="url(#clip0_3_412)">
<path d="M3.8257 0.786717C3.26709 0.813072 2.88563 0.902218 2.55214 1.03326C2.207 1.16776 1.91447 1.34826 1.62341 1.64037C1.33234 1.93248 1.15311 2.22522 1.01955 2.57088C0.89029 2.9051 0.802719 3.28688 0.778044 3.8458C0.753369 4.40471 0.747908 4.58437 0.750639 6.01007C0.753369 7.43576 0.759669 7.61447 0.786759 8.17454C0.813429 8.73304 0.90226 9.1144 1.0333 9.44799C1.16802 9.79312 1.3483 10.0855 1.64052 10.3767C1.93274 10.6679 2.22527 10.8467 2.57178 10.9805C2.90568 11.1095 3.28757 11.1975 3.84639 11.222C4.4052 11.2464 4.58507 11.2521 6.01035 11.2494C7.43564 11.2466 7.61508 11.2403 8.17505 11.2138C8.73502 11.1872 9.11439 11.0978 9.44809 10.9673C9.79322 10.8323 10.0859 10.6523 10.3768 10.36C10.6678 10.0677 10.8469 9.77475 10.9804 9.42888C11.1097 9.09498 11.1976 8.71309 11.2219 8.1547C11.2463 7.59431 11.2521 7.41539 11.2494 5.98991C11.2466 4.56442 11.2402 4.38571 11.2137 3.82585C11.1871 3.26599 11.0982 2.88578 10.9672 2.55198C10.8323 2.20685 10.6522 1.91463 10.3601 1.62326C10.068 1.33188 9.77485 1.15285 9.42908 1.01971C9.09497 0.890458 8.71329 0.802362 8.15447 0.778212C7.59566 0.754062 7.41579 0.747867 5.98998 0.750597C4.56417 0.753327 4.38567 0.759417 3.8257 0.786717ZM3.88702 10.2775C3.37514 10.2552 3.0972 10.1702 2.91198 10.099C2.6667 10.0045 2.49198 9.89025 2.30738 9.70744C2.12279 9.52464 2.00939 9.34929 1.91363 9.10453C1.8417 8.91931 1.75508 8.64169 1.73114 8.12981C1.7051 7.57657 1.69964 7.41046 1.69659 6.00881C1.69355 4.60716 1.6989 4.44126 1.72316 3.8878C1.745 3.37634 1.83057 3.09809 1.90166 2.91297C1.99616 2.66738 2.10998 2.49297 2.29321 2.30849C2.47644 2.124 2.65126 2.01039 2.89623 1.91463C3.08124 1.84239 3.35887 1.7565 3.87054 1.73214C4.42421 1.70589 4.59011 1.70064 5.99156 1.6976C7.39301 1.69455 7.55933 1.6998 8.11321 1.72416C8.62467 1.74642 8.90303 1.83116 9.08793 1.90266C9.33332 1.99716 9.50794 2.11067 9.69242 2.29421C9.87691 2.47775 9.99063 2.65194 10.0864 2.89743C10.1587 3.08192 10.2446 3.35944 10.2688 3.87142C10.2951 4.42509 10.3011 4.59109 10.3036 5.99243C10.3062 7.39376 10.3012 7.56019 10.277 8.11343C10.2546 8.62531 10.1698 8.90335 10.0985 9.08878C10.004 9.33396 9.89004 9.50878 9.7067 9.69316C9.52337 9.87754 9.34875 9.99115 9.10368 10.0869C8.91888 10.159 8.64094 10.2451 8.12969 10.2695C7.57602 10.2956 7.41012 10.301 6.00815 10.3041C4.60617 10.3071 4.4408 10.3014 3.88713 10.2775M8.16697 3.19406C8.16718 3.31867 8.20433 3.44042 8.27374 3.54392C8.34315 3.64741 8.44169 3.72799 8.5569 3.77548C8.67211 3.82296 8.79881 3.83521 8.92099 3.81068C9.04316 3.78616 9.15532 3.72595 9.24327 3.63767C9.33122 3.5494 9.39102 3.43702 9.4151 3.31476C9.43919 3.1925 9.42647 3.06584 9.37856 2.9508C9.33065 2.83577 9.24971 2.73753 9.14596 2.6685C9.04221 2.59947 8.92033 2.56276 8.79571 2.56301C8.62866 2.56334 8.46858 2.63001 8.35068 2.74835C8.23277 2.86669 8.16669 3.02701 8.16697 3.19406ZM3.30437 6.00524C3.30731 7.49414 4.5165 8.69839 6.0051 8.69555C7.4937 8.69272 8.6988 7.48364 8.69596 5.99474C8.69313 4.50583 7.48362 3.30127 5.99481 3.30421C4.506 3.30715 3.30153 4.51654 3.30437 6.00524ZM4.25001 6.00335C4.24932 5.65722 4.35129 5.31867 4.54302 5.03049C4.73475 4.74232 5.00763 4.51747 5.32714 4.38439C5.64666 4.2513 5.99847 4.21594 6.33808 4.2828C6.67769 4.34965 6.98985 4.51571 7.23508 4.75997C7.48031 5.00423 7.64761 5.31573 7.7158 5.65507C7.784 5.99441 7.75004 6.34635 7.61822 6.66639C7.4864 6.98643 7.26263 7.26019 6.97522 7.45306C6.6878 7.64593 6.34965 7.74924 6.00353 7.74992C5.7737 7.7504 5.54603 7.70561 5.33351 7.61809C5.121 7.53057 4.92781 7.40205 4.76498 7.23986C4.60214 7.07767 4.47285 6.88499 4.38449 6.67283C4.29613 6.46066 4.25044 6.23317 4.25001 6.00335Z" fill="black"/>
</g>
<defs>
<clipPath id="clip0_3_412">
<rect width="12" height="12" fill="white"/>
</clipPath>
</defs>
</svg>
