<svg width="12" height="12" viewBox="0 0 12 12" fill="none" xmlns="http://www.w3.org/2000/svg">
<path d="M6.01584 6.0045C6.01584 5.27709 5.66864 4.81625 5.12453 4.81625C4.57832 4.81625 4.23321 5.2771 4.23321 6.0045C4.23321 6.72965 4.5783 7.19049 5.12453 7.19049C5.66863 7.19049 6.01584 6.72964 6.01584 6.0045Z" fill="black"/>
<path fill-rule="evenodd" clip-rule="evenodd" d="M3.375 1.125C2.13236 1.125 1.125 2.13236 1.125 3.375V8.625C1.125 9.86764 2.13236 10.875 3.375 10.875H8.625C9.86764 10.875 10.875 9.86764 10.875 8.625V3.375C10.875 2.13236 9.86764 1.125 8.625 1.125H3.375ZM3.36932 7.63325H2.84214V5.23871H3.36932V7.63325ZM3.39896 4.61973C3.39896 4.78915 3.26981 4.92469 3.10467 4.92469C2.94165 4.92469 2.8125 4.78915 2.8125 4.61973C2.8125 4.44804 2.94165 4.3125 3.10467 4.3125C3.26981 4.3125 3.39896 4.44804 3.39896 4.61973ZM3.67425 6.00451C3.67425 4.9676 4.23321 4.31926 5.12453 4.31926C6.01378 4.31926 6.57269 4.9676 6.57269 6.00451C6.57269 7.04141 6.01373 7.6875 5.12453 7.6875C4.23316 7.6875 3.67425 7.04141 3.67425 6.00451ZM7.9828 7.68749C7.2799 7.68749 6.81836 7.31702 6.79507 6.7161L7.32439 6.71612C7.35827 7.01658 7.63983 7.21311 8.01246 7.21311C8.38082 7.21311 8.637 7.01883 8.637 6.74775C8.637 6.51281 8.48033 6.37727 8.095 6.28014L7.69909 6.18074C7.13595 6.04292 6.86918 5.75377 6.86918 5.28841C6.86918 4.71009 7.34132 4.31928 8.00613 4.31928C8.67937 4.31928 9.12398 4.70785 9.13668 5.28164H8.61586C8.59044 4.97668 8.35122 4.79369 8.00188 4.79369C7.65679 4.79369 7.4239 4.97441 7.4239 5.2455C7.4239 5.46236 7.57845 5.58887 7.95319 5.68374L8.30464 5.76959C8.92497 5.92093 9.1875 6.19427 9.1875 6.67996C9.1875 7.29893 8.72171 7.68749 7.9828 7.68749Z" fill="black"/>
</svg>
