<svg width="16" height="16" viewBox="0 0 16 16" fill="none" xmlns="http://www.w3.org/2000/svg">
<path d="M8.02112 8.00599C8.02112 7.03612 7.55819 6.42166 6.83271 6.42166C6.10442 6.42166 5.64429 7.03613 5.64429 8.00599C5.64429 8.97286 6.10441 9.58732 6.83271 9.58732C7.55817 9.58732 8.02112 8.97285 8.02112 8.00599Z" fill="black"/>
<path fill-rule="evenodd" clip-rule="evenodd" d="M4.5 1.5C2.84315 1.5 1.5 2.84315 1.5 4.5V11.5C1.5 13.1569 2.84315 14.5 4.5 14.5H11.5C13.1569 14.5 14.5 13.1569 14.5 11.5V4.5C14.5 2.84315 13.1569 1.5 11.5 1.5H4.5ZM4.49242 10.1777H3.78952V6.98495H4.49242V10.1777ZM4.53194 6.15964C4.53194 6.38553 4.35975 6.56625 4.13956 6.56625C3.9222 6.56625 3.75 6.38554 3.75 6.15964C3.75 5.93073 3.9222 5.75 4.13956 5.75C4.35975 5.75 4.53194 5.93072 4.53194 6.15964ZM4.899 8.00601C4.899 6.62347 5.64429 5.75901 6.83271 5.75901C8.01838 5.75901 8.76359 6.62347 8.76359 8.00601C8.76359 9.38855 8.0183 10.25 6.83271 10.25C5.64421 10.25 4.899 9.38855 4.899 8.00601ZM10.6437 10.25C9.70654 10.25 9.09115 9.75603 9.0601 8.95481L9.76585 8.95483C9.81102 9.35543 10.1864 9.61748 10.6833 9.61748C11.1744 9.61748 11.516 9.35844 11.516 8.997C11.516 8.68375 11.3071 8.50303 10.7933 8.37351L10.2655 8.24098C9.5146 8.05723 9.15891 7.67169 9.15891 7.05121C9.15891 6.28012 9.78842 5.75904 10.6748 5.75904C11.5725 5.75904 12.1653 6.27713 12.1822 7.04219H11.4878C11.4539 6.63557 11.135 6.39159 10.6692 6.39159C10.209 6.39159 9.89853 6.63255 9.89853 6.99399C9.89853 7.28315 10.1046 7.45182 10.6043 7.57832L11.0729 7.69278C11.9 7.89457 12.25 8.25903 12.25 8.90661C12.25 9.73191 11.6289 10.25 10.6437 10.25Z" fill="black"/>
</svg>
