<svg width="12" height="12" viewBox="0 0 12 12" fill="none" xmlns="http://www.w3.org/2000/svg">
<path fill-rule="evenodd" clip-rule="evenodd" d="M4.15653 3.87948C4.23249 3.95544 4.23249 4.07859 4.15653 4.15455C4.08057 4.2305 3.95742 4.2305 3.88147 4.15455C3.80551 4.07859 3.80551 3.95544 3.88147 3.87948C3.95742 3.80353 4.08057 3.80353 4.15653 3.87948Z" stroke="black" stroke-linecap="round" stroke-linejoin="round"/>
<path fill-rule="evenodd" clip-rule="evenodd" d="M3.622 1.51251L5.0465 1.50001C5.312 1.49751 5.5675 1.60251 5.7555 1.79001L10.2075 6.24401C10.598 6.63451 10.598 7.26801 10.2075 7.65851L7.6605 10.207C7.27 10.598 6.636 10.598 6.2455 10.207L1.79 5.75001C1.6045 5.56451 1.5 5.31251 1.5 5.04951V3.64351C1.5 3.38051 1.6045 3.12851 1.79 2.94301L2.93 1.80251C3.114 1.61851 3.3625 1.51451 3.622 1.51251Z" stroke="black" stroke-linecap="round" stroke-linejoin="round"/>
</svg>
