<svg width="12" height="12" viewBox="0 0 12 12" fill="none" xmlns="http://www.w3.org/2000/svg">
<path d="M6 11C6.27614 11 6.5 10.7761 6.5 10.5C6.5 10.2239 6.27614 10 6 10V10.5V11ZM8 2.5C8 2.77614 8.22386 3 8.5 3C8.77614 3 9 2.77614 9 2.5H8.5H8ZM9 2.4375C9 2.16136 8.77614 1.9375 8.5 1.9375C8.22386 1.9375 8 2.16136 8 2.4375H8.5H9ZM8 2.5625C8 2.83864 8.22386 3.0625 8.5 3.0625C8.77614 3.0625 9 2.83864 9 2.5625H8.5H8ZM6 10.5V10H3.5V10.5V11H6V10.5ZM3.5 10.5V10C3.22386 10 3 9.77614 3 9.5H2.5H2C2 10.3284 2.67157 11 3.5 11V10.5ZM2.5 9.5H3V2.5H2.5H2V9.5H2.5ZM2.5 2.5H3C3 2.22386 3.22386 2 3.5 2V1.5V1C2.67157 1 2 1.67157 2 2.5H2.5ZM3.5 1.5V2H7.5V1.5V1H3.5V1.5ZM7.5 1.5V2C7.77614 2 8 2.22386 8 2.5H8.5H9C9 1.67157 8.32843 1 7.5 1V1.5ZM8.5 2.4375H8V2.5625H8.5H9V2.4375H8.5ZM8.1 4.25V4.75H8.9V4.25V3.75H8.1V4.25ZM9.5 4.85H9V9.9H9.5H10V4.85H9.5ZM8.9 10.5V10H8.1V10.5V11H8.9V10.5ZM7.5 9.9H8V4.85H7.5H7V9.9H7.5ZM8.1 10.5V10C8.04477 10 8 9.95523 8 9.9H7.5H7C7 10.5075 7.49249 11 8.1 11V10.5ZM9.5 9.9H9C9 9.95523 8.95523 10 8.9 10V10.5V11C9.50751 11 10 10.5075 10 9.9H9.5ZM8.9 4.25V4.75C8.95523 4.75 9 4.79477 9 4.85H9.5H10C10 4.24249 9.50751 3.75 8.9 3.75V4.25ZM8.1 4.25V3.75C7.49249 3.75 7 4.24249 7 4.85H7.5H8C8 4.79477 8.04477 4.75 8.1 4.75V4.25ZM9.5 8.5H9V9.9H9.5H10V8.5H9.5ZM7.5 9.9H8V8.5H7.5H7V9.9H7.5ZM9.5 8.5H10C10 7.67157 9.32843 7 8.5 7V7.5V8C8.77614 8 9 8.22386 9 8.5H9.5ZM7.5 8.5H8C8 8.22386 8.22386 8 8.5 8V7.5V7C7.67157 7 7 7.67157 7 8.5H7.5Z" fill="black"/>
</svg>
