<svg width="12" height="12" viewBox="0 0 12 12" fill="none" xmlns="http://www.w3.org/2000/svg">
<path d="M7.235 4.765L9.18 2.82M2.82 9.18L4.765 7.235M4.765 4.765L2.82 2.82M9.18 9.18L7.235 7.235M6 1.5C5.40905 1.5 4.82389 1.6164 4.27792 1.84254C3.73196 2.06869 3.23588 2.40016 2.81802 2.81802C2.40016 3.23588 2.06869 3.73196 1.84254 4.27792C1.6164 4.82389 1.5 5.40905 1.5 6C1.5 6.59095 1.6164 7.17611 1.84254 7.72208C2.06869 8.26804 2.40016 8.76412 2.81802 9.18198C3.23588 9.59984 3.73196 9.93131 4.27792 10.1575C4.82389 10.3836 5.40905 10.5 6 10.5C6.59095 10.5 7.17611 10.3836 7.72208 10.1575C8.26804 9.93131 8.76412 9.59984 9.18198 9.18198C9.59984 8.76412 9.93131 8.26804 10.1575 7.72208C10.3836 7.17611 10.5 6.59095 10.5 6C10.5 5.40905 10.3836 4.82389 10.1575 4.27792C9.93131 3.73196 9.59984 3.23588 9.18198 2.81802C8.76412 2.40016 8.26804 2.06869 7.72208 1.84254C7.17611 1.6164 6.59095 1.5 6 1.5ZM6 4.25C5.77019 4.25 5.54262 4.29526 5.3303 4.38321C5.11798 4.47116 4.92507 4.60006 4.76256 4.76256C4.60006 4.92507 4.47116 5.11798 4.38321 5.3303C4.29527 5.54262 4.25 5.77019 4.25 6C4.25 6.22981 4.29527 6.45738 4.38321 6.6697C4.47116 6.88202 4.60006 7.07493 4.76256 7.23744C4.92507 7.39994 5.11798 7.52884 5.3303 7.61679C5.54262 7.70474 5.77019 7.75 6 7.75C6.22981 7.75 6.45738 7.70474 6.6697 7.61679C6.88202 7.52884 7.07493 7.39994 7.23744 7.23744C7.39994 7.07493 7.52884 6.88202 7.61679 6.6697C7.70474 6.45738 7.75 6.22981 7.75 6C7.75 5.77019 7.70474 5.54262 7.61679 5.3303C7.52884 5.11798 7.39994 4.92507 7.23744 4.76256C7.07493 4.60006 6.88202 4.47116 6.6697 4.38321C6.45738 4.29526 6.22981 4.25 6 4.25Z" stroke="black" stroke-linecap="round" stroke-linejoin="round"/>
</svg>
