<svg width="12" height="12" viewBox="0 0 12 12" fill="none" xmlns="http://www.w3.org/2000/svg">
<g clip-path="url(#clip0_3_422)">
<path fill-rule="evenodd" clip-rule="evenodd" d="M10.0833 11.25H1.91667C1.27233 11.25 0.75 10.7277 0.75 10.0833V1.91667C0.75 1.27233 1.27233 0.75 1.91667 0.75H10.0833C10.7277 0.75 11.25 1.27233 11.25 1.91667V10.0833C11.25 10.7277 10.7277 11.25 10.0833 11.25ZM8.23349 9.79169H9.79163V6.59082C9.79163 5.2365 9.02392 4.58167 7.95159 4.58167C6.87876 4.58167 6.42727 5.41711 6.42727 5.41711V4.73613H4.92566V9.79169H6.42727V7.13783C6.42727 6.42674 6.7546 6.0036 7.38111 6.0036C7.95702 6.0036 8.23349 6.41021 8.23349 7.13783V9.79169ZM2.2083 3.14125C2.2083 3.65643 2.62276 4.07414 3.13424 4.07414C3.64572 4.07414 4.05994 3.65643 4.05994 3.14125C4.05994 2.62607 3.64572 2.20835 3.13424 2.20835C2.62276 2.20835 2.2083 2.62607 2.2083 3.14125ZM3.92467 9.79169H2.35888V4.73613H3.92467V9.79169Z" fill="black"/>
</g>
<defs>
<clipPath id="clip0_3_422">
<rect width="12" height="12" fill="white"/>
</clipPath>
</defs>
</svg>
