<svg width="12" height="12" viewBox="0 0 12 12" fill="none" xmlns="http://www.w3.org/2000/svg">
<path d="M7.06303 8.63099L6.33453 9.35949C6.08509 9.60912 5.78889 9.80715 5.46288 9.94226C5.13687 10.0774 4.78743 10.1469 4.43453 10.1469C4.08163 10.1469 3.73219 10.0774 3.40618 9.94226C3.08017 9.80715 2.78397 9.60912 2.53453 9.35949C2.28496 9.11001 2.08698 8.81381 1.95191 8.4878C1.81684 8.1618 1.74731 7.81237 1.74731 7.45949C1.74731 7.10661 1.81684 6.75719 1.95191 6.43118C2.08698 6.10517 2.28496 5.80897 2.53453 5.55949L3.26503 4.83299M4.44753 7.44849L7.55253 4.34349M4.93703 3.16099L5.66553 2.43249C5.91491 2.18274 6.21108 1.98461 6.5371 1.84942C6.86312 1.71424 7.21259 1.64465 7.56553 1.64465C7.91847 1.64465 8.26794 1.71424 8.59396 1.84942C8.91998 1.98461 9.21615 2.18274 9.46553 2.43249C9.71516 2.68194 9.91319 2.97813 10.0483 3.30414C10.1834 3.63015 10.253 3.97959 10.253 4.33249C10.253 4.68539 10.1834 5.03483 10.0483 5.36084C9.91319 5.68685 9.71516 5.98305 9.46553 6.23249L8.73503 6.95899" stroke="black" stroke-linecap="round" stroke-linejoin="round"/>
</svg>
