<svg width="12" height="12" viewBox="0 0 12 12" fill="none" xmlns="http://www.w3.org/2000/svg">
<path d="M7.90184 11.16C8.33384 11.16 8.74184 10.896 8.99384 10.56C9.29384 10.176 10.2898 9.99603 10.2898 9.50403C10.2898 9.26403 10.0978 9.09603 9.96584 8.90403C9.78584 8.68803 9.86984 8.30403 9.60584 8.07603C9.55784 8.02803 9.48584 7.99203 9.43784 7.95603C9.48584 7.76403 9.52184 7.54803 9.52184 7.34403C9.52184 5.55603 7.74584 4.76403 7.74584 3.46803V3.08403C7.74584 1.99203 7.56584 0.840027 6.20984 0.840027C5.03384 0.840027 4.60184 1.50003 4.60184 2.60403C4.60184 2.91603 4.64984 3.21603 4.64984 3.51603C4.64984 5.01603 2.68184 5.97603 2.88584 7.81203C2.76584 7.94403 2.66984 8.10003 2.54984 8.23203C2.30984 8.47203 1.75784 8.36403 1.75784 8.97603C1.75784 9.14403 1.82984 9.31203 1.82984 9.49203C1.82984 9.67203 1.70984 9.85203 1.70984 10.056C1.70984 10.308 1.86584 10.476 2.10584 10.536C2.52584 10.656 2.96984 10.596 3.37784 10.8C3.66584 10.944 3.95384 11.04 4.26584 11.04C4.56584 11.04 5.00984 10.896 5.09384 10.56C5.41784 10.524 5.71784 10.416 6.04184 10.416C6.37784 10.416 6.71384 10.524 7.06184 10.5C7.18184 10.908 7.46984 11.16 7.90184 11.16ZM1.96184 10.044C1.96184 9.85203 2.05784 9.69603 2.05784 9.49203C2.05784 9.31203 1.99784 9.14403 1.99784 8.96403C1.99784 8.90403 2.00984 8.85603 2.03384 8.80803C2.16584 8.56803 2.52584 8.59203 2.71784 8.40003C2.80184 8.31603 2.87384 8.19603 2.95784 8.10003C3.04184 8.00403 3.07784 7.94403 3.22184 7.92003C3.46184 7.92003 3.58184 8.01603 3.72584 8.22003C3.88184 8.43603 3.98984 8.68803 4.10984 8.91603C4.20584 9.09603 4.33784 9.26403 4.45784 9.42003C4.61384 9.64803 4.92584 9.96003 4.92584 10.248C4.92584 10.596 4.62584 10.8 4.28984 10.8C4.01384 10.8 3.74984 10.716 3.48584 10.596C3.20984 10.452 2.88584 10.404 2.57384 10.368C2.41784 10.344 2.08184 10.332 1.98584 10.188C1.96184 10.14 1.96184 10.092 1.96184 10.044ZM3.54584 7.11603C3.54584 6.58803 3.85784 5.98803 4.13384 5.54403C3.98984 6.06003 3.66584 6.31203 3.66584 6.92403C3.66584 7.17603 3.74984 7.41603 3.89384 7.60803C3.92984 6.36003 4.85384 5.38803 4.94984 4.15203C5.15384 4.34403 5.46584 4.58403 5.76584 4.58403C6.04184 4.58403 6.76184 4.18803 6.96584 3.98403C7.13384 4.63203 7.38584 5.29203 7.69784 5.88003C7.91384 6.28803 8.08184 6.72003 8.16584 7.17603C8.24984 7.16403 8.30984 7.18803 8.38184 7.20003C8.44184 7.05603 8.46584 6.90003 8.46584 6.75603C8.46584 6.06003 7.86584 5.41203 7.86584 5.38803C7.86584 5.38803 7.85384 5.37603 7.86584 5.36403C8.27384 5.72403 8.60984 6.36003 8.60984 6.91203C8.60984 7.03203 8.60984 7.14003 8.57384 7.26003C8.78984 7.30803 9.22184 7.60803 9.22184 7.86003L9.20984 7.92003L9.12584 7.90803L9.13784 7.86003C9.13784 7.56003 8.44184 7.33203 8.18984 7.33203C8.02184 7.33203 7.92584 7.48803 7.90184 7.63203L7.78184 7.69203H7.76984C7.33784 7.93203 7.34984 8.59203 7.32584 9.03603C7.31384 9.19203 7.22984 9.50403 7.16984 9.67203C6.79784 9.90003 6.36584 10.068 5.92184 10.068C5.60984 10.068 5.29784 9.98403 5.03384 9.81603C4.93784 9.66003 4.85384 9.50403 4.72184 9.37203C4.87784 9.33603 5.00984 9.27603 5.00984 9.09603C5.00984 8.29203 3.54584 8.13603 3.54584 7.11603ZM4.82984 2.88003C4.82984 2.67603 4.93784 2.37603 5.16584 2.37603C5.44184 2.37603 5.56184 2.74803 5.56184 2.96403V3.01203C5.47784 3.02403 5.40584 3.06003 5.34584 3.09603C5.34584 3.00003 5.30984 2.74803 5.15384 2.74803C5.05784 2.74803 5.00984 2.91603 5.00984 3.00003C5.00984 3.09603 5.03384 3.21603 5.10584 3.30003C5.08184 3.31203 5.00984 3.37203 4.97384 3.39603C4.85384 3.25203 4.82984 3.06003 4.82984 2.88003ZM4.84184 3.75603C4.84184 3.62403 5.18984 3.39603 5.21384 3.40803C5.34584 3.26403 5.51384 3.13203 5.75384 3.13203C5.94584 3.13203 6.91784 3.50403 6.91784 3.69603C6.91784 3.94803 6.66584 4.06803 6.46184 4.14003C6.18584 4.24803 6.08984 4.44003 5.75384 4.44003C5.52584 4.44003 4.84184 3.98403 4.84184 3.75603ZM4.92584 3.79203C5.17784 3.92403 5.42984 4.18803 5.69384 4.18803C6.11384 4.18803 6.59384 3.75603 6.74984 3.75603L6.73784 3.67203C6.52184 3.67203 6.12584 4.09203 5.68184 4.09203C5.46584 4.09203 5.20184 3.81603 4.92584 3.68403V3.79203ZM5.93384 3.00003C5.93384 2.70003 6.05384 2.26803 6.42584 2.26803C6.74984 2.26803 6.95384 2.61603 6.95384 2.90403C6.95384 3.07203 6.90584 3.24003 6.80984 3.37203C6.72584 3.36003 6.64184 3.30003 6.55784 3.27603C6.60584 3.19203 6.61784 3.08403 6.61784 2.98803C6.61784 2.85603 6.55784 2.66403 6.38984 2.66403C6.18584 2.66403 6.16184 2.94003 6.16184 3.09603C6.07784 3.04803 6.00584 3.01203 5.93384 3.00003ZM7.27784 10.308C7.27784 9.88803 7.54184 9.48003 7.56584 9.03603C7.56584 8.71203 7.58984 8.24403 7.78184 7.96803C7.82984 7.94403 7.86584 7.92003 7.88984 7.89603C7.96184 8.14803 8.04584 8.43603 8.36984 8.43603C8.57384 8.43603 8.84984 8.30403 8.98184 8.16003H9.08984C9.17384 8.16003 9.26984 8.16003 9.35384 8.19603C9.38984 8.19603 9.42584 8.22003 9.44984 8.24403C9.64184 8.37603 9.59384 8.85603 9.78584 9.07203C9.89384 9.19203 10.0498 9.34803 10.0498 9.51603C10.0498 9.70803 9.06584 10.104 8.80184 10.428C8.58584 10.692 8.27384 10.92 7.91384 10.92C7.56584 10.92 7.27784 10.668 7.27784 10.308Z" fill="black"/>
</svg>
