<svg width="12" height="12" viewBox="0 0 12 12" fill="none" xmlns="http://www.w3.org/2000/svg">
<path d="M4 2L4.65 1.1875C4.745 1.0675 4.885 1 5.04 1H6.955C7.105 1 7.25 1.065 7.345 1.1875L7.99 2V2.5C7.99 2.775 7.765 3 7.49 3H4.49C4.21 3 3.99 2.775 3.99 2.5V2H4ZM4 2L3 2C2.445 2 2 2.445 2 3V9.5C2 10.05 2.445 10.5 3 10.5H6M10 6V3C10 2.445 9.55 2 9 2H8M9.1895 8.9505C9.2145 8.9755 9.2145 9.0205 9.1895 9.0505C9.1595 9.0755 9.1145 9.0755 9.0845 9.0505C9.0545 9.0205 9.0545 8.9755 9.0845 8.9455C9.1095 8.9155 9.1545 8.9155 9.1845 8.9455M4 6.75H6.5M4 5H8M4 8.5H5M7.38 9.345C7.24 9.135 7.24 8.86 7.38 8.655C7.8 8.01 8.47 7.495 9.1365 7.495C9.8015 7.495 10.4665 8.005 10.8915 8.65C11.0265 8.855 11.0265 9.13 10.8915 9.34C10.4665 9.981 9.7965 10.495 9.1315 10.495C8.4615 10.495 7.7965 9.98 7.375 9.34L7.38 9.345Z" stroke="black" stroke-linecap="round" stroke-linejoin="round"/>
</svg>
