<svg width="16" height="16" viewBox="0 0 16 16" fill="none" xmlns="http://www.w3.org/2000/svg">
<path d="M5.33335 2.66665L6.20002 1.58331C6.32669 1.42331 6.51335 1.33331 6.72002 1.33331H9.27335C9.47335 1.33331 9.66669 1.41998 9.79335 1.58331L10.6534 2.66665V3.33331C10.6534 3.69998 10.3534 3.99998 9.98669 3.99998H5.98669C5.61335 3.99998 5.32002 3.69998 5.32002 3.33331V2.66665H5.33335ZM5.33335 2.66665L4.00002 2.66665C3.26002 2.66665 2.66669 3.25998 2.66669 3.99998V12.6666C2.66669 13.4 3.26002 14 4.00002 14H8.00002M13.3334 7.99998V3.99998C13.3334 3.25998 12.7334 2.66665 12 2.66665H10.6667M12.2527 11.934C12.286 11.9673 12.286 12.0273 12.2527 12.0673C12.2127 12.1006 12.1527 12.1006 12.1127 12.0673C12.0727 12.0273 12.0727 11.9673 12.1127 11.9273C12.146 11.8873 12.206 11.8873 12.246 11.9273M5.33335 8.99998H8.66669M5.33335 6.66665H10.6667M5.33335 11.3333H6.66669M9.84002 12.46C9.65335 12.18 9.65335 11.8133 9.84002 11.54C10.4 10.68 11.2934 9.99331 12.182 9.99331C13.0687 9.99331 13.9554 10.6733 14.522 11.5333C14.702 11.8066 14.702 12.1733 14.522 12.4533C13.9554 13.308 13.062 13.9933 12.1754 13.9933C11.282 13.9933 10.3954 13.3066 9.83335 12.4533L9.84002 12.46Z" stroke="black" stroke-width="1.3" stroke-linecap="round" stroke-linejoin="round"/>
</svg>
