<svg width="16" height="16" viewBox="0 0 16 16" fill="none" xmlns="http://www.w3.org/2000/svg">
<path d="M5.33335 2.66671L6.20002 1.58337C6.32669 1.42337 6.51335 1.33337 6.72002 1.33337H9.27335C9.47335 1.33337 9.66669 1.42004 9.79335 1.58337L10.6534 2.66671V3.33337C10.6534 3.70004 10.3534 4.00004 9.98669 4.00004H5.98669C5.61335 4.00004 5.32002 3.70004 5.32002 3.33337V2.66671H5.33335ZM5.33335 2.66671L4.00002 2.66671C3.26002 2.66671 2.66669 3.26004 2.66669 4.00004V12.6667C2.66669 13.4 3.26002 14 4.00002 14H8.00002M13.3334 8.00004V4.00004C13.3334 3.26004 12.7334 2.66671 12 2.66671H10.6667M12.2527 11.934C12.286 11.9674 12.286 12.0274 12.2527 12.0674C12.2127 12.1007 12.1527 12.1007 12.1127 12.0674C12.0727 12.0274 12.0727 11.9674 12.1127 11.9274C12.146 11.8874 12.206 11.8874 12.246 11.9274M5.33335 9.00004H8.66669M5.33335 6.66671H10.6667M5.33335 11.3334H6.66669M9.84002 12.46C9.65335 12.18 9.65335 11.8134 9.84002 11.54C10.4 10.68 11.2934 9.99337 12.182 9.99337C13.0687 9.99337 13.9554 10.6734 14.522 11.5334C14.702 11.8067 14.702 12.1734 14.522 12.4534C13.9554 13.308 13.062 13.9934 12.1754 13.9934C11.282 13.9934 10.3954 13.3067 9.83335 12.4534L9.84002 12.46Z" stroke="black" stroke-width="1.3" stroke-linecap="round" stroke-linejoin="round"/>
</svg>
