<svg width="16" height="16" viewBox="0 0 16 16" fill="none" xmlns="http://www.w3.org/2000/svg">
<path d="M5.77227 8.68492C5.77227 8.8308 5.89698 8.92302 6.08407 8.92302C6.32831 8.92302 6.52406 8.76541 6.52406 8.55079V8.41498L6.09966 8.44013C5.89179 8.45354 5.77227 8.54408 5.77227 8.68492Z" fill="black"/>
<path d="M10.905 8.00083C10.905 7.46093 10.6209 7.11888 10.1758 7.11888C9.72886 7.11888 9.4465 7.46094 9.4465 8.00083C9.4465 8.53906 9.72885 8.88111 10.1758 8.88111C10.6209 8.88111 10.905 8.53905 10.905 8.00083Z" fill="black"/>
<path fill-rule="evenodd" clip-rule="evenodd" d="M4.5 1.5C2.84315 1.5 1.5 2.84315 1.5 4.5V11.5C1.5 13.1569 2.84315 14.5 4.5 14.5H11.5C13.1569 14.5 14.5 13.1569 14.5 11.5V4.5C14.5 2.84315 13.1569 1.5 11.5 1.5H4.5ZM2.93134 9.20973H2.5V7.43243H2.914V7.74094H2.92266C3.00235 7.53471 3.19636 7.39889 3.4458 7.39889C3.70562 7.39889 3.89096 7.528 3.95852 7.75603H3.96891C4.05729 7.53638 4.27553 7.39889 4.54057 7.39889C4.90262 7.39889 5.13993 7.63531 5.13993 7.99077V9.20971H4.70861V8.09301C4.70861 7.87504 4.59081 7.75096 4.37948 7.75096C4.17161 7.75096 4.02957 7.89851 4.02957 8.11145V9.20969H3.61037V8.07123C3.61037 7.87338 3.48565 7.75098 3.28471 7.75098C3.07684 7.75098 2.93134 7.90692 2.93134 8.12153V9.20973ZM6.5258 8.92637C6.42013 9.11919 6.18973 9.23824 5.95415 9.23824C5.59905 9.23824 5.34096 9.02193 5.34096 8.70168C5.34096 8.38645 5.59213 8.19698 6.03904 8.17015L6.52408 8.14333V8.01589C6.52408 7.82978 6.39416 7.72247 6.1811 7.72247C5.9767 7.72247 5.84678 7.81805 5.81906 7.9656H5.41892C5.43799 7.63362 5.73071 7.39553 6.19842 7.39553C6.65399 7.39553 6.9502 7.62859 6.9502 7.98573V9.20974H6.53446V8.92637H6.5258ZM8.02946 7.39553C8.51443 7.39553 8.81411 7.69234 8.84359 8.06621L8.43652 8.06614C8.40187 7.87667 8.26503 7.73415 8.03464 7.73415C7.76268 7.73415 7.58773 7.95548 7.58773 8.321C7.58773 8.69324 7.76441 8.90786 8.0381 8.90786C8.25636 8.90786 8.3984 8.78713 8.43824 8.58593H8.84532C8.81068 8.98332 8.4937 9.24489 8.03292 9.24489C7.49592 9.24489 7.14947 8.89785 7.14947 8.32105C7.14947 7.75267 7.49594 7.39553 8.02946 7.39553ZM8.98917 8.00084C8.98917 7.23122 9.4465 6.75 10.1758 6.75C10.9033 6.75 11.3606 7.23122 11.3606 8.00084C11.3606 8.77046 10.9033 9.25 10.1758 9.25C9.44646 9.25 8.98917 8.77046 8.98917 8.00084ZM12.5143 9.24999C11.9392 9.24999 11.5616 8.97502 11.5426 8.529L11.9756 8.52902C12.0034 8.75202 12.2337 8.89789 12.5386 8.89789C12.84 8.89789 13.0496 8.7537 13.0496 8.55249C13.0496 8.37811 12.9214 8.27751 12.6061 8.20542L12.2822 8.13164C11.8215 8.02935 11.6032 7.81473 11.6032 7.46933C11.6032 7.04008 11.9895 6.75001 12.5334 6.75001C13.0843 6.75001 13.448 7.03842 13.4584 7.4643H13.0323C13.0115 7.23795 12.8158 7.10214 12.53 7.10214C12.2476 7.10214 12.0571 7.23627 12.0571 7.43748C12.0571 7.59844 12.1835 7.69234 12.4901 7.76276L12.7777 7.82647C13.2852 7.9388 13.5 8.14169 13.5 8.50218C13.5 8.9616 13.1189 9.24999 12.5143 9.24999Z" fill="black"/>
</svg>
