<svg width="12" height="12" viewBox="0 0 12 12" fill="none" xmlns="http://www.w3.org/2000/svg">
<path d="M4.3292 6.51369C4.3292 6.6231 4.42274 6.69226 4.56305 6.69226C4.74623 6.69226 4.89304 6.57406 4.89304 6.41309V6.31123L4.57474 6.33009C4.41884 6.34015 4.3292 6.40806 4.3292 6.51369Z" fill="black"/>
<path d="M8.17876 6.00062C8.17876 5.5957 7.9657 5.33916 7.63182 5.33916C7.29664 5.33916 7.08488 5.5957 7.08488 6.00062C7.08488 6.40429 7.29664 6.66083 7.63182 6.66083C7.9657 6.66083 8.17876 6.40429 8.17876 6.00062Z" fill="black"/>
<path fill-rule="evenodd" clip-rule="evenodd" d="M3.375 1.125C2.13236 1.125 1.125 2.13236 1.125 3.375V8.625C1.125 9.86764 2.13236 10.875 3.375 10.875H8.625C9.86764 10.875 10.875 9.86764 10.875 8.625V3.375C10.875 2.13236 9.86764 1.125 8.625 1.125H3.375ZM2.1985 6.9073H1.875V5.57432H2.1855V5.80571H2.192C2.25176 5.65103 2.39727 5.54917 2.58435 5.54917C2.77921 5.54917 2.91822 5.646 2.96889 5.81702H2.97668C3.04297 5.65229 3.20665 5.54917 3.40542 5.54917C3.67696 5.54917 3.85495 5.72648 3.85495 5.99308V6.90728H3.53146V6.06976C3.53146 5.90628 3.44311 5.81322 3.28461 5.81322C3.12871 5.81322 3.02218 5.92388 3.02218 6.08359V6.90727H2.70778V6.05342C2.70778 5.90504 2.61424 5.81324 2.46353 5.81324C2.30763 5.81324 2.1985 5.93019 2.1985 6.09115V6.9073ZM4.89435 6.69478C4.8151 6.8394 4.6423 6.92868 4.46561 6.92868C4.19929 6.92868 4.00572 6.76644 4.00572 6.52626C4.00572 6.28984 4.19409 6.14774 4.52928 6.12761L4.89306 6.10749V6.01192C4.89306 5.87234 4.79562 5.79185 4.63582 5.79185C4.48252 5.79185 4.38508 5.86354 4.3643 5.9742H4.06419C4.07849 5.72522 4.29803 5.54665 4.64881 5.54665C4.99049 5.54665 5.21265 5.72144 5.21265 5.9893V6.9073H4.90085V6.69478H4.89435ZM6.02209 5.54665C6.38582 5.54665 6.61058 5.76925 6.63269 6.04966L6.32739 6.04961C6.3014 5.9075 6.19877 5.80061 6.02598 5.80061C5.82201 5.80061 5.6908 5.96661 5.6908 6.24075C5.6908 6.51993 5.8233 6.68089 6.02857 6.68089C6.19227 6.68089 6.2988 6.59035 6.32868 6.43945H6.63399C6.60801 6.73749 6.37028 6.93367 6.02469 6.93367C5.62194 6.93367 5.3621 6.67339 5.3621 6.24079C5.3621 5.8145 5.62195 5.54665 6.02209 5.54665ZM6.74188 6.00063C6.74188 5.42341 7.08488 5.0625 7.63182 5.0625C8.1775 5.0625 8.52046 5.42341 8.52046 6.00063C8.52046 6.57784 8.17746 6.9375 7.63182 6.9375C7.08484 6.9375 6.74188 6.57784 6.74188 6.00063ZM9.38576 6.93749C8.95443 6.93749 8.67121 6.73127 8.65692 6.39675L8.98173 6.39676C9.00252 6.56402 9.1753 6.67342 9.40395 6.67342C9.62999 6.67342 9.78719 6.56527 9.78719 6.41437C9.78719 6.28359 9.69106 6.20814 9.45461 6.15406L9.21166 6.09873C8.8661 6.02201 8.7024 5.86105 8.7024 5.602C8.7024 5.28006 8.99212 5.06251 9.40007 5.06251C9.8132 5.06251 10.086 5.27882 10.0938 5.59823H9.77422C9.75862 5.42846 9.61183 5.3266 9.39746 5.3266C9.1857 5.3266 9.04279 5.4272 9.04279 5.57811C9.04279 5.69883 9.13763 5.76925 9.36758 5.82207L9.58325 5.86985C9.9639 5.9541 10.125 6.10627 10.125 6.37663C10.125 6.7212 9.83917 6.93749 9.38576 6.93749Z" fill="black"/>
</svg>
