<svg width="16" height="16" viewBox="0 0 16 16" fill="none" xmlns="http://www.w3.org/2000/svg">
<path d="M9.99996 2.66589V5.99923M9.99996 9.99921V13.3325M12.3333 10H7.99996C6.89539 10 5.99996 9.10459 5.99996 8.00002C5.99996 6.89545 6.89539 6.00002 7.99996 6.00002H12.3333C12.8856 6.00002 13.3333 5.55231 13.3333 5.00002V3.66669C13.3333 3.1144 12.8856 2.66669 12.3333 2.66669H7.99996C5.05444 2.66669 2.66663 5.0545 2.66663 8.00002C2.66663 10.9455 5.05444 13.3334 7.99996 13.3334H12.3333C12.8856 13.3334 13.3333 12.8856 13.3333 12.3334V11C13.3333 10.4477 12.8856 10 12.3333 10Z" stroke="black" stroke-width="1.3" stroke-linecap="round" stroke-linejoin="round"/>
</svg>
