<svg width="12" height="12" viewBox="0 0 12 12" fill="none" xmlns="http://www.w3.org/2000/svg">
<path d="M7.5 1.99939V4.49939M7.5 7.49937V9.99937M9.25 7.49998H6C5.17157 7.49998 4.5 6.82841 4.5 5.99998C4.5 5.17156 5.17157 4.49998 6 4.49998H9.25C9.66421 4.49998 10 4.1642 10 3.74998V2.74998C10 2.33577 9.66421 1.99998 9.25 1.99998H6C3.79086 1.99998 2 3.79085 2 5.99998C2 8.20912 3.79086 9.99998 6 9.99998H9.25C9.66421 9.99998 10 9.6642 10 9.24998V8.24999C10 7.83577 9.66421 7.49998 9.25 7.49998Z" stroke="black" stroke-linecap="round" stroke-linejoin="round"/>
</svg>
