<svg width="12" height="12" viewBox="0 0 12 12" fill="none" xmlns="http://www.w3.org/2000/svg">
<path d="M7.4 8.99999H8.89999M7.4 7.49999H8.89999M1.5 5.99999H10.5M7.5 3.74999H9M3 3.74999H4.5M3.75 4.49999V2.99999M3.22 7.71999L4.28 8.77999M3.22 8.77999L4.28 7.71999M6 1.49999V10.5M10.5 9.32599C10.5 9.97099 9.97 10.496 9.325 10.496H2.67C2.02 10.496 1.495 9.96599 1.495 9.32099V2.66499C1.495 2.01499 2.02 1.48999 2.669 1.48999H9.319C9.964 1.48999 10.489 2.01499 10.489 2.66399V9.31399L10.5 9.32599Z" stroke="black" stroke-linecap="round" stroke-linejoin="round"/>
</svg>
