<svg width="16" height="16" viewBox="0 0 16 16" fill="none" xmlns="http://www.w3.org/2000/svg">
<path d="M9.86662 12H11.8666M9.86662 10H11.8666M1.99995 8.00003H14M9.99995 5.00003H12M3.99995 5.00003H5.99995M4.99995 6.00003V4.00003M4.29329 10.2934L5.70662 11.7067M4.29329 11.7067L5.70662 10.2934M7.99995 2.00003V14M14 12.4347C14 13.2947 13.2933 13.9947 12.4333 13.9947H3.55995C2.69329 13.9947 1.99329 13.288 1.99329 12.428V3.55336C1.99329 2.68669 2.69329 1.98669 3.55862 1.98669H12.4253C13.2853 1.98669 13.9853 2.68669 13.9853 3.55203V12.4187L14 12.4347Z" stroke="black" stroke-width="1.3" stroke-linecap="round" stroke-linejoin="round"/>
</svg>
