<svg width="12" height="12" viewBox="0 0 12 12" fill="none" xmlns="http://www.w3.org/2000/svg">
<path d="M3.06 6.89999L1.495 8.49999L2.74499 9.24999L3.49499 10.5L5.44 8.44999M6.55 8.45249L8.49499 10.4975L9.245 9.24749L10.495 8.49749L8.93 6.89749M8.47 2.52499C9.835 3.88999 9.835 6.10499 8.47 7.46999C7.1 8.83499 4.885 8.83499 3.52 7.46999C2.15 6.09999 2.15 3.88499 3.515 2.51999C4.88 1.14999 7.095 1.14999 8.46 2.51949M5.995 6.29199L6.89 6.76199C7.065 6.85199 7.265 6.70199 7.235 6.50699L7.06 5.50199L7.785 4.79199C7.925 4.65199 7.845 4.41199 7.65 4.38199L6.645 4.23199L6.195 3.31699C6.105 3.13699 5.855 3.13699 5.765 3.31699L5.315 4.22699L4.31 4.37199C4.1145 4.39699 4.035 4.63699 4.175 4.77699L4.9 5.48199L4.725 6.48199C4.69 6.67699 4.895 6.82199 5.07 6.73199L5.965 6.25699H5.96L5.995 6.29199Z" stroke="black" stroke-linecap="round" stroke-linejoin="round"/>
</svg>
