<svg width="12" height="12" viewBox="0 0 12 12" fill="none" xmlns="http://www.w3.org/2000/svg">
<path d="M3.5 7V10.495C3.5 10.63 3.61 10.74 3.75 10.74C3.785 10.735 3.82 10.73 3.85 10.715L5.995 9.735L8.14 10.71C8.265 10.765 8.41 10.71 8.47 10.585C8.48 10.55 8.49 10.515 8.49 10.48V6.925M6 1C5.07174 1 4.1815 1.36875 3.52513 2.02513C2.86875 2.6815 2.5 3.57174 2.5 4.5C2.5 5.42826 2.86875 6.3185 3.52513 6.97487C4.1815 7.63125 5.07174 8 6 8C6.92826 8 7.8185 7.63125 8.47487 6.97487C9.13125 6.3185 9.5 5.42826 9.5 4.5C9.5 3.57174 9.13125 2.6815 8.47487 2.02513C7.8185 1.36875 6.92826 1 6 1Z" stroke="black" stroke-linecap="round" stroke-linejoin="round"/>
</svg>
