<svg width="16" height="16" viewBox="0 0 16 16" fill="none" xmlns="http://www.w3.org/2000/svg">
<path d="M4.66671 9.33331V13.9933C4.66671 14.1733 4.81337 14.32 5.00004 14.32C5.04671 14.3133 5.09337 14.3066 5.13337 14.2866L7.99337 12.98L10.8534 14.28C11.02 14.3533 11.2134 14.28 11.2934 14.1133C11.3067 14.0666 11.32 14.02 11.32 13.9733V9.23331M8.00004 1.33331C6.76236 1.33331 5.57538 1.82498 4.70021 2.70015C3.82504 3.57532 3.33337 4.7623 3.33337 5.99998C3.33337 7.23766 3.82504 8.42464 4.70021 9.29981C5.57538 10.175 6.76236 10.6666 8.00004 10.6666C9.23772 10.6666 10.4247 10.175 11.2999 9.29981C12.175 8.42464 12.6667 7.23766 12.6667 5.99998C12.6667 4.7623 12.175 3.57532 11.2999 2.70015C10.4247 1.82498 9.23772 1.33331 8.00004 1.33331Z" stroke="black" stroke-width="1.3" stroke-linecap="round" stroke-linejoin="round"/>
</svg>
