<svg width="16" height="16" viewBox="0 0 16 16" fill="none" xmlns="http://www.w3.org/2000/svg">
<path d="M4.07995 9.20001L1.99329 11.3333L3.65995 12.3333L4.65995 14L7.25329 11.2667M8.73329 11.27L11.3266 13.9967L12.3266 12.33L13.9933 11.33L11.9066 9.19668M11.2933 3.36668C13.1133 5.18668 13.1133 8.14001 11.2933 9.96001C9.46662 11.78 6.51329 11.78 4.69329 9.96001C2.86662 8.13335 2.86662 5.18001 4.68662 3.36001C6.50662 1.53335 9.45995 1.53335 11.28 3.35935M7.99329 8.38935L9.18662 9.01601C9.41995 9.13601 9.68662 8.93601 9.64662 8.67601L9.41329 7.33601L10.38 6.38935C10.5666 6.20268 10.46 5.88268 10.2 5.84268L8.85995 5.64268L8.25995 4.42268C8.13995 4.18268 7.80662 4.18268 7.68662 4.42268L7.08662 5.63601L5.74662 5.82935C5.48595 5.86268 5.37995 6.18268 5.56662 6.36935L6.53329 7.30935L6.29995 8.64268C6.25329 8.90268 6.52662 9.09601 6.75995 8.97601L7.95329 8.34268H7.94662L7.99329 8.38935Z" stroke="black" stroke-width="1.3" stroke-linecap="round" stroke-linejoin="round"/>
</svg>
