<svg width="12" height="12" viewBox="0 0 12 12" fill="none" xmlns="http://www.w3.org/2000/svg">
<g clip-path="url(#clip0_805_1619)">
<path d="M3.53896 10.904C4.88896 10.904 5.98896 9.804 5.98896 8.452C5.98496 7.098 4.88496 6 3.53496 6C2.17996 6 1.08296 7.095 1.08296 8.452M3.54146 10.9065C3.17146 10.9065 2.82146 10.8215 2.50646 10.6765L0.99646 10.9965L1.31146 9.4815C1.16146 9.1665 1.08146 8.8115 1.08146 8.4415M3.27846 6.01C3.09846 5.595 2.99846 5.15 2.99846 4.68C2.99846 2.67 4.79346 1.06 6.99846 1.06C9.19846 1.06 10.9985 2.67 10.9985 4.68C10.9985 5.865 10.3635 6.912 9.39846 7.571C9.39846 7.946 9.39346 8.456 9.39346 8.991L7.82346 8.216C7.55346 8.266 7.27346 8.291 6.98846 8.291C6.63346 8.291 6.28846 8.246 5.96346 8.166" stroke="black" stroke-linecap="round" stroke-linejoin="round"/>
</g>
<defs>
<clipPath id="clip0_805_1619">
<rect width="12" height="12" fill="white"/>
</clipPath>
</defs>
</svg>
