<svg width="16" height="16" viewBox="0 0 16 16" fill="none" xmlns="http://www.w3.org/2000/svg">
<path d="M14 7.99998V9.61331C14 10.5533 13.2266 11.3266 12.28 11.3266C12.2733 11.3266 12.2733 11.3266 12.2733 11.3266H3.69998C2.75331 11.3266 1.97998 10.5533 1.97998 9.60665C1.97331 9.59998 1.97331 9.59998 1.97998 9.59998V3.69331C1.97331 2.74665 2.74664 1.97331 3.69331 1.97331M3.69331 1.97331C3.69331 1.96665 3.69331 1.96665 3.69331 1.97331ZM3.69331 1.97331H3.97331M9.33331 11.3333L9.66664 14M6.66664 11.3333L6.33331 14M5.42664 14H10.5733M8.32998 3.66665V3.65998L8.32331 3.65331H8.31664M10.33 3.66665V3.65998L10.3233 3.65331H10.3166M12.3266 3.66665V3.65998L12.32 3.65331H12.3133M14 8.99998H1.99998M7.33331 1.33331H13.3333C14.0697 1.33331 14.6666 1.93027 14.6666 2.66665V4.66665C14.6666 5.40303 14.0697 5.99998 13.3333 5.99998H7.33331C6.59693 5.99998 5.99998 5.40303 5.99998 4.66665V2.66665C5.99998 1.93027 6.59693 1.33331 7.33331 1.33331Z" stroke="black" stroke-width="1.3" stroke-linecap="round" stroke-linejoin="round"/>
</svg>
