<svg width="12" height="12" viewBox="0 0 12 12" fill="none" xmlns="http://www.w3.org/2000/svg">
<path d="M10.5 6V7.21C10.5 7.915 9.92001 8.495 9.21001 8.495C9.20501 8.495 9.20501 8.495 9.20501 8.495H2.77501C2.06501 8.495 1.48501 7.915 1.48501 7.205C1.48001 7.2 1.48001 7.2 1.48501 7.2V2.77C1.48001 2.06 2.06001 1.48 2.77001 1.48M2.77001 1.48C2.77001 1.475 2.77001 1.475 2.77001 1.48ZM2.77001 1.48H2.98001M7.00001 8.5L7.25001 10.5M5.00001 8.5L4.75001 10.5M4.07001 10.5H7.93001M6.24751 2.75V2.745L6.24251 2.74H6.23751M7.74751 2.75V2.745L7.74251 2.74H7.73751M9.24501 2.75V2.745L9.24001 2.74H9.23501M10.5 6.75H1.50001M5.50001 1H10C10.5523 1 11 1.44772 11 2V3.5C11 4.05228 10.5523 4.5 10 4.5H5.50001C4.94773 4.5 4.50001 4.05228 4.50001 3.5V2C4.50001 1.44772 4.94773 1 5.50001 1Z" stroke="black" stroke-linecap="round" stroke-linejoin="round"/>
</svg>
