<svg width="16" height="16" viewBox="0 0 16 16" fill="none" xmlns="http://www.w3.org/2000/svg">
<path d="M11.6602 8.00002C11.6602 8.18669 11.8068 8.33335 11.9935 8.33335C12.1735 8.33335 12.3268 8.18669 12.3268 8.00002C12.3268 7.82002 12.1735 7.66669 11.9935 7.66669C11.8068 7.66669 11.6602 7.82002 11.6602 8.00669M7.66016 8.00002C7.66016 8.18669 7.80682 8.33335 7.99349 8.33335C8.17349 8.33335 8.32682 8.18669 8.32682 8.00002C8.32682 7.82002 8.17349 7.66669 7.99349 7.66669C7.80682 7.66669 7.66016 7.82002 7.66016 8.00669M3.66016 8.00002C3.66016 8.18669 3.80682 8.33335 3.99349 8.33335C4.17349 8.33335 4.32682 8.18669 4.32682 8.00002C4.32682 7.82002 4.17349 7.66669 3.99349 7.66669C3.80682 7.66669 3.66016 7.82002 3.66016 8.00669" stroke="black" stroke-width="1.3" stroke-linecap="round" stroke-linejoin="round"/>
</svg>
