<svg width="12" height="12" viewBox="0 0 12 12" fill="none" xmlns="http://www.w3.org/2000/svg">
<path d="M8.74512 6C8.74512 6.14 8.85512 6.25 8.99512 6.25C9.13012 6.25 9.24512 6.14 9.24512 6C9.24512 5.865 9.13012 5.75 8.99512 5.75C8.85512 5.75 8.74512 5.865 8.74512 6.005M5.74512 6C5.74512 6.14 5.85512 6.25 5.99512 6.25C6.13012 6.25 6.24512 6.14 6.24512 6C6.24512 5.865 6.13012 5.75 5.99512 5.75C5.85512 5.75 5.74512 5.865 5.74512 6.005M2.74512 6C2.74512 6.14 2.85512 6.25 2.99512 6.25C3.13012 6.25 3.24512 6.14 3.24512 6C3.24512 5.865 3.13012 5.75 2.99512 5.75C2.85512 5.75 2.74512 5.865 2.74512 6.005" stroke="black" stroke-linecap="round" stroke-linejoin="round"/>
</svg>
