<svg width="12" height="12" viewBox="0 0 12 12" fill="none" xmlns="http://www.w3.org/2000/svg">
<path d="M5.995 8.75C5.855 8.75 5.745 8.86 5.745 9C5.745 9.135 5.855 9.25 5.995 9.25C6.13 9.25 6.245 9.135 6.245 9C6.245 8.86 6.13 8.75 5.99 8.75M5.995 5.75C5.855 5.75 5.745 5.86 5.745 6C5.745 6.135 5.855 6.25 5.995 6.25C6.13 6.25 6.245 6.135 6.245 6C6.245 5.86 6.13 5.75 5.99 5.75M5.995 2.75C5.855 2.75 5.745 2.86 5.745 3C5.745 3.135 5.855 3.25 5.995 3.25C6.13 3.25 6.245 3.135 6.245 3C6.245 2.86 6.13 2.75 5.99 2.75" stroke="black" stroke-linecap="round" stroke-linejoin="round"/>
</svg>
