<svg width="12" height="12" viewBox="0 0 12 12" fill="none" xmlns="http://www.w3.org/2000/svg">
<path d="M8.5 8.95836C8.5 9.07502 8.59167 9.16669 8.70833 9.16669C8.82083 9.16669 8.91667 9.07502 8.91667 8.95836C8.91667 8.84586 8.82083 8.75002 8.70833 8.75002C8.59167 8.75002 8.5 8.84586 8.5 8.96252M4.6287 6.00002L2.42679 3.79812C2.32916 3.70049 2.32916 3.5422 2.42679 3.44457L4.19456 1.6768C4.29219 1.57917 4.45048 1.57917 4.54811 1.6768L8.87134 6.00002M1.71951 10.5H9C9.82843 10.5 10.5 9.82845 10.5 9.00002C10.5 8.1716 9.82843 7.50002 9 7.50002H1.71951C1.59828 7.50002 1.5 7.5983 1.5 7.71953V10.2805C1.5 10.4017 1.59828 10.5 1.71951 10.5Z" stroke="black" stroke-linecap="round" stroke-linejoin="round"/>
</svg>
