<svg width="12" height="12" viewBox="0 0 12 12" fill="none" xmlns="http://www.w3.org/2000/svg">
<path d="M8 1.5H9.64C10.11 1.5 10.495 1.88 10.495 2.355V3.995M4 10.5H2.355C1.88 10.5 1.495 10.115 1.495 9.64V7.995M8.475 8.21V7.29M8.4755 9.22C8.4505 9.22 8.4255 9.24 8.4305 9.265C8.4305 9.29 8.4505 9.31 8.4755 9.31C8.5005 9.31 8.5205 9.285 8.5205 9.26C8.5205 9.235 8.4955 9.21 8.4705 9.21M9.3475 6.3L10.8675 9.007C11.2375 9.672 10.7575 10.497 9.9925 10.497H6.9425C6.1775 10.497 5.6925 9.672 6.0675 9.002L7.5875 6.292C7.9675 5.6125 8.9475 5.6125 9.3275 6.292L9.3475 6.3ZM2.58 2.5175C1.97 2.5975 1.499 3.1175 1.499 3.75C1.499 4.44 2.059 5 2.749 5H5.499C6.049 5 6.499 4.55 6.499 4C6.499 3.445 6.049 3 5.499 3C5.499 2.1715 4.8275 1.5 3.999 1.5C3.339 1.5 2.781 1.925 2.579 2.5175H2.58Z" stroke="black" stroke-linecap="round" stroke-linejoin="round"/>
</svg>
