<svg width="12" height="12" viewBox="0 0 12 12" fill="none" xmlns="http://www.w3.org/2000/svg">
<path d="M4.49936 3.62035C4.8973 3.22236 5.43704 2.99875 5.99985 2.99872C6.56266 2.99868 7.10243 3.22223 7.50042 3.62017M2.81669 8.68311C1.52916 7.39558 1.144 5.45924 1.8408 3.77701C2.53761 2.09477 4.17915 0.997925 5.99999 0.997925C7.82083 0.997925 9.46238 2.09477 10.1592 3.77701C10.856 5.45924 10.4708 7.39558 9.1833 8.68311M5.24973 4.80998C5.6642 4.3958 6.33588 4.3958 6.75035 4.80998M5.62491 9.8766H6.37522M5.14933 11.0021H6.85079C7.34784 11.0021 7.75079 10.5991 7.75079 10.1021V7.4002C7.75079 6.90314 7.34784 6.5002 6.85079 6.5002H5.14933C4.65227 6.5002 4.24933 6.90314 4.24933 7.4002V10.1021C4.24933 10.5991 4.65227 11.0021 5.14933 11.0021Z" stroke="black" stroke-linecap="round" stroke-linejoin="round"/>
</svg>
