<svg width="12" height="12" viewBox="0 0 12 12" fill="none" xmlns="http://www.w3.org/2000/svg">
<path d="M10.5 6.5V8.5C10.5 9.6 9.6 10.5 8.5 10.5H3.5M3.5 10.5C2.395 10.5 1.5 9.6 1.5 8.5V3.5C1.5 2.395 2.395 1.5 3.5 1.5H5.5M3.5 10.5L6.645 7.35C7.115 6.875 7.875 6.875 8.345 7.35L10.31 9.315M1.5 6.5L2.145 5.85C2.615 5.375 3.375 5.375 3.845 5.845L5.99 7.99M9.1894 2.95049C9.2144 2.97549 9.2144 3.0205 9.1894 3.0505C9.1594 3.0755 9.1144 3.0755 9.0844 3.0505C9.0544 3.0205 9.0544 2.9755 9.0844 2.9455C9.1094 2.9155 9.1544 2.9155 9.1844 2.9455M7.3799 3.345C7.2399 3.135 7.2399 2.85999 7.3799 2.65499C7.7999 2.00999 8.4699 1.495 9.1364 1.495C9.8014 1.495 10.4664 2.00499 10.8914 2.64999C11.0264 2.85499 11.0264 3.13 10.8914 3.34C10.4664 3.981 9.7964 4.49499 9.1314 4.49499C8.4614 4.49499 7.7964 3.98 7.3749 3.34L7.3799 3.345Z" stroke="black" stroke-linecap="round" stroke-linejoin="round"/>
</svg>
