<svg width="12" height="12" viewBox="0 0 12 12" fill="none" xmlns="http://www.w3.org/2000/svg">
<path d="M3.25 7.24998V4.74998L4.5 7.24998V4.74998M5.75 7.24998V4.74998H6.75M8.25 7.24998V4.74998M8.25 4.74998H7.75M8.25 4.74998H8.75M6 5.99998H6.25M10.125 7.85248V4.14748C10.125 3.81998 9.9505 3.51748 9.6665 3.35348L6.458 1.50098C6.1745 1.33748 5.825 1.33748 5.5415 1.50098L2.3335 3.35398C2.0495 3.51748 1.875 3.81998 1.875 4.14748V7.85198C1.875 8.17948 2.0495 8.48198 2.3335 8.64598L5.542 10.4985C5.8255 10.662 6.175 10.662 6.4585 10.4985L9.667 8.64598C9.9505 8.48248 10.125 8.17998 10.125 7.85248Z" stroke="black" stroke-linecap="round" stroke-linejoin="round"/>
</svg>
