<svg width="12" height="12" viewBox="0 0 12 12" fill="none" xmlns="http://www.w3.org/2000/svg">
<path d="M10.5019 7.50065V7.00045C10.5092 6.60025 10.3535 6.21428 10.0705 5.93125C9.78744 5.64822 9.40147 5.49248 9.00127 5.49982H8.00085M5.99999 7.50065V7.00045C6.00733 6.60025 5.85159 6.21428 5.56856 5.93125C5.28553 5.64822 4.89956 5.49248 4.49936 5.49982H2.99874C2.59854 5.49248 2.21257 5.64822 1.92954 5.93125C1.64651 6.21428 1.49077 6.60025 1.49811 7.00045V7.50065M9.00127 10.054V8.77539H7.70477M2.99872 8.77542C3.57816 9.83959 4.69294 10.5019 5.90464 10.5019C7.11634 10.5019 8.23112 9.83959 8.81057 8.77542M4.99958 2.74866C4.99958 3.4393 4.4397 3.99918 3.74906 3.99918C3.05841 3.99918 2.49854 3.4393 2.49854 2.74866C2.49854 2.05802 3.05841 1.49814 3.74906 1.49814C4.4397 1.49814 4.99958 2.05802 4.99958 2.74866ZM9.50144 2.99877C9.50144 3.55128 9.05354 3.99919 8.50103 3.99919C7.94851 3.99919 7.50061 3.55128 7.50061 2.99877C7.50061 2.44625 7.94851 1.99835 8.50103 1.99835C9.05354 1.99835 9.50144 2.44625 9.50144 2.99877Z" stroke="black" stroke-linecap="round" stroke-linejoin="round"/>
</svg>
