<svg width="16" height="16" viewBox="0 0 16 16" fill="none" xmlns="http://www.w3.org/2000/svg">
<path d="M14.0025 10.0009V9.33391C14.0123 8.80031 13.8046 8.28569 13.4273 7.90831C13.0499 7.53094 12.5353 7.32329 12.0017 7.33307H10.6678M7.99996 10.0009V9.33391C8.00975 8.80031 7.8021 8.28569 7.42472 7.90831C7.04735 7.53094 6.53272 7.32329 5.99913 7.33307H3.9983C3.4647 7.32329 2.95007 7.53094 2.5727 7.90831C2.19533 8.28569 1.98767 8.80031 1.99746 9.33391V10.0009M12.0017 13.4052V11.7005H10.273M3.99827 11.7005C4.77086 13.1194 6.25724 14.0025 7.87284 14.0025C9.48844 14.0025 10.9748 13.1194 11.7474 11.7005M6.66608 3.66486C6.66608 4.58572 5.91958 5.33222 4.99872 5.33222C4.07786 5.33222 3.33136 4.58572 3.33136 3.66486C3.33136 2.744 4.07786 1.9975 4.99872 1.9975C5.91958 1.9975 6.66608 2.744 6.66608 3.66486ZM12.6686 3.99834C12.6686 4.73502 12.0714 5.33223 11.3347 5.33223C10.598 5.33223 10.0008 4.73502 10.0008 3.99834C10.0008 3.26165 10.598 2.66445 11.3347 2.66445C12.0714 2.66445 12.6686 3.26165 12.6686 3.99834Z" stroke="black" stroke-width="1.3" stroke-linecap="round" stroke-linejoin="round"/>
</svg>
