<svg width="16" height="16" viewBox="0 0 16 16" fill="none" xmlns="http://www.w3.org/2000/svg">
<path d="M2 6.66668C3.83673 5.52382 6.16327 5.52382 8 6.66668M2 6.66668C2 3.72116 4.68629 1.33334 8 1.33334C11.3137 1.33334 14 3.72116 14 6.66668M2 6.66668L8 10M8 6.66668C9.83673 5.52382 12.1633 5.52382 14 6.66668M8 6.66668V10M14 6.66668L8 10M5.66667 14.6667H10.3333C10.8856 14.6667 11.3333 14.219 11.3333 13.6667V11C11.3333 10.4477 10.8856 10 10.3333 10H5.66667C5.11438 10 4.66667 10.4477 4.66667 11V13.6667C4.66667 14.219 5.11438 14.6667 5.66667 14.6667ZM6.9 10H9.1V11.6667C9.1 11.8508 8.95076 12 8.76667 12H7.23333C7.04924 12 6.9 11.8508 6.9 11.6667V10Z" stroke="black" stroke-width="1.3" stroke-linecap="round" stroke-linejoin="round"/>
</svg>
