<svg width="12" height="12" viewBox="0 0 12 12" fill="none" xmlns="http://www.w3.org/2000/svg">
<path d="M1.49817 6.50019L2.14602 5.85234C2.37219 5.62617 2.67894 5.49911 2.99879 5.49911C3.31864 5.49911 3.62539 5.62617 3.85156 5.85234L6.00004 8.00082M3.5005 10.5019L6.6494 7.35296C7.12037 6.88199 7.88397 6.88199 8.35494 7.35296L10.3253 9.32337M10.5019 8.50102C10.5019 9.60605 9.60612 10.5019 8.50109 10.5019H3.499C2.39397 10.5019 1.49817 9.60605 1.49817 8.50102V3.49894C1.49817 2.39391 2.39397 1.49811 3.499 1.49811H8.50109C9.60612 1.49811 10.5019 2.39391 10.5019 3.49894V8.50102Z" stroke="black" stroke-linecap="round" stroke-linejoin="round"/>
</svg>
