<svg width="12" height="12" viewBox="0 0 12 12" fill="none" xmlns="http://www.w3.org/2000/svg">
<path d="M6.98497 2.01002C7.66497 2.69002 7.66497 3.80002 6.98497 4.48002C6.29997 5.16002 5.18997 5.16002 4.50997 4.48002C3.82497 3.79502 3.82497 2.68502 4.50947 2.00502C5.18947 1.32002 6.29947 1.32002 6.97947 2.00452M8.51497 5.98002C8.51997 5.98502 8.51997 6.00002 8.51497 6.01002C8.50497 6.01502 8.48997 6.01502 8.47997 6.01002C8.46997 6.00002 8.46997 5.98502 8.47997 5.97502C8.48497 5.96502 8.49997 5.96502 8.50997 5.97502M7.48997 3.42952C7.64997 3.38452 7.80497 3.32452 7.94997 3.23452C8.17997 3.08452 8.44997 2.99952 8.74497 2.99952H9.24497V4.27452C9.60397 4.59452 9.88497 4.99952 10.055 5.46452H10.49C10.765 5.46452 10.99 5.68452 10.99 5.96452V7.49452C10.99 7.76952 10.765 7.99452 10.49 7.99452H9.82997C9.56497 8.44452 9.18497 8.82452 8.73547 9.08952V9.98952C8.73547 10.2645 8.51047 10.4895 8.23547 10.4895H7.23547C6.95547 10.4895 6.73547 10.2645 6.73547 9.98952V9.48952H4.98547V9.91952C4.98547 10.1945 4.76047 10.4195 4.48547 10.4195H3.48547C3.20547 10.4195 2.98547 10.1945 2.98547 9.91952V8.71452C2.37047 8.16452 1.98547 7.36952 1.98547 6.47952C1.98547 5.15452 2.84447 4.03402 4.03047 3.63452M1.13997 5.00002C0.904972 5.13502 0.745972 5.38502 0.745972 5.67502C0.745972 6.11002 1.09597 6.46352 1.53097 6.46352H1.99247M4.24997 5.00002H7.24997" stroke="black" stroke-linecap="round" stroke-linejoin="round"/>
</svg>
