<svg width="16" height="16" viewBox="0 0 16 16" fill="none" xmlns="http://www.w3.org/2000/svg">
<path d="M9.31329 2.67997C10.22 3.58664 10.22 5.06664 9.31329 5.9733C8.39996 6.87997 6.91996 6.87997 6.0133 5.9733C5.09996 5.05997 5.09996 3.57997 6.01263 2.6733C6.9193 1.75997 8.39929 1.75997 9.30596 2.67264M11.3533 7.9733C11.36 7.97997 11.36 7.99997 11.3533 8.0133C11.34 8.01997 11.32 8.01997 11.3066 8.0133C11.2933 7.99997 11.2933 7.97997 11.3066 7.96664C11.3133 7.9533 11.3333 7.9533 11.3466 7.96664M9.98663 4.57264C10.2 4.51264 10.4066 4.43264 10.6 4.31264C10.9066 4.11264 11.2666 3.9993 11.66 3.9993H12.3266V5.6993C12.8053 6.12597 13.18 6.66597 13.4066 7.28597H13.9866C14.3533 7.28597 14.6533 7.5793 14.6533 7.95264V9.99264C14.6533 10.3593 14.3533 10.6593 13.9866 10.6593H13.1066C12.7533 11.2593 12.2466 11.766 11.6473 12.1193V13.3193C11.6473 13.686 11.3473 13.986 10.9806 13.986H9.6473C9.27396 13.986 8.98063 13.686 8.98063 13.3193V12.6526H6.6473V13.226C6.6473 13.5926 6.3473 13.8926 5.98063 13.8926H4.6473C4.27396 13.8926 3.98063 13.5926 3.98063 13.226V11.6193C3.16063 10.886 2.6473 9.82597 2.6473 8.6393C2.6473 6.87264 3.79263 5.37864 5.37396 4.84597M1.51996 6.66664C1.20663 6.84664 0.994629 7.17997 0.994629 7.56664C0.994629 8.14664 1.4613 8.61797 2.0413 8.61797H2.65663M5.66663 6.66664H9.66663" stroke="black" stroke-width="1.3" stroke-linecap="round" stroke-linejoin="round"/>
</svg>
