<svg width="12" height="12" viewBox="0 0 12 12" fill="none" xmlns="http://www.w3.org/2000/svg">
<path d="M5.99976 1.20001C8.65066 1.20001 10.7995 3.34894 10.7996 5.99982C10.7996 8.65078 8.65072 10.7996 5.99976 10.7996C3.34888 10.7995 1.19995 8.65072 1.19995 5.99982C1.20006 3.349 3.34894 1.20012 5.99976 1.20001ZM3.10034 3.1004V8.90021H8.90015V3.1004H3.10034ZM7.19312 7.90021H4.80737L5.99976 6.70685L7.19312 7.90021ZM5.29272 5.99982L4.10034 7.19318V4.80743L5.29272 5.99982ZM7.90015 7.19318L6.70679 5.99982L7.90015 4.80743V7.19318ZM7.19312 4.1004L5.99976 5.29279L4.80737 4.1004H7.19312Z" fill="black"/>
</svg>
