<svg width="16" height="16" viewBox="0 0 16 16" fill="none" xmlns="http://www.w3.org/2000/svg">
<path d="M8.00037 1.60001C11.5348 1.60022 14.3998 4.4659 14.3998 8.0004C14.3996 11.5347 11.5347 14.3996 8.00037 14.3998C4.46587 14.3998 1.60019 11.5348 1.59998 8.0004C1.59998 4.46577 4.46574 1.60001 8.00037 1.60001ZM4.14978 4.14981V11.85H11.85V4.14981H4.14978ZM9.63123 10.5502H6.36951L7.99939 8.91934L9.63123 10.5502ZM7.08044 7.99942L5.45056 9.63028V6.36954L7.08044 7.99942ZM10.5502 9.63028L8.91931 7.99942L10.5502 6.36954V9.63028ZM9.63025 5.45059L7.99939 7.08047L6.37048 5.45059H9.63025Z" fill="black"/>
</svg>
