<svg width="12" height="12" viewBox="0 0 12 12" fill="none" xmlns="http://www.w3.org/2000/svg">
<g clip-path="url(#clip0_3_282)">
<path d="M3.865 6C3.865 4.82 4.82 3.865 5.995 3.865M11.395 2.88C11.965 3.87 10.015 6.075 7.03 7.795C4.045 9.515 1.16 10.105 0.590003 9.11M0.600003 9.12C0.250003 8.515 0.835003 7.465 2.015 6.345M8.295 2.725C9.85 2.26 11.05 2.28 11.4 2.88M6 2C4.93914 2 3.92172 2.42143 3.17158 3.17157C2.42143 3.92172 2 4.93913 2 6C2 7.06087 2.42143 8.07828 3.17158 8.82843C3.92172 9.57857 4.93914 10 6 10C7.06087 10 8.07829 9.57857 8.82843 8.82843C9.57858 8.07828 10 7.06087 10 6C10 4.93913 9.57858 3.92172 8.82843 3.17157C8.07829 2.42143 7.06087 2 6 2Z" stroke="black" stroke-linecap="round" stroke-linejoin="round"/>
</g>
<defs>
<clipPath id="clip0_3_282">
<rect width="12" height="12" fill="white"/>
</clipPath>
</defs>
</svg>
