<svg width="16" height="16" viewBox="0 0 16 16" fill="none" xmlns="http://www.w3.org/2000/svg">
<path d="M5.15338 8.00002C5.15338 6.42669 6.42671 5.15335 7.99338 5.15335M15.1934 3.84002C15.9534 5.16002 13.3534 8.10002 9.37338 10.3934C5.39338 12.6867 1.54671 13.4734 0.786711 12.1467M0.800045 12.16C0.333378 11.3534 1.11338 9.95335 2.68671 8.46002M11.06 3.63335C13.1334 3.01335 14.7334 3.04002 15.2 3.84002M8.00005 2.66669C6.58556 2.66669 5.229 3.22859 4.22881 4.22878C3.22861 5.22898 2.66671 6.58553 2.66671 8.00002C2.66671 9.41451 3.22861 10.7711 4.22881 11.7713C5.229 12.7715 6.58556 13.3334 8.00005 13.3334C9.41453 13.3334 10.7711 12.7715 11.7713 11.7713C12.7715 10.7711 13.3334 9.41451 13.3334 8.00002C13.3334 6.58553 12.7715 5.22898 11.7713 4.22878C10.7711 3.22859 9.41453 2.66669 8.00005 2.66669Z" stroke="black" stroke-width="1.3" stroke-linecap="round" stroke-linejoin="round"/>
</svg>
