<svg width="12" height="12" viewBox="0 0 12 12" fill="none" xmlns="http://www.w3.org/2000/svg">
<path d="M8 10.5H9C9.825 10.5 10.5 9.825 10.5 9V8M8 1.5H9C9.825 1.5 10.5 2.17 10.5 3V4M1.5 8V9C1.5 9.825 2.17 10.5 3 10.5H4M1.5 4V3C1.5 2.17 2.17 1.5 3 1.5H4M6.775 6.75H6.77L6.765 6.745V6.74M8.4775 6.75H8.4725L8.4675 6.745V6.74M6.775 8.5H6.77L6.765 8.495V8.49M8.475 8.5H8.47L8.465 8.495V8.49M7.6275 7.625H7.6225L7.6175 7.62V7.615M6.9995 3.5H8.2495C8.38757 3.5 8.4995 3.61193 8.4995 3.75V5C8.4995 5.13807 8.38757 5.25 8.2495 5.25H6.9995C6.86143 5.25 6.7495 5.13807 6.7495 5V3.75C6.7495 3.61193 6.86143 3.5 6.9995 3.5ZM3.7495 3.5H4.9995C5.13757 3.5 5.2495 3.61193 5.2495 3.75V5C5.2495 5.13807 5.13757 5.25 4.9995 5.25H3.7495C3.61143 5.25 3.4995 5.13807 3.4995 5V3.75C3.4995 3.61193 3.61143 3.5 3.7495 3.5ZM3.7495 6.75H4.9995C5.13757 6.75 5.2495 6.86193 5.2495 7V8.25C5.2495 8.38807 5.13757 8.5 4.9995 8.5H3.7495C3.61143 8.5 3.4995 8.38807 3.4995 8.25V7C3.4995 6.86193 3.61143 6.75 3.7495 6.75Z" stroke="black" stroke-linecap="round" stroke-linejoin="round"/>
</svg>
