<svg width="12" height="12" viewBox="0 0 12 12" fill="none" xmlns="http://www.w3.org/2000/svg">
<path d="M4.84 4.84C4.955 4.325 5.42 3.975 5.945 3.995C6.53 3.96 7.03 4.405 7.07 4.995C7.07 5.745 5.995 5.995 5.995 6.495M6 7.8C5.965 7.8 5.9375 7.8275 5.9375 7.8625C5.9375 7.89625 5.965 7.925 6 7.925C6.03375 7.925 6.0625 7.89625 6.0625 7.8625C6.0625 7.8275 6.03375 7.8 5.99875 7.8M6 1.5C5.40905 1.5 4.82389 1.6164 4.27792 1.84254C3.73196 2.06869 3.23588 2.40016 2.81802 2.81802C2.40016 3.23588 2.06869 3.73196 1.84254 4.27792C1.6164 4.82389 1.5 5.40905 1.5 6C1.5 6.59095 1.6164 7.17611 1.84254 7.72208C2.06869 8.26804 2.40016 8.76412 2.81802 9.18198C3.23588 9.59984 3.73196 9.93131 4.27792 10.1575C4.82389 10.3836 5.40905 10.5 6 10.5C6.59095 10.5 7.17611 10.3836 7.72208 10.1575C8.26804 9.93131 8.76412 9.59984 9.18198 9.18198C9.59984 8.76412 9.93131 8.26804 10.1575 7.72208C10.3836 7.17611 10.5 6.59095 10.5 6C10.5 5.40905 10.3836 4.82389 10.1575 4.27792C9.93131 3.73196 9.59984 3.23588 9.18198 2.81802C8.76412 2.40016 8.26804 2.06869 7.72208 1.84254C7.17611 1.6164 6.59095 1.5 6 1.5Z" stroke="black" stroke-linecap="round" stroke-linejoin="round"/>
</svg>
