<svg width="12" height="12" viewBox="0 0 12 12" fill="none" xmlns="http://www.w3.org/2000/svg">
<g clip-path="url(#clip0_3_410)">
<path d="M4.7966 6.06061C4.49572 6.06061 4.25011 6.30871 4.25011 6.61263C4.25011 6.91654 4.49572 7.16464 4.7966 7.16464C5.09748 7.16464 5.34309 6.91654 5.34309 6.61263C5.34309 6.30871 5.09748 6.06061 4.7966 6.06061Z" fill="black"/>
<path d="M6.00625 8.47334C6.21502 8.47334 6.92731 8.44853 7.30187 8.07018C7.35713 8.01436 7.35713 7.92753 7.31415 7.86551C7.25888 7.80969 7.16678 7.80969 7.11151 7.86551C6.87204 8.1012 6.37467 8.18803 6.01239 8.18803C5.65011 8.18803 5.1466 8.1012 4.91327 7.86551C4.85801 7.80969 4.7659 7.80969 4.71064 7.86551C4.65537 7.92133 4.65537 8.01436 4.71064 8.07018C5.07906 8.44233 5.79748 8.47334 6.00625 8.47334Z" fill="black"/>
<path d="M6.65713 6.61263C6.65713 6.91654 6.90274 7.16464 7.20362 7.16464C7.5045 7.16464 7.75011 6.91654 7.75011 6.61263C7.75011 6.30871 7.5045 6.06061 7.20362 6.06061C6.90274 6.06061 6.65713 6.30871 6.65713 6.61263Z" fill="black"/>
<path fill-rule="evenodd" clip-rule="evenodd" d="M11.25 6.0606C11.25 8.98938 8.8995 11.3636 6 11.3636C3.10051 11.3636 0.75 8.98938 0.75 6.0606C0.75 3.13182 3.10051 0.757568 6 0.757568C8.8995 0.757568 11.25 3.13182 11.25 6.0606ZM8.73257 5.28532C9.15625 5.28532 9.50011 5.63265 9.50011 6.06061C9.50011 6.37694 9.30976 6.64984 9.05801 6.77389C9.07029 6.84832 9.07643 6.92275 9.07643 7.00338C9.07643 8.19423 7.70713 9.1556 6.01239 9.1556C4.31765 9.1556 2.94836 8.19423 2.94836 7.00338C2.94836 6.92275 2.9545 6.84211 2.96678 6.76769C2.6966 6.64364 2.51239 6.37694 2.51239 6.06061C2.51239 5.63265 2.85625 5.28532 3.27993 5.28532C3.48257 5.28532 3.67292 5.37215 3.80801 5.5024C4.33608 5.11165 5.06678 4.86976 5.88344 4.84495L6.27029 2.99664C6.28257 2.95943 6.30099 2.92842 6.33169 2.90981C6.36239 2.8912 6.39923 2.885 6.43608 2.8912L7.70713 3.16411C7.79309 2.97803 7.9773 2.85399 8.19222 2.85399C8.49309 2.85399 8.73871 3.10208 8.73871 3.406C8.73871 3.70992 8.49309 3.95801 8.19222 3.95801C7.89748 3.95801 7.65801 3.72232 7.64572 3.43081L6.50976 3.18892L6.15976 4.84495C6.95801 4.87596 7.68257 5.12406 8.2045 5.5024C8.33959 5.36595 8.5238 5.28532 8.73257 5.28532Z" fill="black"/>
</g>
<defs>
<clipPath id="clip0_3_410">
<rect width="12" height="12" fill="white"/>
</clipPath>
</defs>
</svg>
