<svg width="12" height="12" viewBox="0 0 12 12" fill="none" xmlns="http://www.w3.org/2000/svg">
<path d="M5.62998 4.80102L1.81998 8.60602C1.38498 9.03602 1.38498 9.73602 1.81498 10.171H1.81448C2.24448 10.601 2.94448 10.601 3.37948 10.171L7.18448 6.36102V6.36052C8.47948 6.80052 9.89448 6.11052 10.3395 4.81052C10.3445 4.79052 10.3495 4.77052 10.3545 4.75052V4.75002C10.4595 4.42502 10.4945 4.08502 10.4645 3.75002C10.4245 3.47502 10.1745 3.28502 9.89948 3.32002C9.78948 3.33002 9.68448 3.38502 9.60948 3.46002L8.70448 4.36002C8.60448 4.45502 8.44448 4.45502 8.34948 4.36002C8.34448 4.35502 8.34448 4.35502 8.34448 4.35502L7.57948 3.59002C7.47948 3.49002 7.47948 3.33002 7.66948 3.14002L8.47448 2.33002C8.66948 2.13502 8.66948 1.82002 8.47948 1.62002C8.39948 1.54002 8.29948 1.49002 8.18948 1.47502C7.84948 1.44002 7.50948 1.47502 7.18948 1.58502V1.58002C5.87448 1.99002 5.14948 3.38502 5.55948 4.69502C5.56448 4.71002 5.56948 4.73002 5.57448 4.75002L5.62998 4.80102Z" stroke="black" stroke-linecap="round" stroke-linejoin="round"/>
</svg>
