<svg width="16" height="16" viewBox="0 0 16 16" fill="none" xmlns="http://www.w3.org/2000/svg">
<path d="M3.66669 6.33332C3.66669 3.93466 5.60002 1.99999 8.00002 1.99999C10.3934 1.99999 12.3334 3.93332 12.3334 6.33332M3.66669 6.33332C3.66669 8.72666 5.60002 10.6667 8.00002 10.6667C10.3934 10.6667 12.3334 8.72666 12.3334 6.33332M3.66669 6.33332H12.3334M7.00002 12.3333L9.00002 14.3333M7.00002 14.3333L9.00002 12.3333M10.6667 13.3333H13.3334M2.66669 13.3333H5.33335M7.11802 2.50999C5.72469 4.83333 5.72469 7.82999 7.11802 10.1567C7.52469 10.8367 8.47135 10.8367 8.87802 10.1567C10.2647 7.82999 10.2647 4.83333 8.87802 2.50999C8.46469 1.82999 7.51802 1.82999 7.11135 2.50933L7.11802 2.50999Z" stroke="black" stroke-width="1.3" stroke-linecap="round" stroke-linejoin="round"/>
</svg>
