<svg width="12" height="12" viewBox="0 0 12 12" fill="none" xmlns="http://www.w3.org/2000/svg">
<path d="M2.75 4.75C2.75 2.951 4.2 1.5 6 1.5C7.795 1.5 9.25 2.95 9.25 4.75M2.75 4.75C2.75 6.545 4.2 8 6 8C7.795 8 9.25 6.545 9.25 4.75M2.75 4.75H9.25M5.25 9.25L6.75 10.75M5.25 10.75L6.75 9.25M8 10H10M2 10H4M5.3385 1.8825C4.2935 3.625 4.2935 5.8725 5.3385 7.6175C5.6435 8.1275 6.3535 8.1275 6.6585 7.6175C7.6985 5.8725 7.6985 3.625 6.6585 1.8825C6.3485 1.3725 5.6385 1.3725 5.3335 1.882L5.3385 1.8825Z" stroke="black" stroke-linecap="round" stroke-linejoin="round"/>
</svg>
