<svg width="12" height="12" viewBox="0 0 12 12" fill="none" xmlns="http://www.w3.org/2000/svg">
<path d="M6.40005 1.5C6.50302 1.50002 6.60346 1.53182 6.68767 1.59106C6.77188 1.6503 6.83575 1.7341 6.87055 1.831L7.12455 2.5385C7.16487 2.64976 7.24313 2.74324 7.34555 2.8025L8.09905 3.2375C8.20137 3.29654 8.32129 3.31744 8.43755 3.2965L9.17755 3.163C9.27897 3.14456 9.38361 3.15791 9.47714 3.20123C9.57067 3.24455 9.64853 3.31572 9.70005 3.405L10.1001 4.095C10.1517 4.18404 10.1746 4.28686 10.1657 4.38941C10.1567 4.49196 10.1164 4.58926 10.0501 4.668L9.56455 5.242C9.48809 5.33226 9.4461 5.44671 9.44605 5.565V6.435C9.4461 6.55329 9.48809 6.66774 9.56455 6.758L10.0501 7.332C10.1164 7.41074 10.1567 7.50804 10.1657 7.61059C10.1746 7.71314 10.1517 7.81596 10.1001 7.905L9.70005 8.595C9.64856 8.68418 9.57078 8.75529 9.47735 8.79861C9.38392 8.84192 9.27939 8.85533 9.17805 8.837L8.43805 8.7035C8.32179 8.68256 8.20187 8.70346 8.09955 8.7625L7.34605 9.1975C7.24363 9.25676 7.16537 9.35024 7.12505 9.4615L6.87105 10.169C6.83622 10.266 6.77228 10.3498 6.68797 10.4091C6.60366 10.4683 6.5031 10.5001 6.40005 10.5H5.60005C5.49709 10.5 5.39665 10.4682 5.31243 10.4089C5.22822 10.3497 5.16435 10.2659 5.12955 10.169L4.87555 9.4615C4.83525 9.35039 4.75721 9.25695 4.65505 9.1975L3.90105 8.7625C3.79873 8.70346 3.67881 8.68256 3.56255 8.7035L2.82255 8.837C2.72114 8.85544 2.6165 8.84209 2.52297 8.79877C2.42944 8.75545 2.35158 8.68428 2.30005 8.595L1.90005 7.905C1.84839 7.81596 1.82546 7.71314 1.83441 7.61059C1.84336 7.50804 1.88375 7.41074 1.95005 7.332L2.43555 6.758C2.51202 6.66774 2.55401 6.55329 2.55405 6.435V5.565C2.55401 5.44671 2.51202 5.33226 2.43555 5.242L1.95505 4.668C1.88875 4.58926 1.84836 4.49196 1.83941 4.38941C1.83046 4.28686 1.85339 4.18404 1.90505 4.095L2.30505 3.405C2.35655 3.31582 2.43433 3.24471 2.52776 3.20139C2.62119 3.15808 2.72572 3.14467 2.82705 3.163L3.56705 3.2965C3.68331 3.31744 3.80323 3.29654 3.90555 3.2375L4.65955 2.8025C4.76171 2.74305 4.83975 2.64961 4.88005 2.5385L5.13405 1.831C5.16859 1.73482 5.23177 1.65153 5.31509 1.59235C5.39841 1.53316 5.49786 1.50094 5.60005 1.5H6.40005Z" stroke="black" stroke-linecap="round" stroke-linejoin="round"/>
<path d="M6.00005 7.375C6.75945 7.375 7.37505 6.75939 7.37505 6C7.37505 5.24061 6.75945 4.625 6.00005 4.625C5.24066 4.625 4.62505 5.24061 4.62505 6C4.62505 6.75939 5.24066 7.375 6.00005 7.375Z" stroke="black" stroke-linecap="round" stroke-linejoin="round"/>
</svg>
