<svg width="12" height="12" viewBox="0 0 12 12" fill="none" xmlns="http://www.w3.org/2000/svg">
<path d="M10.5 3.5H8.96997M6.47 3.5H1.5M8.60503 2.61499C9.09003 3.09999 9.09003 3.88999 8.60503 4.37999C8.11503 4.86499 7.32503 4.86499 6.83503 4.37999C6.34503 3.88999 6.34503 3.09999 6.83503 2.60999C7.32003 2.11999 8.11003 2.11999 8.60003 2.60999M5.53003 8.5H10.5M1.5 8.5H3.03M5.15996 7.6225C5.64496 8.1075 5.64496 8.8975 5.15996 9.3875C4.66996 9.8725 3.87996 9.8725 3.38996 9.3875C2.89996 8.8975 2.89996 8.1075 3.38996 7.6175C3.87496 7.1275 4.66496 7.1275 5.15496 7.6175" stroke="black" stroke-linecap="round" stroke-linejoin="round"/>
</svg>
