<svg width="12" height="12" viewBox="0 0 12 12" fill="none" xmlns="http://www.w3.org/2000/svg">
<path d="M9 2.50002H10.5M1.5 2.50002H5.5M6.5 6.00002H10.5M1.5 6.00002H3M9 9.50002H10.5M1.5 9.50002H5.5M8.707 1.79002C9.097 2.18002 9.097 2.81002 8.707 3.20002C8.312 3.59002 7.682 3.59002 7.292 3.20002C6.897 2.80502 6.897 2.17502 7.292 1.78502C7.682 1.39002 8.312 1.39002 8.702 1.78502M4.705 5.29302C5.095 5.68302 5.095 6.31302 4.705 6.70302C4.31 7.09302 3.68 7.09302 3.29 6.70302C2.895 6.30802 2.895 5.67802 3.29 5.28802C3.68 4.89302 4.31 4.89302 4.7 5.28802M8.707 8.79302C9.097 9.18302 9.097 9.81302 8.707 10.203C8.312 10.593 7.682 10.593 7.292 10.203C6.897 9.80802 6.897 9.17802 7.292 8.78802C7.682 8.39302 8.312 8.39302 8.702 8.78802" stroke="black" stroke-linecap="round" stroke-linejoin="round"/>
</svg>
