<svg width="12" height="12" viewBox="0 0 12 12" fill="none" xmlns="http://www.w3.org/2000/svg">
<path d="M3.28241 7.21725C3.28241 6.89692 3.54209 6.63725 3.86241 6.63725H4.6032C4.92353 6.63725 5.1832 6.89692 5.1832 7.21725V7.95804C5.1832 8.27836 4.92353 8.53804 4.6032 8.53804H3.86241C3.54209 8.53804 3.28241 8.27836 3.28241 7.95804V7.21725Z" stroke="black" stroke-linecap="round" stroke-linejoin="round"/>
<path d="M8.7847 7.58814C8.7847 8.17492 8.30903 8.65059 7.72226 8.65059C7.13549 8.65059 6.65982 8.17492 6.65982 7.58814C6.65982 7.00137 7.13549 6.5257 7.72226 6.5257C8.30903 6.5257 8.7847 7.00137 8.7847 7.58814Z" stroke="black" stroke-linecap="round" stroke-linejoin="round"/>
<path fill-rule="evenodd" clip-rule="evenodd" d="M5.80246 3.42141L4.98862 4.8315C4.93949 4.91659 4.93948 5.02143 4.98858 5.10654C5.03769 5.19165 5.12846 5.24411 5.22672 5.24417H6.8544C6.95266 5.24411 7.04343 5.19165 7.09254 5.10654C7.14164 5.02143 7.14163 4.91659 7.0925 4.8315L6.27916 3.42141C6.23004 3.3362 6.13917 3.28369 6.04081 3.28369C5.94246 3.28369 5.85158 3.3362 5.80246 3.42141Z" stroke="black" stroke-linecap="round" stroke-linejoin="round"/>
<path d="M1.49817 3.99811C1.49817 2.6174 2.61746 1.49811 3.99817 1.49811H8.00192C9.38263 1.49811 10.5019 2.6174 10.5019 3.99811V8.00186C10.5019 9.38257 9.38263 10.5019 8.00192 10.5019H3.99817C2.61746 10.5019 1.49817 9.38257 1.49817 8.00186V3.99811Z" stroke="black" stroke-linecap="round" stroke-linejoin="round"/>
</svg>
