<svg width="12" height="12" viewBox="0 0 12 12" fill="none" xmlns="http://www.w3.org/2000/svg">
<path d="M4.51993 5.40505L7.47993 3.92505M4.51993 6.59503L7.47993 8.07503M4.27631 5.05709C4.79707 5.57786 4.79707 6.42218 4.27631 6.94295C3.75554 7.46371 2.91122 7.46371 2.39045 6.94295C1.86969 6.42218 1.86969 5.57786 2.39045 5.05709C2.91122 4.53633 3.75554 4.53633 4.27631 5.05709ZM9.60937 2.3906C10.1301 2.91137 10.1301 3.75569 9.60937 4.27646C9.08861 4.79722 8.24428 4.79722 7.72352 4.27646C7.20275 3.75569 7.20275 2.91137 7.72352 2.3906C8.24428 1.86984 9.08861 1.86984 9.60937 2.3906ZM9.60937 7.72358C10.1301 8.24435 10.1301 9.08867 9.60937 9.60944C9.08861 10.1302 8.24428 10.1302 7.72352 9.60944C7.20275 9.08867 7.20275 8.24435 7.72352 7.72358C8.24428 7.20282 9.08861 7.20282 9.60937 7.72358Z" stroke="black" stroke-linecap="round" stroke-linejoin="round"/>
</svg>
