<svg width="12" height="12" viewBox="0 0 12 12" fill="none" xmlns="http://www.w3.org/2000/svg">
<path d="M6.7635 5.5625V4.8875C6.7635 4.466 6.4185 4.1225 5.9985 4.1225C5.577 4.1225 5.2335 4.4625 5.2335 4.8825V5.5525M6.875 5.56H5.125C4.845 5.56 4.625 5.78 4.625 6.06V7.12C4.625 7.395 4.845 7.62 5.125 7.62H6.875C7.15 7.62 7.375 7.395 7.375 7.12V6.055C7.375 5.775 7.15 5.555 6.875 5.555V5.56ZM10 5.62C10 7.804 8.4215 9.85001 6.26 10.46C6.09 10.505 5.909 10.505 5.74 10.46C3.575 9.84501 2 7.8 2 5.615V3.6C2 3.19 2.245 2.825 2.62 2.6745L5.05 1.6795C5.655 1.4295 6.337 1.4295 6.94 1.6795L9.37 2.6745C9.745 2.8245 9.99 3.1895 9.99 3.6V5.614L10 5.62Z" stroke="black" stroke-linecap="round" stroke-linejoin="round"/>
</svg>
