<svg width="16" height="16" viewBox="0 0 16 16" fill="none" xmlns="http://www.w3.org/2000/svg">
<path d="M8.11796 7.54871C8.17796 7.60871 8.17796 7.71537 8.11796 7.78204C8.05129 7.84204 7.94463 7.84204 7.87796 7.78204C7.81129 7.71537 7.81129 7.60871 7.87796 7.54204C7.93796 7.47537 8.04463 7.47537 8.11129 7.54204M10.78 7.54871C10.84 7.60871 10.84 7.71537 10.78 7.78204C10.7133 7.84204 10.6066 7.84204 10.54 7.78204C10.4733 7.71537 10.4733 7.60871 10.54 7.54204C10.6 7.47537 10.7066 7.47537 10.7733 7.54204M5.45129 7.54871C5.51129 7.60871 5.51129 7.71537 5.45129 7.78204C5.38463 7.84204 5.27796 7.84204 5.21129 7.78204C5.14463 7.71537 5.14463 7.60871 5.21129 7.54204C5.27129 7.47537 5.37796 7.47537 5.44463 7.54204M13.3333 7.45471C13.3333 10.482 11.0533 13.3127 7.99996 14C4.94196 13.3067 2.66663 10.48 2.66663 7.45471V4.82137C2.66663 4.2747 2.99329 3.78804 3.43329 3.60804L6.76663 2.24404C7.57329 1.9107 8.41329 1.9107 9.16663 2.21737L12.5 3.57737C13 3.77737 13.3266 4.26404 13.3266 4.81137V7.43804L13.3333 7.45471Z" stroke="black" stroke-width="1.3" stroke-linecap="round" stroke-linejoin="round"/>
</svg>
