<svg width="12" height="12" viewBox="0 0 12 12" fill="none" xmlns="http://www.w3.org/2000/svg">
<path d="M6.0885 5.6615C6.1335 5.7065 6.1335 5.7865 6.0885 5.8365C6.0385 5.8815 5.9585 5.8815 5.9085 5.8365C5.8585 5.7865 5.8585 5.7065 5.9085 5.6565C5.9535 5.6065 6.0335 5.6065 6.0835 5.6565M8.085 5.6615C8.13 5.7065 8.13 5.7865 8.085 5.8365C8.035 5.8815 7.955 5.8815 7.905 5.8365C7.855 5.7865 7.855 5.7065 7.905 5.6565C7.95 5.6065 8.03 5.6065 8.08 5.6565M4.0885 5.6615C4.1335 5.7065 4.1335 5.7865 4.0885 5.8365C4.0385 5.8815 3.9585 5.8815 3.9085 5.8365C3.8585 5.7865 3.8585 5.7065 3.9085 5.6565C3.9535 5.6065 4.0335 5.6065 4.0835 5.6565M10 5.591C10 7.8615 8.29 9.9845 6 10.5C3.7065 9.98 2 7.86 2 5.591V3.616C2 3.206 2.245 2.841 2.575 2.706L5.075 1.683C5.68 1.433 6.31 1.433 6.875 1.663L9.375 2.683C9.75 2.833 9.995 3.198 9.995 3.6085V5.5785L10 5.591Z" stroke="black" stroke-linecap="round" stroke-linejoin="round"/>
</svg>
