<svg width="16" height="16" viewBox="0 0 16 16" fill="none" xmlns="http://www.w3.org/2000/svg">
<path d="M9.01796 7.41665V6.51665C9.01796 5.95465 8.55796 5.49665 7.99796 5.49665C7.43596 5.49665 6.97796 5.94999 6.97796 6.50999V7.40332M9.16663 7.41332H6.83329C6.45996 7.41332 6.16663 7.70665 6.16663 8.07999V9.49332C6.16663 9.85999 6.45996 10.16 6.83329 10.16H9.16663C9.53329 10.16 9.83329 9.85999 9.83329 9.49332V8.07332C9.83329 7.69999 9.53329 7.40665 9.16663 7.40665V7.41332ZM13.3333 7.49332C13.3333 10.4053 11.2286 13.1333 8.34663 13.9467C8.11996 14.0067 7.87863 14.0067 7.65329 13.9467C4.76663 13.1267 2.66663 10.4 2.66663 7.48665V4.79999C2.66663 4.25332 2.99329 3.76665 3.49329 3.56599L6.73329 2.23932C7.53996 1.90599 8.44929 1.90599 9.25329 2.23932L12.4933 3.56599C12.9933 3.76599 13.32 4.25265 13.32 4.79999V7.48532L13.3333 7.49332Z" stroke="black" stroke-width="1.3" stroke-linecap="round" stroke-linejoin="round"/>
</svg>
