<svg width="12" height="12" viewBox="0 0 12 12" fill="none" xmlns="http://www.w3.org/2000/svg">
<g clip-path="url(#clip0_3_369)">
<mask id="mask0_3_369" style="mask-type:alpha" maskUnits="userSpaceOnUse" x="0" y="0" width="12" height="12">
<path d="M7.12793 0C6.73238 0.566969 6.5 1.25626 6.5 2C6.5 3.933 8.067 5.5 10 5.5C10.7439 5.5 11.4329 5.26684 12 4.87109V12H0V0H7.12793Z" fill="#D9D9D9"/>
</mask>
<g mask="url(#mask0_3_369)">
<path d="M7.625 5.06252L5.75 6.93752L4.625 5.81252M10 5.59102C10 7.86152 8.29 9.98452 6 10.5C3.7065 9.98002 2 7.86002 2 5.59102V3.80752C2 3.39752 2.245 3.03252 2.62 2.87752L5.12 1.85252C5.68 1.61752 6.314 1.61752 6.875 1.85252L9.375 2.87252C9.75 3.02252 9.995 3.38752 9.995 3.79752V5.58102L10 5.59102Z" stroke="black" stroke-linecap="round" stroke-linejoin="round"/>
</g>
<circle cx="10" cy="2" r="2" fill="#D4A0FF"/>
</g>
<defs>
<clipPath id="clip0_3_369">
<rect width="12" height="12" fill="white"/>
</clipPath>
</defs>
</svg>
