<svg width="12" height="12" viewBox="0 0 12 12" fill="none" xmlns="http://www.w3.org/2000/svg">
<path d="M6.75467 9.5H9.75467M1.76722 4.02539C1.58925 3.72768 1.49678 3.38668 1.49995 3.03984C1.42859 2.27206 1.98389 1.588 2.74995 1.5C4.13066 1.5 5.24995 3.51472 5.24995 6C5.24995 8.48528 4.24259 10.5 2.99995 10.5H3.00098C2.31005 10.5 1.74995 9.60457 1.74995 8.5C1.75038 7.4387 2.1724 6.42104 2.92316 5.67089C3.67393 4.92075 4.69193 4.49956 5.75324 4.5H5.74995C6.78347 4.57374 7.56445 5.46664 7.49995 6.50078C7.49492 7.01051 7.41038 7.51633 7.2494 8C8.14908 5.29323 9.00026 5 9.50016 5C9.76535 5.00003 10.0197 5.1054 10.2072 5.29294C10.3947 5.48047 10.5 5.73481 10.4999 6" stroke="black" stroke-linecap="round" stroke-linejoin="round"/>
</svg>
