<svg width="12" height="12" viewBox="0 0 12 12" fill="none" xmlns="http://www.w3.org/2000/svg">
<path d="M1.50001 4.5H10.5M5.50001 2.9975H5.49501V2.9925L5.49001 2.9875M4.25001 2.9975H4.24501V2.9925L4.24001 2.9875M3.00001 2.9975H2.99501V2.9925L2.99001 2.9875M10.5 5.25V3C10.5 2.17 9.825 1.5 9 1.5H3C2.17 1.5 1.5 2.17 1.5 3V9.00016C1.5 9.82858 2.17157 10.5 3 10.5H5.5M10.5001 9.43298C10.4251 9.65798 10.2951 9.86298 10.1301 10.033C9.5051 10.653 8.4901 10.653 7.8651 10.028C7.7551 9.91798 7.6601 9.79298 7.5901 9.65798M10.405 8.13C9.98 7.35 9.01 7.065 8.23 7.485C8.095 7.555 7.97 7.65 7.86 7.755C7.69 7.92 7.565 8.125 7.49 8.355M9.79152 8.13456H10.4965V7.42456M8.21001 9.66504H7.50001V10.37" stroke="black" stroke-linecap="round" stroke-linejoin="round"/>
</svg>
