<svg width="12" height="12" viewBox="0 0 12 12" fill="none" xmlns="http://www.w3.org/2000/svg">
<path d="M8.00082 6.50022V8.69214C8.00082 8.8816 7.89377 9.0548 7.72431 9.13953L6.51584 9.74378C6.38614 9.80863 6.23469 9.814 6.10072 9.75851C5.96675 9.70302 5.86346 9.59213 5.8176 9.45456L5.49977 8.50106M3.49894 6.50022L2.54546 6.18239C2.4079 6.13654 2.297 6.03325 2.24151 5.89928C2.18602 5.76531 2.1914 5.61386 2.25624 5.48416L2.8605 4.27569C2.94522 4.10624 3.11841 3.99918 3.30786 3.99918H5.49977M8.54887 6.06177L5.84938 8.22137C5.65035 8.3806 5.36343 8.36471 5.1832 8.18448L3.81552 6.8168C3.63529 6.63657 3.6194 6.34965 3.77862 6.15062L5.93822 3.45112C6.92574 2.21672 8.42084 1.49814 10.0016 1.49814C10.2779 1.49814 10.5019 1.72209 10.5019 1.99835C10.5019 3.57915 9.78328 5.07425 8.54887 6.06177ZM2.87373 10.2952L1.49811 10.5019L1.70477 9.12627C1.77181 8.68001 2.12212 8.3297 2.56837 8.26266C2.89085 8.21421 3.21718 8.32167 3.44777 8.55225C3.67835 8.78284 3.78582 9.10917 3.73736 9.43165C3.67031 9.8779 3.31999 10.2282 2.87373 10.2952Z" stroke="black" stroke-linecap="round" stroke-linejoin="round"/>
</svg>
