<svg width="12" height="12" viewBox="0 0 12 12" fill="none" xmlns="http://www.w3.org/2000/svg">
<path d="M6 1C6 0.861929 5.88807 0.75 5.75 0.75C5.61193 0.75 5.5 0.861929 5.5 1V1.16667C5.5 1.459 5.39098 1.73638 5.2015 1.93849C5.01253 2.14005 4.75982 2.25 4.5 2.25C4.36193 2.25 4.25 2.36193 4.25 2.5C4.25 2.63807 4.36193 2.75 4.5 2.75C4.75982 2.75 5.01253 2.85995 5.2015 3.06151C5.39098 3.26362 5.5 3.541 5.5 3.83333V4C5.5 4.13807 5.61193 4.25 5.75 4.25C5.88807 4.25 6 4.13807 6 4V3.83333C6 3.541 6.10902 3.26362 6.2985 3.06151C6.48747 2.85995 6.74018 2.75 7 2.75C7.13807 2.75 7.25 2.63807 7.25 2.5C7.25 2.36193 7.13807 2.25 7 2.25C6.74018 2.25 6.48747 2.14005 6.2985 1.93849C6.10902 1.73638 6 1.459 6 1.16667V1Z" fill="black"/>
<path d="M9.00003 3.95C9.00003 3.81193 8.8881 3.7 8.75003 3.7C8.61196 3.7 8.50003 3.81193 8.50003 3.95C8.50003 4.36332 8.34033 4.75835 8.05822 5.04852C7.77634 5.33846 7.39555 5.5 7.00003 5.5C6.86196 5.5 6.75003 5.61193 6.75003 5.75C6.75003 5.88807 6.86196 6 7.00003 6C7.39555 6 7.77634 6.16154 8.05822 6.45148C8.34033 6.74165 8.50003 7.13667 8.50003 7.55C8.50003 7.68807 8.61196 7.8 8.75003 7.8C8.8881 7.8 9.00003 7.68807 9.00003 7.55C9.00003 7.13667 9.15973 6.74165 9.44184 6.45148C9.72372 6.16154 10.1045 6 10.5 6C10.6381 6 10.75 5.88807 10.75 5.75C10.75 5.61193 10.6381 5.5 10.5 5.5C10.1045 5.5 9.72372 5.33846 9.44184 5.04852C9.15973 4.75835 9.00003 4.36332 9.00003 3.95Z" fill="black"/>
<path d="M4.5 5.5C4.5 5.36193 4.38807 5.25 4.25 5.25C4.11193 5.25 4 5.36193 4 5.5C4 6.16304 3.73661 6.79893 3.26777 7.26777C2.79893 7.73661 2.16304 8 1.5 8C1.36193 8 1.25 8.11193 1.25 8.25C1.25 8.38807 1.36193 8.5 1.5 8.5C2.16304 8.5 2.79893 8.76339 3.26777 9.23223C3.73661 9.70107 4 10.337 4 11C4 11.1381 4.11193 11.25 4.25 11.25C4.38807 11.25 4.5 11.1381 4.5 11C4.5 10.337 4.76339 9.70107 5.23223 9.23223C5.70107 8.76339 6.33696 8.5 7 8.5C7.13807 8.5 7.25 8.38807 7.25 8.25C7.25 8.11193 7.13807 8 7 8C6.33696 8 5.70107 7.73661 5.23223 7.26777C4.76339 6.79893 4.5 6.16304 4.5 5.5Z" fill="black"/>
</svg>
