<svg width="12" height="12" viewBox="0 0 12 12" fill="none" xmlns="http://www.w3.org/2000/svg">
<path d="M1.89384 4.655C1.04384 6.515 1.56384 8.715 3.16384 9.995M8.82455 9.98936C9.87955 9.13436 10.4996 7.84936 10.4946 6.48936C10.4906 4.53435 9.24262 2.87024 7.50044 2.25177M3.15973 9.98936C2.10473 9.13436 1.48473 7.84936 1.48973 6.48936C1.49366 4.53435 2.74166 2.87024 4.48384 2.25177M6.00044 5.49982V1.99982M5.98384 5.495C6.24906 5.495 6.50341 5.60035 6.69095 5.78789C6.87848 5.97543 6.98384 6.22978 6.98384 6.495C6.98384 6.76021 6.87848 7.01457 6.69095 7.2021C6.50341 7.38964 6.24906 7.495 5.98384 7.495C5.71862 7.495 5.46427 7.38964 5.27673 7.2021C5.0892 7.01457 4.98384 6.76021 4.98384 6.495C4.98384 6.22978 5.0892 5.97543 5.27673 5.78789C5.46427 5.60035 5.71862 5.495 5.98384 5.495Z" stroke="black" stroke-linecap="round" stroke-linejoin="round"/>
</svg>
