<svg width="12" height="12" viewBox="0 0 12 12" fill="none" xmlns="http://www.w3.org/2000/svg">
<path d="M6.70497 5.79502L9.24997 3.25002M10.09 4.65502C10.94 6.51502 10.42 8.71502 8.81997 9.99502M7.83997 2.40502C7.25997 2.13502 6.62997 2.00002 5.99497 1.99502L5.99447 1.99452C3.50947 1.98952 1.49447 4.00452 1.48947 6.48952C1.48447 7.84952 2.10447 9.13452 3.15947 9.98952M5.99997 5.49502C5.73475 5.49502 5.4804 5.60037 5.29286 5.78791C5.10533 5.97545 4.99997 6.2298 4.99997 6.49502C4.99997 6.76023 5.10533 7.01459 5.29286 7.20212C5.4804 7.38966 5.73475 7.49502 5.99997 7.49502C6.26519 7.49502 6.51954 7.38966 6.70708 7.20212C6.89461 7.01459 6.99997 6.76023 6.99997 6.49502C6.99997 6.2298 6.89461 5.97545 6.70708 5.78791C6.51954 5.60037 6.26519 5.49502 5.99997 5.49502Z" stroke="black" stroke-linecap="round" stroke-linejoin="round"/>
</svg>
