<svg width="12" height="12" viewBox="0 0 12 12" fill="none" xmlns="http://www.w3.org/2000/svg">
<path d="M5.27884 5.79502L2.73384 3.25002M1.89384 4.65502C1.04384 6.51502 1.56384 8.71502 3.16384 9.99502M4.14384 2.40502C4.72384 2.13502 5.35384 2.00002 5.98884 1.99502L5.98934 1.99452C8.47434 1.98952 10.4893 4.00452 10.4943 6.48952C10.4993 7.84952 9.87934 9.13452 8.82434 9.98952M5.98384 5.49502C6.24906 5.49502 6.50341 5.60037 6.69095 5.78791C6.87848 5.97545 6.98384 6.2298 6.98384 6.49502C6.98384 6.76023 6.87848 7.01459 6.69095 7.20212C6.50341 7.38966 6.24906 7.49502 5.98384 7.49502C5.71862 7.49502 5.46427 7.38966 5.27673 7.20212C5.0892 7.01459 4.98384 6.76023 4.98384 6.49502C4.98384 6.2298 5.0892 5.97545 5.27673 5.78791C5.46427 5.60037 5.71862 5.49502 5.98384 5.49502Z" stroke="black" stroke-linecap="round" stroke-linejoin="round"/>
</svg>
