<svg width="12" height="12" viewBox="0 0 12 12" fill="none" xmlns="http://www.w3.org/2000/svg">
<path d="M9.25 5V4.75C9.25 2.955 7.795 1.5 6 1.5C4.205 1.5 2.75 2.955 2.75 4.75V5M6.9375 10C6.9375 9.655 6.6575 9.375 6.3125 9.375H5.6875C5.3425 9.375 5.0625 9.655 5.0625 10C5.0625 10.345 5.3425 10.625 5.6875 10.625H6.3125C6.6575 10.625 6.9375 10.345 6.9375 10ZM6.9375 10L7.9975 10C8.5475 10 8.9975 9.55 8.9975 9V8.5M9.5 8.5H9C8.72 8.5 8.5 8.275 8.5 8V5.5C8.5 5.22 8.72 5 9 5H9.5C10.05 5 10.5 5.445 10.5 6V7.5C10.5 8.05 10.05 8.5 9.5 8.5ZM3 8.5H2.5C1.9475 8.5 1.5 8.05 1.5 7.5V6C1.5 5.445 1.9475 5 2.5 5H3C3.275 5 3.5 5.22 3.5 5.5V8C3.5 8.275 3.275 8.5 3 8.5Z" stroke="black" stroke-linecap="round" stroke-linejoin="round"/>
</svg>
