<svg width="12" height="12" viewBox="0 0 12 12" fill="none" xmlns="http://www.w3.org/2000/svg">
<path fill-rule="evenodd" clip-rule="evenodd" d="M1.4717 5.40051C4.29026 4.18332 6.16975 3.38088 7.11016 2.99317C9.7952 1.88621 10.3531 1.69392 10.7168 1.68757C10.7968 1.68617 10.9756 1.70582 11.0914 1.79899C11.1893 1.87766 11.2162 1.98393 11.229 2.05852C11.2419 2.1331 11.258 2.30302 11.2452 2.43578C11.0997 3.95113 10.4701 7.62849 10.1498 9.32571C10.0143 10.0439 9.74742 10.2847 9.48906 10.3082C8.92759 10.3594 8.50124 9.94044 7.95743 9.58711C7.10648 9.03421 6.62574 8.69003 5.79974 8.1505C4.84516 7.52699 5.46397 7.18429 6.00799 6.62423C6.15036 6.47766 8.6242 4.24733 8.67208 4.04501C8.67807 4.0197 8.68363 3.92538 8.6271 3.87558C8.57056 3.82577 8.48713 3.8428 8.42691 3.85635C8.34157 3.87555 6.98216 4.76615 4.34868 6.52816C3.96282 6.79079 3.61331 6.91875 3.30017 6.91205C2.95495 6.90465 2.2909 6.71858 1.79724 6.55952C1.19175 6.36443 0.710517 6.26129 0.752422 5.92997C0.774248 5.7574 1.01401 5.58091 1.4717 5.40051Z" fill="black"/>
</svg>
