<svg width="16" height="16" viewBox="0 0 16 16" fill="none" xmlns="http://www.w3.org/2000/svg">
<path fill-rule="evenodd" clip-rule="evenodd" d="M1.9623 7.20071C5.72039 5.57779 8.22638 4.50786 9.48025 3.99093C13.0603 2.51498 13.8042 2.25859 14.2891 2.25012C14.3957 2.24826 14.6342 2.27445 14.7886 2.39868C14.919 2.50357 14.9549 2.64527 14.9721 2.74472C14.9893 2.84417 15.0107 3.07072 14.9937 3.24774C14.7996 5.26821 13.9602 10.1714 13.5331 12.4343C13.3524 13.3919 12.9966 13.7129 12.6521 13.7443C11.9035 13.8126 11.335 13.2539 10.6099 12.7828C9.47534 12.0456 8.83436 11.5867 7.73303 10.8674C6.46025 10.036 7.28534 9.57908 8.01069 8.83234C8.20052 8.63691 11.499 5.66314 11.5628 5.39337C11.5708 5.35963 11.5782 5.23387 11.5028 5.16746C11.4275 5.10106 11.3162 5.12376 11.2359 5.14183C11.1221 5.16743 9.30958 6.3549 5.79828 8.70424C5.2838 9.05442 4.81779 9.22503 4.40027 9.21609C3.93998 9.20624 3.05457 8.95813 2.39636 8.74606C1.58904 8.48594 0.947397 8.34842 1.00327 7.90666C1.03237 7.67656 1.35205 7.44125 1.9623 7.20071Z" fill="black"/>
</svg>
