<svg width="12" height="12" viewBox="0 0 12 12" fill="none" xmlns="http://www.w3.org/2000/svg">
<path d="M6 10L5.97978 9.50041L6 10.5V10ZM6 2V1.5L5.97979 2.49959L6 2ZM8.82842 3.17157L8.47486 3.52513L8.47486 3.52513L8.82842 3.17157ZM8.82842 8.82842L8.47487 8.47486L8.47486 8.47486L8.82842 8.82842ZM3.17157 8.82842L3.52513 8.47487L3.52513 8.47486L3.17157 8.82842ZM3.17157 3.17157L3.52513 3.52513L3.52513 3.52513L3.17157 3.17157ZM6.325 2.01314H6.825C6.825 1.74486 6.61327 1.52439 6.3452 1.51355L6.325 2.01314ZM6.325 9.98685L6.34522 10.4864C6.61327 10.4756 6.825 10.2551 6.825 9.98685H6.325ZM10 6H9.5C9.5 7.933 7.933 9.5 6 9.5V10V10.5C8.48528 10.5 10.5 8.48528 10.5 6H10ZM6 2V2.5C7.933 2.5 9.5 4.067 9.5 6H10H10.5C10.5 3.51472 8.48528 1.5 6 1.5V2ZM8.82842 3.17157L8.47486 3.52513C9.8417 4.89196 9.8417 7.10804 8.47487 8.47486L8.82842 8.82842L9.18197 9.18197C10.9393 7.42462 10.9393 4.57538 9.18197 2.81802L8.82842 3.17157ZM8.82842 8.82842L8.47486 8.47486C7.10803 9.8417 4.89195 9.8417 3.52513 8.47487L3.17157 8.82842L2.81802 9.18197C4.57537 10.9393 7.42461 10.9393 9.18197 9.18197L8.82842 8.82842ZM3.17157 8.82842L3.52513 8.47486C2.15829 7.10803 2.15829 4.89195 3.52513 3.52513L3.17157 3.17157L2.81802 2.81802C1.06066 4.57537 1.06066 7.42461 2.81802 9.18197L3.17157 8.82842ZM3.17157 3.17157L3.52513 3.52513C4.89196 2.15829 7.10804 2.15829 8.47486 3.52513L8.82842 3.17157L9.18197 2.81802C7.42462 1.06066 4.57538 1.06066 2.81802 2.81802L3.17157 3.17157ZM6.325 2.01314L6.3452 1.51355L6.0202 1.50041L6 2L5.97979 2.49959L6.30479 2.51274L6.325 2.01314ZM6 10L6.02022 10.4996L6.34522 10.4864L6.325 9.98685L6.30478 9.48726L5.97978 9.50041L6 10ZM6.325 9.98685H6.825V2.01314H6.325H5.825V9.98685H6.325Z" fill="black"/>
</svg>
