<svg width="16" height="16" viewBox="0 0 16 16" fill="none" xmlns="http://www.w3.org/2000/svg">
<path d="M7.99996 13.3334L7.97367 12.6839L7.99996 13.9834V13.3334ZM7.99996 2.66669V2.01669L7.97369 3.31616L7.99996 2.66669ZM11.7712 4.22878L11.3116 4.6884L11.3116 4.6884L11.7712 4.22878ZM11.7712 11.7712L11.3116 11.3116L11.3116 11.3116L11.7712 11.7712ZM4.22872 11.7712L4.68834 11.3116L4.68834 11.3116L4.22872 11.7712ZM4.22872 4.22878L4.68834 4.68841L4.68834 4.6884L4.22872 4.22878ZM8.43329 2.68421H9.08329C9.08329 2.33545 8.80804 2.04884 8.45956 2.03474L8.43329 2.68421ZM8.43329 13.3158L8.45957 13.9653C8.80805 13.9512 9.08329 13.6646 9.08329 13.3158H8.43329ZM13.3333 8.00002H12.6833C12.6833 10.5866 10.5865 12.6834 7.99996 12.6834V13.3334V13.9834C11.3045 13.9834 13.9833 11.3045 13.9833 8.00002H13.3333ZM7.99996 2.66669V3.31669C10.5865 3.31669 12.6833 5.41349 12.6833 8.00002H13.3333H13.9833C13.9833 4.69552 11.3045 2.01669 7.99996 2.01669V2.66669ZM11.7712 4.22878L11.3116 4.6884C13.1405 6.51736 13.1405 9.48268 11.3116 11.3116L11.7712 11.7712L12.2308 12.2309C14.5674 9.89424 14.5674 6.1058 12.2308 3.76917L11.7712 4.22878ZM11.7712 11.7712L11.3116 11.3116C9.48261 13.1406 6.51729 13.1406 4.68834 11.3116L4.22872 11.7712L3.7691 12.2309C6.10573 14.5675 9.89417 14.5675 12.2308 12.2309L11.7712 11.7712ZM4.22872 11.7712L4.68834 11.3116C2.85939 9.48267 2.85939 6.51735 4.68834 4.68841L4.22872 4.22878L3.76911 3.76916C1.43247 6.10579 1.43247 9.89423 3.7691 12.2309L4.22872 11.7712ZM4.22872 4.22878L4.68834 4.6884C6.5173 2.85945 9.48262 2.85945 11.3116 4.6884L11.7712 4.22878L12.2308 3.76917C9.89418 1.43253 6.10574 1.43253 3.7691 3.76917L4.22872 4.22878ZM8.43329 2.68421L8.45956 2.03474L8.02622 2.01722L7.99996 2.66669L7.97369 3.31616L8.40702 3.33368L8.43329 2.68421ZM7.99996 13.3334L8.02624 13.9828L8.45957 13.9653L8.43329 13.3158L8.40701 12.6663L7.97367 12.6839L7.99996 13.3334ZM8.43329 13.3158H9.08329V2.68421H8.43329H7.78329V13.3158H8.43329Z" fill="black"/>
</svg>
