<svg width="12" height="12" viewBox="0 0 12 12" fill="none" xmlns="http://www.w3.org/2000/svg">
<path d="M8.5033 5.61655C8.45824 5.59487 8.41247 5.57401 8.36611 5.55403C8.28536 4.06068 7.47239 3.20574 6.10733 3.19699C6.10115 3.19695 6.09499 3.19695 6.08881 3.19695C5.27232 3.19695 4.59327 3.54677 4.17531 4.18332L4.92605 4.70023C5.23828 4.22475 5.7283 4.12339 6.08917 4.12339C6.09334 4.12339 6.09752 4.12339 6.10165 4.12343C6.55111 4.1263 6.89028 4.25747 7.1098 4.51327C7.26955 4.69949 7.37639 4.95684 7.4293 5.28161C7.0308 5.21363 6.59982 5.19273 6.1391 5.21924C4.84126 5.29428 4.0069 6.05403 4.06294 7.10972C4.09137 7.64522 4.35716 8.10591 4.81131 8.40685C5.19528 8.66126 5.68982 8.78567 6.20379 8.75751C6.88254 8.72016 7.41502 8.46023 7.7865 7.98494C8.06862 7.624 8.24706 7.15626 8.32584 6.56689C8.64932 6.76284 8.88905 7.02069 9.02145 7.33066C9.24658 7.85757 9.25971 8.72344 8.55582 9.42934C7.93911 10.0477 7.19779 10.3153 6.07745 10.3235C4.83469 10.3143 3.89481 9.91426 3.28373 9.13452C2.71149 8.40439 2.41576 7.3498 2.40473 6C2.41576 4.65019 2.71149 3.59559 3.28373 2.86546C3.89481 2.08574 4.83468 1.6857 6.07743 1.67643C7.32921 1.68577 8.28547 2.08773 8.91994 2.87122C9.23105 3.25543 9.46561 3.73861 9.62024 4.30197L10.5 4.06637C10.3126 3.37293 10.0176 2.77539 9.61631 2.27983C8.80291 1.27537 7.61329 0.760672 6.0805 0.75H6.07437C4.54469 0.760635 3.36839 1.27729 2.57816 2.28559C1.87496 3.18285 1.51223 4.43133 1.50004 5.99631L1.5 6L1.50004 6.00369C1.51223 7.56866 1.87496 8.81717 2.57816 9.71443C3.36839 10.7227 4.54469 11.2394 6.07437 11.25H6.0805C7.44047 11.2405 8.39907 10.8832 9.18877 10.0912C10.222 9.05517 10.1909 7.75651 9.85032 6.95927C9.60601 6.38757 9.14023 5.92323 8.5033 5.61655ZM6.1552 7.83241C5.58638 7.86457 4.99543 7.6083 4.96629 7.05941C4.9447 6.65242 5.25486 6.1983 6.19011 6.1442C6.29721 6.138 6.40232 6.13497 6.50556 6.13497C6.84528 6.13497 7.16308 6.16809 7.45202 6.23149C7.34425 7.58238 6.71211 7.80173 6.1552 7.83241Z" fill="black"/>
</svg>
