<svg width="16" height="16" viewBox="0 0 16 16" fill="none" xmlns="http://www.w3.org/2000/svg">
<path d="M11.3377 7.48873C11.2777 7.45983 11.2166 7.43201 11.1548 7.40537C11.0471 5.41424 9.96319 4.27432 8.14311 4.26266C8.13486 4.2626 8.12666 4.26261 8.11841 4.26261C7.02977 4.26261 6.12435 4.72902 5.56708 5.57776L6.56807 6.26697C6.98438 5.633 7.63773 5.49785 8.11889 5.49785C8.12445 5.49785 8.13003 5.49785 8.13553 5.4979C8.73482 5.50174 9.18704 5.67663 9.47973 6.01769C9.69273 6.26599 9.83519 6.60911 9.90573 7.04215C9.37439 6.95151 8.79976 6.92364 8.18547 6.95899C6.45501 7.05904 5.34253 8.07203 5.41725 9.47962C5.45517 10.1936 5.80955 10.8079 6.41508 11.2091C6.92704 11.5483 7.58642 11.7142 8.27172 11.6767C9.17672 11.6269 9.8867 11.2803 10.382 10.6466C10.7582 10.1653 10.9961 9.54168 11.1011 8.75585C11.5324 9.01711 11.8521 9.36092 12.0286 9.77421C12.3288 10.4768 12.3463 11.6312 11.4078 12.5725C10.5855 13.397 9.59705 13.7537 8.10327 13.7647C6.44626 13.7524 5.19308 13.219 4.3783 12.1794C3.61533 11.2059 3.22102 9.79973 3.20631 8C3.22102 6.20026 3.61533 4.79412 4.3783 3.82061C5.19308 2.78098 6.44623 2.2476 8.10324 2.23524C9.77228 2.2477 11.0473 2.78364 11.8933 3.82829C12.3081 4.34057 12.6208 4.98481 12.827 5.73596L14 5.42183C13.7501 4.49724 13.3569 3.70052 12.8217 3.03977C11.7372 1.70049 10.1511 1.01423 8.10734 1H8.09915C6.05959 1.01418 4.49119 1.70305 3.43755 3.04745C2.49994 4.2438 2.0163 5.90844 2.00005 7.99508L2 8L2.00005 8.00492C2.0163 10.0915 2.49994 11.7562 3.43755 12.9526C4.49119 14.2969 6.05959 14.9859 8.09915 15H8.10734C9.92062 14.9874 11.1988 14.5109 12.2517 13.455C13.6293 12.0736 13.5878 10.342 13.1338 9.27903C12.808 8.51676 12.187 7.89764 11.3377 7.48873ZM8.20693 10.4432C7.44851 10.4861 6.66058 10.1444 6.62173 9.41254C6.59293 8.8699 7.00647 8.2644 8.25348 8.19227C8.39629 8.184 8.53642 8.17996 8.67408 8.17996C9.12703 8.17996 9.55078 8.22412 9.93602 8.30866C9.79233 10.1098 8.94949 10.4023 8.20693 10.4432Z" fill="black"/>
</svg>
