<svg width="12" height="12" viewBox="0 0 12 12" fill="none" xmlns="http://www.w3.org/2000/svg">
<path d="M9.15575 2.85466C8.59985 2.4858 8.19852 1.89586 8.07342 1.2081C8.04636 1.05943 8.03154 0.906557 8.03154 0.75H6.25718L6.25426 7.98457C6.22444 8.79471 5.56912 9.44495 4.7656 9.44495C4.51591 9.44495 4.2807 9.38149 4.07374 9.27051C3.59901 9.0163 3.27419 8.50999 3.27419 7.92742C3.27419 7.09064 3.9433 6.40989 4.7656 6.40989C4.91914 6.40989 5.06629 6.43566 5.2057 6.48001V4.6371C5.06147 4.61711 4.915 4.60466 4.7656 4.60466C2.96505 4.60484 1.5 6.09537 1.5 7.92742C1.5 9.05154 2.05211 10.0463 2.89423 10.6478C3.42462 11.0266 4.06995 11.25 4.76577 11.25C6.5665 11.25 8.03154 9.75947 8.03154 7.92742V4.25894C8.72737 4.76718 9.57999 5.06662 10.5 5.06662V3.2614C10.0044 3.2614 9.54277 3.1115 9.15575 2.85466Z" fill="black"/>
</svg>
