<svg width="12" height="12" viewBox="0 0 12 12" fill="none" xmlns="http://www.w3.org/2000/svg">
<path d="M5.91497 7.50001L8.41497 10C8.82497 10.41 9.49997 10.41 9.91497 10C10.325 9.58501 10.325 8.91001 9.91497 8.50001L7.41497 6.00001M3.41997 3.50001L5.16997 5.25001M10.455 2.92001C10.465 2.93001 10.475 2.94501 10.48 2.96001C10.715 3.74001 10.53 4.62501 9.90997 5.24001C9.27997 5.86501 8.38997 6.04451 7.59997 5.79501L3.42647 9.96501C3.01647 10.37 2.35647 10.4 1.93647 10.01C1.49147 9.59501 1.48147 8.90501 1.90647 8.48001L6.09647 4.28501C5.84647 3.49501 6.02647 2.60001 6.65147 1.97501C7.26647 1.35601 8.15147 1.17001 8.93147 1.40501C8.94647 1.41001 8.96147 1.41501 8.97147 1.43001L9.05147 1.51001C9.08647 1.54501 9.08647 1.61001 9.05147 1.65001L7.72997 2.96501L8.88997 4.12501L10.205 2.80501C10.24 2.76501 10.305 2.76501 10.345 2.80501L10.425 2.88501L10.455 2.92001ZM1.46497 2.14501L1.79997 3.15501C1.86497 3.35501 2.05497 3.49501 2.26997 3.49501H3.40947V2.35551C3.40947 2.14051 3.26947 1.94551 3.06447 1.88051L2.04947 1.54051C1.95947 1.51051 1.85947 1.53051 1.78947 1.60101L1.50447 1.88101C1.43447 1.94601 1.40947 2.04601 1.44397 2.13601L1.46497 2.14501Z" stroke="black" stroke-linecap="round" stroke-linejoin="round"/>
</svg>
