<svg width="12" height="12" viewBox="0 0 12 12" fill="none" xmlns="http://www.w3.org/2000/svg">
<path d="M9.25 3.25V9.5C9.25 9.76522 9.14464 10.0196 8.95711 10.2071C8.76957 10.3946 8.51522 10.5 8.25 10.5H3.75C3.48478 10.5 3.23043 10.3946 3.04289 10.2071C2.85536 10.0196 2.75 9.76522 2.75 9.5V3.25M10 3.25001H2M7 8.5V5.5M5 8.5V5.5M4.25 3.25V2.25C4.25 2.05109 4.32902 1.86032 4.46967 1.71967C4.61032 1.57902 4.80109 1.5 5 1.5H7C7.19891 1.5 7.38968 1.57902 7.53033 1.71967C7.67098 1.86032 7.75 2.05109 7.75 2.25V3" stroke="black" stroke-linecap="round" stroke-linejoin="round"/>
</svg>
