<svg width="12" height="12" viewBox="0 0 12 12" fill="none" xmlns="http://www.w3.org/2000/svg">
<path d="M5 2H7C7.275 2 7.5 2.22 7.5 2.5V7.5H1M2.5 9.705H1.5C1.224 9.705 1 9.48 1 9.205V6.495M7.5 3.5H9.6615C9.8615 3.5 10.0465 3.62 10.1215 3.81L10.9215 5.815C10.9665 5.93 10.9915 6.055 10.9915 6.185V9.159C10.9915 9.434 10.7665 9.659 10.4915 9.659H9.5715M8 9.71H4.085M11 7H9V5H10.6M1 2H3.5M1 3.5H2.5M1.5 5H1M9.352 9.145C9.657 9.45 9.657 9.955 9.352 10.265C9.042 10.57 8.537 10.57 8.232 10.265C7.922 9.955 7.922 9.45 8.232 9.145C8.537 8.835 9.042 8.835 9.352 9.145ZM3.852 9.145C4.157 9.45 4.157 9.955 3.852 10.265C3.542 10.57 3.037 10.57 2.732 10.265C2.422 9.955 2.422 9.45 2.732 9.145C3.037 8.835 3.542 8.835 3.852 9.145Z" stroke="black" stroke-linecap="round" stroke-linejoin="round"/>
</svg>
