<svg width="12" height="12" viewBox="0 0 12 12" fill="none" xmlns="http://www.w3.org/2000/svg">
<path d="M6 8.5C5.66848 8.5 5.35054 8.6317 5.11612 8.86612C4.8817 9.10054 4.75 9.41848 4.75 9.75C4.75 10.0815 4.8817 10.3995 5.11612 10.6339C5.35054 10.8683 5.66848 11 6 11C6.33152 11 6.64946 10.8683 6.88388 10.6339C7.1183 10.3995 7.25 10.0815 7.25 9.75C7.25 9.41848 7.1183 9.10054 6.88388 8.86612C6.64946 8.6317 6.33152 8.5 6 8.5ZM6 8.5V1M6 1L7.125 2.125M6 1L4.875 2.125M6 7.61L4.03 7.17C3.57 7.065 3.245 6.66 3.245 6.19V5.49M6 6.825L8.035 6.21C8.455 6.08 8.745 5.69 8.745 5.25V4.74M8.375 3H9.125C9.40114 3 9.625 3.22386 9.625 3.5V4.25C9.625 4.52614 9.40114 4.75 9.125 4.75H8.375C8.09886 4.75 7.875 4.52614 7.875 4.25V3.5C7.875 3.22386 8.09886 3 8.375 3ZM3.25 3.75C3.01794 3.75 2.79538 3.84219 2.63128 4.00628C2.46719 4.17038 2.375 4.39294 2.375 4.625C2.375 4.85706 2.46719 5.07962 2.63128 5.24372C2.79538 5.40781 3.01794 5.5 3.25 5.5C3.48206 5.5 3.70462 5.40781 3.86872 5.24372C4.03281 5.07962 4.125 4.85706 4.125 4.625C4.125 4.39294 4.03281 4.17038 3.86872 4.00628C3.70462 3.84219 3.48206 3.75 3.25 3.75Z" stroke="black" stroke-linecap="round" stroke-linejoin="round"/>
</svg>
