<svg width="12" height="12" viewBox="0 0 12 12" fill="none" xmlns="http://www.w3.org/2000/svg">
<path d="M2 10C2 8.755 3.005 7.75 4.25 7.75H5.5415M9.5 8.469L8 9.969L7.1 9.069M6 2C5.72094 2 5.44461 2.05496 5.1868 2.16176C4.92898 2.26855 4.69472 2.42507 4.4974 2.6224C4.30007 2.81972 4.14355 3.05398 4.03676 3.3118C3.92996 3.56961 3.875 3.84594 3.875 4.125C3.875 4.40406 3.92996 4.68039 4.03676 4.9382C4.14355 5.19602 4.30007 5.43028 4.4974 5.6276C4.69472 5.82493 4.92898 5.98145 5.1868 6.08824C5.44461 6.19504 5.72094 6.25 6 6.25C6.27906 6.25 6.55539 6.19504 6.8132 6.08824C7.07102 5.98145 7.30528 5.82493 7.5026 5.6276C7.69993 5.43028 7.85645 5.19602 7.96324 4.9382C8.07004 4.68039 8.125 4.40406 8.125 4.125C8.125 3.84594 8.07004 3.56961 7.96324 3.3118C7.85645 3.05398 7.69993 2.81972 7.5026 2.6224C7.30528 2.42507 7.07102 2.26855 6.8132 2.16176C6.55539 2.05496 6.27906 2 6 2Z" stroke="black" stroke-linecap="round" stroke-linejoin="round"/>
</svg>
