<svg width="12" height="12" viewBox="0 0 12 12" fill="none" xmlns="http://www.w3.org/2000/svg">
<path d="M7.785 8.21V7.495C7.785 6.94 8.2295 6.495 8.7845 6.495C9.3345 6.495 9.7845 6.94 9.7845 7.495V8.205M5.5 7.5H3.5C2.395 7.5 1.5 8.395 1.5 9.5V10M7.785 8.214H9.7855C10.1798 8.214 10.4995 8.53367 10.4995 8.928V9.7855C10.4995 10.1798 10.1798 10.4995 9.7855 10.4995H7.785C7.39067 10.4995 7.071 10.1798 7.071 9.7855V8.928C7.071 8.53367 7.39067 8.214 7.785 8.214ZM5.5 1.5C4.96957 1.5 4.46086 1.71071 4.08579 2.08579C3.71071 2.46086 3.5 2.96957 3.5 3.5C3.5 4.03043 3.71071 4.53914 4.08579 4.91421C4.46086 5.28929 4.96957 5.5 5.5 5.5C6.03043 5.5 6.53914 5.28929 6.91421 4.91421C7.28929 4.53914 7.5 4.03043 7.5 3.5C7.5 2.96957 7.28929 2.46086 6.91421 2.08579C6.53914 1.71071 6.03043 1.5 5.5 1.5Z" stroke="black" stroke-linecap="round" stroke-linejoin="round"/>
</svg>
