<svg width="12" height="12" viewBox="0 0 12 12" fill="none" xmlns="http://www.w3.org/2000/svg">
<path d="M9 8.875H7.75M8.375 8.25V9.5M5 7.5H3.5C2.395 7.5 1.5 8.395 1.5 9.5V10M8.375 6.75C7.81142 6.75 7.27091 6.97388 6.8724 7.3724C6.47388 7.77091 6.25 8.31142 6.25 8.875C6.25 9.43859 6.47388 9.97909 6.8724 10.3776C7.27091 10.7761 7.81142 11 8.375 11C8.93859 11 9.47909 10.7761 9.8776 10.3776C10.2761 9.97909 10.5 9.43859 10.5 8.875C10.5 8.31142 10.2761 7.77091 9.8776 7.3724C9.47909 6.97388 8.93859 6.75 8.375 6.75ZM5.5 1.5C4.96957 1.5 4.46086 1.71071 4.08579 2.08579C3.71071 2.46086 3.5 2.96957 3.5 3.5C3.5 4.03043 3.71071 4.53914 4.08579 4.91421C4.46086 5.28929 4.96957 5.5 5.5 5.5C6.03043 5.5 6.53914 5.28929 6.91421 4.91421C7.28929 4.53914 7.5 4.03043 7.5 3.5C7.5 2.96957 7.28929 2.46086 6.91421 2.08579C6.53914 1.71071 6.03043 1.5 5.5 1.5Z" stroke="black" stroke-linecap="round" stroke-linejoin="round"/>
</svg>
