<svg width="12" height="12" viewBox="0 0 12 12" fill="none" xmlns="http://www.w3.org/2000/svg">
<path d="M5.6715 8C4.5965 8 3.5715 8.425 2.8165 9.18M10.5 6C10.5 3.51 8.485 1.5 6 1.5C3.51 1.5 1.5 3.51 1.5 6C1.5 8.485 3.51 10.5 6 10.5M7.5 8.225V8.645C7.495 9.425 7.9795 10.125 8.7145 10.4L8.9295 10.48C8.9695 10.495 9.0145 10.495 9.0595 10.48L9.2745 10.395C10.0045 10.12 10.4895 9.42 10.4895 8.635V8.21C10.4895 8.045 10.3795 7.9 10.2245 7.85L9.0995 7.495C9.0245 7.47 8.9445 7.47 8.8745 7.495L7.7495 7.845C7.5895 7.89 7.4845 8.035 7.4845 8.2L7.5 8.225ZM7.5 4.875V5.125C7.5 5.95 6.825 6.625 6 6.625C5.17 6.625 4.5 5.95 4.5 5.125V4.875C4.5 4.045 5.17 3.375 6 3.375C6.825 3.375 7.5 4.045 7.5 4.875Z" stroke="black" stroke-linecap="round" stroke-linejoin="round"/>
</svg>
