<svg width="12" height="12" viewBox="0 0 12 12" fill="none" xmlns="http://www.w3.org/2000/svg">
<path d="M3 9C4.775 7.665 7.2195 7.665 8.9995 9M6 1.5C5.40905 1.5 4.82389 1.6164 4.27792 1.84254C3.73196 2.06869 3.23588 2.40016 2.81802 2.81802C2.40016 3.23588 2.06869 3.73196 1.84254 4.27792C1.6164 4.82389 1.5 5.40905 1.5 6C1.5 6.59095 1.6164 7.17611 1.84254 7.72208C2.06869 8.26804 2.40016 8.76412 2.81802 9.18198C3.23588 9.59984 3.73196 9.93131 4.27792 10.1575C4.82389 10.3836 5.40905 10.5 6 10.5C6.59095 10.5 7.17611 10.3836 7.72208 10.1575C8.26804 9.93131 8.76412 9.59984 9.18198 9.18198C9.59984 8.76412 9.93131 8.26804 10.1575 7.72208C10.3836 7.17611 10.5 6.59095 10.5 6C10.5 5.40905 10.3836 4.82389 10.1575 4.27792C9.93131 3.73196 9.59984 3.23588 9.18198 2.81802C8.76412 2.40016 8.26804 2.06869 7.72208 1.84254C7.17611 1.6164 6.59095 1.5 6 1.5ZM6 3.5C5.60218 3.5 5.22064 3.65804 4.93934 3.93934C4.65804 4.22064 4.5 4.60218 4.5 5C4.5 5.39782 4.65804 5.77936 4.93934 6.06066C5.22064 6.34197 5.60218 6.5 6 6.5C6.39783 6.5 6.77936 6.34197 7.06066 6.06066C7.34197 5.77936 7.5 5.39782 7.5 5C7.5 4.60218 7.34197 4.22064 7.06066 3.93934C6.77936 3.65804 6.39783 3.5 6 3.5Z" stroke="black" stroke-linecap="round" stroke-linejoin="round"/>
</svg>
