<svg width="12" height="12" viewBox="0 0 12 12" fill="none" xmlns="http://www.w3.org/2000/svg">
<path d="M8.2975 6.56247C8.1925 6.56247 8.1075 6.64247 8.1075 6.74747C8.1075 6.84747 8.1875 6.93497 8.295 6.93247C8.395 6.93247 8.4825 6.84747 8.4825 6.74497C8.4825 6.63997 8.3975 6.55747 8.2925 6.55747M1.5 2.49997V9.24997C1.5 9.79997 1.9475 10.25 2.5 10.25H9.5C10.05 10.25 10.5 9.79997 10.5 9.24997V4.24997C10.5 3.69497 10.05 3.24997 9.5 3.24997H2.25C1.835 3.24997 1.5 2.90997 1.5 2.49997ZM1.5 2.49997C1.5 2.08497 1.835 1.74997 2.25 1.74997H8.5" stroke="black" stroke-linecap="round" stroke-linejoin="round"/>
</svg>
