<svg width="16" height="16" viewBox="0 0 16 16" fill="none" xmlns="http://www.w3.org/2000/svg">
<path d="M11.0633 8.74995C10.9233 8.74995 10.81 8.85662 10.81 8.99662C10.81 9.12995 10.9167 9.24662 11.06 9.24328C11.1933 9.24328 11.31 9.12995 11.31 8.99328C11.31 8.85328 11.1967 8.74328 11.0567 8.74328M2 3.33328V12.3333C2 13.0666 2.59667 13.6666 3.33333 13.6666H12.6667C13.4 13.6666 14 13.0666 14 12.3333V5.66662C14 4.92662 13.4 4.33328 12.6667 4.33328H3C2.44667 4.33328 2 3.87995 2 3.33328ZM2 3.33328C2 2.77995 2.44667 2.33328 3 2.33328H11.3333" stroke="black" stroke-width="1.3" stroke-linecap="round" stroke-linejoin="round"/>
</svg>
