<svg width="16" height="16" viewBox="0 0 16 16" fill="none" xmlns="http://www.w3.org/2000/svg">
<path d="M3.58667 12.08L2.33333 13.3333M2 7.33332V4.33332C2 3.40666 2.74 2.66666 3.66667 2.66666H11.6667C12.5867 2.66666 13.3333 3.40666 13.3333 4.33332V6.33332M13.3333 6.33332L12.3333 6.33332C11.4067 6.33332 10.6667 7.07332 10.6667 7.99999C10.6667 8.91999 11.4067 9.66666 12.3333 9.66666H13.3333M13.3333 6.33332C13.7 6.33332 14 6.62666 14 6.99999V8.99999C14 9.36666 13.7 9.66666 13.3333 9.66666M13.3333 9.66666V11.6667C13.3333 12.5867 12.5867 13.3333 11.6667 13.3333H8.66667M5 8.66666C4.46957 8.66666 3.96086 8.87737 3.58579 9.25244C3.21071 9.62752 3 10.1362 3 10.6667C3 11.1971 3.21071 11.7058 3.58579 12.0809C3.96086 12.4559 4.46957 12.6667 5 12.6667C5.53043 12.6667 6.03914 12.4559 6.41421 12.0809C6.78929 11.7058 7 11.1971 7 10.6667C7 10.1362 6.78929 9.62752 6.41421 9.25244C6.03914 8.87737 5.53043 8.66666 5 8.66666Z" stroke="black" stroke-width="1.3" stroke-linecap="round" stroke-linejoin="round"/>
</svg>
