<svg width="12" height="12" viewBox="0 0 12 12" fill="none" xmlns="http://www.w3.org/2000/svg">
<path d="M2.69 9.06L1.75 10M1.5 5.5V3.25C1.5 2.555 2.055 2 2.75 2H8.75C9.44 2 10 2.555 10 3.25V4.75M10 4.75L9.25 4.75C8.555 4.75 8 5.305 8 6C8 6.69 8.555 7.25 9.25 7.25H10M10 4.75C10.275 4.75 10.5 4.97 10.5 5.25V6.75C10.5 7.025 10.275 7.25 10 7.25M10 7.25V8.75C10 9.44 9.44 10 8.75 10H6.5M3.75 6.5C3.35218 6.5 2.97064 6.65804 2.68934 6.93934C2.40804 7.22064 2.25 7.60218 2.25 8C2.25 8.39783 2.40804 8.77936 2.68934 9.06066C2.97064 9.34197 3.35218 9.5 3.75 9.5C4.14782 9.5 4.52936 9.34197 4.81066 9.06066C5.09197 8.77936 5.25 8.39783 5.25 8C5.25 7.60218 5.09197 7.22064 4.81066 6.93934C4.52936 6.65804 4.14782 6.5 3.75 6.5Z" stroke="black" stroke-linecap="round" stroke-linejoin="round"/>
</svg>
