<svg width="12" height="12" viewBox="0 0 12 12" fill="none" xmlns="http://www.w3.org/2000/svg">
<path fill-rule="evenodd" clip-rule="evenodd" d="M7.32969 1.87922C6.73758 0.838198 5.23811 0.835342 4.64876 1.87995L4.6482 1.88093L0.824908 8.58081C0.236715 9.60983 0.979645 10.8905 2.16493 10.8905H9.82444C11.0064 10.8905 11.7535 9.60662 11.1649 8.58071L7.32969 1.87922ZM6.37512 4.69C6.37512 4.4829 6.20722 4.315 6.00012 4.315C5.79301 4.315 5.62512 4.4829 5.62512 4.69V6.56C5.62512 6.76711 5.79301 6.935 6.00012 6.935C6.20722 6.935 6.37512 6.76711 6.37512 6.56V4.69ZM5.99512 7.6875L5.99258 7.68751L5.99012 7.6875C5.97969 7.6875 5.96936 7.68793 5.95915 7.68876C5.69898 7.70707 5.49512 7.92249 5.49512 8.1875C5.49512 8.44986 5.70839 8.6875 5.99512 8.6875C6.14269 8.6875 6.26557 8.62113 6.34716 8.53954C6.42874 8.45796 6.49512 8.33507 6.49512 8.1875C6.49512 7.90758 6.27392 7.70988 6.03187 7.68928C6.01978 7.68811 6.00752 7.6875 5.99512 7.6875Z" fill="black"/>
</svg>
