<svg width="12" height="12" viewBox="0 0 12 12" fill="none" xmlns="http://www.w3.org/2000/svg">
<path fill-rule="evenodd" clip-rule="evenodd" d="M5.46352 5.46576C5.73196 5.90134 6.09864 6.26802 6.53421 6.53646L6.94514 6.2899C7.12435 6.18237 7.35153 6.19765 7.51473 6.32821L8.31229 6.96624C8.42393 7.05555 8.492 7.18838 8.49931 7.33116C8.50661 7.47394 8.45244 7.61302 8.35049 7.71324L7.98994 8.06774C7.49329 8.55748 6.72467 8.64042 6.13499 8.26789C5.17317 7.64579 4.35419 6.82681 3.73209 5.86499C3.35955 5.2753 3.44249 4.50666 3.93224 4.01001L4.28674 3.64945C4.38697 3.54751 4.52604 3.49335 4.66882 3.50065C4.81159 3.50796 4.94441 3.57602 5.03372 3.68766L5.67176 4.48522C5.80232 4.64842 5.8176 4.8756 5.71007 5.05481L5.46352 5.46576Z" fill="black"/>
<path fill-rule="evenodd" clip-rule="evenodd" d="M3.4338 9.99317L2.0853 10.2185C2.00121 10.2326 1.91552 10.2051 1.85523 10.1448C1.79495 10.0845 1.76751 9.99885 1.78155 9.91476L2.00685 8.5662C0.691004 6.52113 1.12872 3.813 3.02184 2.2866C4.91495 0.760197 7.65431 0.906673 9.37386 2.62624C11.0934 4.34581 11.2398 7.08518 9.71342 8.97827C8.18699 10.8714 5.47885 11.309 3.4338 9.99317Z" stroke="black" stroke-linecap="round" stroke-linejoin="round"/>
</svg>
