<svg width="12" height="12" viewBox="0 0 12 12" fill="none" xmlns="http://www.w3.org/2000/svg">
<path fill-rule="evenodd" clip-rule="evenodd" d="M10.103 2.47401C10.5551 2.59748 10.9103 2.95996 11.0313 3.42121H11.0305C11.25 4.25641 11.25 6 11.25 6C11.25 6 11.25 7.74359 11.0305 8.57879C10.9095 9.04004 10.5542 9.40252 10.1022 9.52599C9.28363 9.75 6 9.75 6 9.75C6 9.75 2.71637 9.75 1.89784 9.52599C1.44579 9.40252 1.09055 9.04004 0.969542 8.57879C0.75 7.74359 0.75 6 0.75 6C0.75 6 0.75 4.25641 0.969542 3.42121C1.09055 2.95996 1.44579 2.59748 1.89784 2.47401C2.71637 2.25 6 2.25 6 2.25C6 2.25 9.28363 2.25 10.103 2.47401ZM7.67853 6L4.94981 4.39311V7.60689L7.67853 6Z" fill="black"/>
</svg>
