<svg width="181" height="58" viewBox="0 0 181 58" fill="none" xmlns="http://www.w3.org/2000/svg">
<path d="M25.3441 4.19387H4.23855V16.8297H0.640625V0.595947H25.3441V4.19387ZM0.640625 41.5331H4.23855V54.1689H25.3441V57.7668H0.640625V41.5331Z" fill="black"/>
<path d="M145.797 4.19387H124.691V0.595947H149.395V16.8297H145.797V4.19387V4.19387ZM124.691 54.1689H145.797V41.5331H149.395V57.7668H124.691V54.1689V54.1689Z" fill="black"/>
<path d="M109.869 23.3262V26.4911C110.853 24.0647 112.963 22.7987 115.636 22.7987C119.082 22.7987 121.403 24.8735 121.403 29.3747V40.9091H116.128V30.3242C116.128 28.1439 115.108 27.1241 113.315 27.1241C111.416 27.1241 110.185 28.3901 110.185 30.8517V40.9091H104.91V23.3262H109.869Z" fill="black"/>
<path d="M103.218 35.4584C102.655 39.0805 99.3494 41.4366 94.8482 41.4366C89.6085 41.4366 85.8457 38.342 85.8457 32.1177C85.8457 25.8581 89.6085 22.7987 94.8482 22.7987C99.7714 22.7987 103.499 25.8933 103.499 32.1177C103.499 32.5748 103.499 32.9968 103.464 33.4188H90.8744C91.0502 36.1617 92.5975 37.4629 94.8482 37.4629C96.6065 37.4629 97.5559 36.6892 97.9428 35.4584H103.218ZM94.8482 26.7373C92.7734 26.7373 91.2612 27.8978 90.9448 30.2539H98.4351C98.1537 27.8978 96.7823 26.7373 94.8482 26.7373Z" fill="black"/>
<path d="M25.417 40.8615V17.5012H30.356V36.7894H40.3708V40.8615H25.417Z" fill="black"/>
<path d="M46.9526 33.9815C46.9527 36.0912 47.9017 37.0761 49.5894 37.0762C51.4179 37.0762 52.6137 35.8452 52.6138 33.4542V32.709C53.9643 32.9534 55.4641 33.4021 56.1938 34.1534C57.254 35.2452 57.7423 38.0239 57.8872 39.5674H57.8892V40.9092H52.895V37.8848C51.9104 40.2056 49.836 41.4365 47.269 41.4366C43.9283 41.4366 41.6772 39.3616 41.6772 34.9307V23.3262H46.9526V33.9815ZM57.8892 24.669H57.8862C57.7405 26.214 57.2527 28.9872 56.1938 30.0772C55.464 30.8282 53.9641 31.2748 52.6138 31.5186V23.3262H57.8892V24.669Z" fill="black"/>
<path d="M63.9141 40.9089H58.6396V39.5583C58.7856 38.0131 59.2739 35.2429 60.332 34.1531C61.062 33.4015 62.5631 32.953 63.9141 32.7087V40.9089ZM79.4932 22.7986C82.7283 22.7987 84.9434 24.8033 84.9434 29.199V40.9089H79.6689V30.1482C79.6689 28.0735 78.7895 27.1238 77.207 27.1238C75.5192 27.1239 74.4288 28.3548 74.4287 30.6755V40.9089H69.1543V30.1482C69.1543 28.0735 68.2748 27.1238 66.6924 27.1238C65.0046 27.1239 63.9141 28.3548 63.9141 30.6755V31.5183C62.5631 31.2746 61.062 30.8284 60.332 30.0769C59.4055 29.1229 58.9163 26.8802 58.7109 25.2996L58.6396 24.6687V23.3259H63.5977V26.3152C64.5471 23.9942 66.5169 22.7986 69.0137 22.7986C71.4049 22.7986 73.2332 23.924 74.0068 26.28C74.9915 23.9942 76.9964 22.7986 79.4932 22.7986Z" fill="black"/>
<path d="M124.691 10.594C124.81 12.2813 125.394 15.9931 126.784 17.3831C128.089 18.6873 131.422 19.2176 133.214 19.3459L133.551 19.3665C131.875 19.448 128.176 19.9595 126.784 21.3508C125.393 22.7422 124.809 26.4599 124.691 28.1448L124.697 28.1467H124.686L124.691 28.1448C124.574 26.46 123.99 22.7424 122.599 21.3508C121.207 19.9595 117.508 19.448 115.832 19.3665C117.508 19.2849 121.207 18.7743 122.599 17.3831C123.989 15.9931 124.573 12.2813 124.691 10.594Z" fill="#D4A0FF"/>
<path d="M124.691 10.594C124.81 12.2813 125.394 15.9931 126.784 17.3831C128.089 18.6873 131.422 19.2176 133.214 19.3459L133.551 19.3665C131.875 19.448 128.176 19.9595 126.784 21.3508C125.393 22.7422 124.809 26.4599 124.691 28.1448L124.697 28.1467H124.686L124.691 28.1448C124.574 26.46 123.99 22.7424 122.599 21.3508C121.207 19.9595 117.508 19.448 115.832 19.3665C117.508 19.2849 121.207 18.7743 122.599 17.3831C123.989 15.9931 124.573 12.2813 124.691 10.594Z" fill="#D4A0FF"/>
<rect width="57.1925" height="21.6937" transform="translate(158.404 57.7195) rotate(-90)" fill="#F9F1FF"/>
<path d="M174.25 51.6808L174.25 53.7608L163.493 49.9737L163.493 47.5681L174.25 43.7757L174.25 45.8557L171.598 46.7487L171.598 50.7931L174.25 51.6808ZM170.033 50.2679L170.033 47.2739L165.699 48.7289L165.699 48.8129L170.033 50.2679ZM174.25 42.6547L163.493 42.6547L163.493 40.706L172.617 40.706L172.617 35.9682L174.25 35.9682L174.25 42.6547ZM174.25 34.5727L163.493 34.5727L163.493 30.5387C163.493 28.0648 165.001 26.7464 167.054 26.7464C169.124 26.7464 170.616 28.0805 170.616 30.565L170.616 32.624L174.25 32.624L174.25 34.5727ZM169.014 32.624L169.014 30.8276C169.014 29.3779 168.2 28.7318 167.054 28.7318C165.909 28.7318 165.122 29.3779 165.122 30.8381L165.122 32.624L169.014 32.624ZM174.25 25.3496L163.493 25.3496L163.493 23.4009L168.047 23.4009L168.047 18.4162L163.493 18.4162L163.493 16.4623L174.25 16.4623L174.25 18.4162L169.681 18.4162L169.681 23.4009L174.25 23.4009L174.25 25.3496ZM174.25 13.2573L174.25 15.3373L163.493 11.5502L163.493 9.14452L174.25 5.35218L174.25 7.43219L171.598 8.32512L171.598 12.3696L174.25 13.2573ZM170.033 11.8443L170.033 8.85038L165.699 10.3053L165.699 10.3894L170.033 11.8443Z" fill="#D4A0FF"/>
</svg>
