<svg width="114" height="25" viewBox="0 0 114 25" fill="none" xmlns="http://www.w3.org/2000/svg">
<rect x="0.736206" y="0.489777" width="8" height="8" fill="#D4A0FF" fill-opacity="0.4"/>
<rect x="8.73621" y="0.489777" width="8" height="8" fill="#D4A0FF" fill-opacity="0.3"/>
<rect x="16.7362" y="0.489777" width="8" height="8" fill="#D4A0FF" fill-opacity="0.2"/>
<rect x="0.736206" y="8.48978" width="8" height="8" fill="#D4A0FF" fill-opacity="0.5"/>
<rect x="8.73621" y="8.48978" width="8" height="8" fill="#D4A0FF"/>
<rect x="16.7362" y="8.48978" width="8" height="8" fill="#D4A0FF" fill-opacity="0.9"/>
<rect x="0.736206" y="16.4898" width="8" height="8" fill="#D4A0FF" fill-opacity="0.6"/>
<rect x="8.73621" y="16.4898" width="8" height="8" fill="#D4A0FF" fill-opacity="0.7"/>
<rect x="16.7362" y="16.4898" width="8" height="8" fill="#D4A0FF" fill-opacity="0.8"/>
<path d="M103.539 9.97469C103.539 7.655 105.348 6.30957 108.248 6.30957C111.611 6.30957 113.282 7.86377 113.305 10.1371L110.08 10.1371C110.034 9.27878 109.361 8.79165 108.248 8.79165C107.32 8.79165 106.694 9.186 106.694 9.83551C106.694 11.9232 113.49 9.9515 113.49 14.7997C113.49 17.2817 111.588 18.604 108.526 18.604C105.232 18.604 103.261 17.073 103.237 14.6605H106.438C106.485 15.5652 107.274 16.0987 108.526 16.0987C109.616 16.0987 110.312 15.6812 110.312 14.962C110.312 12.8047 103.539 14.8693 103.539 9.97469Z" fill="black"/>
<path d="M101.384 6.30957V18.2559H97.9045V6.30957L101.384 6.30957Z" fill="black"/>
<path d="M86.0958 9.97469C86.0958 7.655 87.9051 6.30957 90.8047 6.30957C94.1683 6.30957 95.8385 7.86377 95.8617 10.1371L92.6373 10.1371C92.5909 9.27878 91.9182 8.79165 90.8047 8.79165C89.8769 8.79165 89.2505 9.186 89.2505 9.83551C89.2505 11.9232 96.0473 9.9515 96.0473 14.7997C96.0473 17.2817 94.1451 18.604 91.0831 18.604C87.7891 18.604 85.8174 17.073 85.7942 14.6605H88.9954C89.0418 15.5652 89.8305 16.0987 91.0831 16.0987C92.1734 16.0987 92.8693 15.6812 92.8693 14.962C92.8693 12.8047 86.0958 14.8693 86.0958 9.97469Z" fill="black"/>
<path d="M84.1851 14.6605C83.814 17.0498 81.6335 18.604 78.6643 18.604C75.2079 18.604 72.7258 16.5626 72.7258 12.4568C72.7258 8.32771 75.2079 6.30957 78.6643 6.30957C81.9118 6.30957 84.3707 8.35091 84.3707 12.4568C84.3707 12.7583 84.3707 13.0367 84.3475 13.3151L76.043 13.3151C76.159 15.1244 77.1797 15.9827 78.6643 15.9827C79.8241 15.9827 80.4504 15.4724 80.7056 14.6605H84.1851ZM78.6643 8.90763C77.2956 8.90763 76.2982 9.67313 76.0894 11.2273L81.0304 11.2273C80.8448 9.67313 79.9401 8.90763 78.6643 8.90763Z" fill="black"/>
<path d="M63.231 6.65753V8.74525C63.8805 7.14466 65.2723 6.30957 67.0353 6.30957C69.3086 6.30957 70.8396 7.67819 70.8396 10.6474V18.256H67.36V11.2737C67.36 9.83551 66.6873 9.1628 65.5043 9.1628C64.2516 9.1628 63.4398 9.99789 63.4398 11.6217V18.256H59.9602V6.65753L63.231 6.65753Z" fill="black"/>
<path d="M57.7716 14.6605C57.4004 17.0498 55.2199 18.604 52.2507 18.604C48.7943 18.604 46.3123 16.5626 46.3123 12.4568C46.3123 8.32771 48.7943 6.30957 52.2507 6.30957C55.4983 6.30957 57.9571 8.35091 57.9571 12.4568C57.9571 12.7583 57.9571 13.0367 57.9339 13.3151L49.6294 13.3151C49.7454 15.1244 50.7661 15.9827 52.2507 15.9827C53.4105 15.9827 54.0369 15.4724 54.292 14.6605H57.7716ZM52.2507 8.90763C50.8821 8.90763 49.8846 9.67313 49.6758 11.2273L54.6168 11.2273C54.4312 9.67313 53.5265 8.90763 52.2507 8.90763Z" fill="black"/>
<path d="M38.6747 6.37607C41.6439 6.37608 43.824 7.93015 44.1952 10.3194H40.7157C40.4605 9.50756 39.8345 8.99718 38.6747 8.99716C37.2548 8.99716 36.2617 9.78245 36.076 11.4337H36.0731C35.9744 12.1123 35.9163 13.5417 36.2089 14.2813C36.5546 15.4806 37.4714 16.0724 38.6747 16.0724C39.9505 16.0723 40.8553 15.3062 41.0409 13.752H37.2977V11.6651H44.3583C44.3814 11.9434 44.3807 12.2221 44.3807 12.5235C44.3806 16.6291 41.9221 18.67 38.6747 18.67C35.2185 18.67 32.7364 16.6523 32.7362 12.5235C32.7362 8.41766 35.2183 6.37607 38.6747 6.37607Z" fill="black"/>
</svg>
