<svg width="383" height="153" viewBox="0 0 383 153" fill="none" xmlns="http://www.w3.org/2000/svg">
<path d="M288.693 54.1838V64.4747C291.895 56.585 298.755 52.4687 307.445 52.4687C318.651 52.4687 326.198 59.2149 326.198 73.8508V111.355H309.046V76.9381C309.046 69.8488 305.73 66.5329 299.899 66.5329C293.724 66.5329 289.722 70.6492 289.722 78.6532V111.355H272.571V54.1838H288.693Z" fill="black"/>
<path d="M267.068 93.6322C265.239 105.409 254.491 113.07 239.855 113.07C222.818 113.07 210.583 103.008 210.583 82.7696C210.583 62.4165 222.818 52.4687 239.855 52.4687C255.863 52.4687 267.983 62.5309 267.983 82.7696C267.983 84.256 267.983 85.6281 267.869 87.0003H226.934C227.506 95.919 232.537 100.15 239.855 100.15C245.572 100.15 248.659 97.6342 249.917 93.6322H267.068ZM239.855 65.2751C233.109 65.2751 228.192 69.0484 227.163 76.7094H251.518C250.603 69.0484 246.144 65.2751 239.855 65.2751Z" fill="black"/>
<path d="M62.7193 31.3152V111.355H45.5679V31.3152H62.7193Z" fill="black"/>
<path d="M84.1196 88.8297C84.1196 95.6901 87.2066 98.8921 92.6948 98.8922C98.6406 98.8922 102.529 94.89 102.529 87.1149V84.6891C106.92 85.4854 111.796 86.944 114.168 89.3864C117.612 92.931 119.206 101.947 119.68 106.97V111.355H103.444V101.522C100.242 109.069 93.4957 113.07 85.1489 113.07C74.2863 113.07 66.9683 106.324 66.9683 91.9166V54.1842H84.1196V88.8297ZM119.68 58.5485C119.207 63.5717 117.612 72.5876 114.168 76.1324C111.796 78.575 106.92 80.0327 102.529 80.8287V54.1842H119.68V58.5485Z" fill="black"/>
<path d="M139.273 111.355H122.122V106.894C122.604 101.856 124.2 92.9132 127.625 89.3864C129.999 86.9424 134.88 85.4832 139.273 84.6871V111.355ZM189.926 52.4684C200.446 52.4684 207.65 58.9862 207.65 73.2789V111.355H190.499V76.3668C190.499 69.6207 187.64 66.5329 182.495 66.5328C177.006 66.5328 173.461 70.535 173.461 78.0817V111.355H156.31V76.3668C156.31 69.6207 153.451 66.5329 148.306 66.5328C142.818 66.5328 139.273 70.535 139.273 78.0817V80.8307C134.88 80.0349 129.999 78.5764 127.625 76.1324C124.199 72.6047 122.604 63.6599 122.122 58.6227V54.1842H138.244V63.903C141.331 56.3565 147.734 52.4685 155.852 52.4684C163.627 52.4684 169.574 56.1277 172.089 63.7887C175.291 56.3565 181.808 52.4685 189.926 52.4684Z" fill="black"/>
<path d="M336.891 12.7849C337.276 18.2713 339.174 30.3396 343.693 34.8591C348.218 39.3832 360.247 41.0442 365.696 41.3093L365.697 41.3064V41.3112L365.696 41.3093C360.247 41.5744 348.218 43.2353 343.693 47.7595C339.169 52.2837 337.273 64.3718 336.89 69.8503L336.908 69.8571H336.871L336.89 69.8503C336.507 64.3718 334.61 52.2837 330.086 47.7595C325.562 43.2355 313.533 41.5745 308.084 41.3093V41.3083C313.533 41.0431 325.562 39.383 330.086 34.8591C334.605 30.3396 336.503 18.2713 336.889 12.7849H336.891Z" fill="#D4A0FF"/>
<path d="M336.891 12.7849C337.276 18.2713 339.174 30.3396 343.693 34.8591C348.218 39.3832 360.247 41.0442 365.696 41.3093L365.697 41.3064V41.3112L365.696 41.3093C360.247 41.5744 348.218 43.2353 343.693 47.7595C339.169 52.2837 337.273 64.3718 336.89 69.8503L336.908 69.8571H336.871L336.89 69.8503C336.507 64.3718 334.61 52.2837 330.086 47.7595C325.562 43.2355 313.533 41.5745 308.084 41.3093V41.3083C313.533 41.0431 325.562 39.383 330.086 34.8591C334.605 30.3396 336.503 18.2713 336.889 12.7849H336.891Z" fill="#D4A0FF"/>
</svg>
